<svg width="28" height="28" viewBox="0 0 28 28" fill="none" xmlns="http://www.w3.org/2000/svg">
<g id="Group 116">
<rect id="Rectangle 6" y="0.116699" width="28" height="27.157" rx="7.72443" fill="#DF0B0B" fill-opacity="0.73"/>
<path id="Vector" d="M14.5 15.0892C16.8291 15.0892 18.7188 13.2565 18.7188 10.9975C18.7188 8.73852 16.8291 6.90576 14.5 6.90576C12.1709 6.90576 10.2812 8.73852 10.2812 10.9975C10.2812 13.2565 12.1709 15.0892 14.5 15.0892ZM18.25 15.9985H16.6357C15.9854 16.2883 15.2617 16.4531 14.5 16.4531C13.7383 16.4531 13.0176 16.2883 12.3643 15.9985H10.75C8.67871 15.9985 7 17.6267 7 19.6356V20.0902C7 20.8432 7.62988 21.4541 8.40625 21.4541H20.5938C21.3701 21.4541 22 20.8432 22 20.0902V19.6356C22 17.6267 20.3213 15.9985 18.25 15.9985Z" fill="white"/>
</g>
</svg>
