<svg width="28" height="28" viewBox="0 0 28 28" fill="none" xmlns="http://www.w3.org/2000/svg">
<rect y="0.64502" width="28" height="27.157" rx="7.72443" fill="#DF0B0B" fill-opacity="0.73"/>
<path d="M15.8228 14.0661L12.8163 13.1682C12.4683 13.0659 12.2261 12.7334 12.2261 12.3641C12.2261 11.9009 12.5935 11.5258 13.0473 11.5258H14.893C15.2327 11.5258 15.5667 11.631 15.8451 11.8242C16.0149 11.9407 16.2432 11.9123 16.388 11.7673L17.3567 10.8012C17.5544 10.6052 17.5266 10.2784 17.3066 10.1051C16.6246 9.55951 15.7727 9.25547 14.8986 9.25263V7.88872C14.8986 7.63867 14.6982 7.43408 14.4532 7.43408H13.5623C13.3174 7.43408 13.1169 7.63867 13.1169 7.88872V9.25263H13.0473C11.274 9.25263 9.84866 10.8069 10.0129 12.651C10.1298 13.961 11.1097 15.0265 12.3458 15.3959L15.1992 16.2484C15.5472 16.3535 15.7894 16.6831 15.7894 17.0525C15.7894 17.5157 15.422 17.8907 14.9682 17.8907H13.1225C12.7829 17.8907 12.4488 17.7856 12.1704 17.5924C12.0006 17.4759 11.7723 17.5043 11.6275 17.6492L10.6588 18.6153C10.4611 18.8114 10.4889 19.1381 10.7089 19.3115C11.3909 19.857 12.2428 20.1611 13.1169 20.1639V21.5278C13.1169 21.7779 13.3174 21.9825 13.5623 21.9825H14.4532C14.6982 21.9825 14.8986 21.7779 14.8986 21.5278V20.1582C16.1959 20.1327 17.4124 19.3456 17.8411 18.0925C18.4397 16.3421 17.4347 14.5463 15.8228 14.0661Z" fill="white"/>
</svg>
