<svg width="19" height="19" viewBox="0 0 19 19" fill="none" xmlns="http://www.w3.org/2000/svg">
<path id="Vector" d="M18.0143 15.9627L14.6342 12.5826C14.4816 12.4301 14.2748 12.3453 14.0579 12.3453H13.5053C14.441 11.1486 14.997 9.64329 14.997 8.00581C14.997 4.11042 11.8406 0.954102 7.94526 0.954102C4.04987 0.954102 0.893555 4.11042 0.893555 8.00581C0.893555 11.9012 4.04987 15.0575 7.94526 15.0575C9.58275 15.0575 11.088 14.5015 12.2848 13.5658V14.1184C12.2848 14.3354 12.3695 14.5422 12.5221 14.6948L15.9022 18.0748C16.2208 18.3935 16.7362 18.3935 17.0515 18.0748L18.0109 17.1154C18.3296 16.7967 18.3296 16.2814 18.0143 15.9627ZM7.94526 12.3453C5.54836 12.3453 3.60575 10.4061 3.60575 8.00581C3.60575 5.6089 5.54497 3.6663 7.94526 3.6663C10.3422 3.6663 12.2848 5.60551 12.2848 8.00581C12.2848 10.4027 10.3456 12.3453 7.94526 12.3453Z" fill="#191919"/>
</svg>
