<svg width="34" height="37" viewBox="0 0 34 37" fill="none" xmlns="http://www.w3.org/2000/svg">
<g id="Group 109">
<rect id="Rectangle 6" width="33.0684" height="36.8977" rx="7.72443" fill="#DF0B0B" fill-opacity="0.73"/>
<path id="Vector" d="M18.7638 17.1172L14.755 15.8828C14.291 15.7422 13.9681 15.2852 13.9681 14.7773C13.9681 14.1406 14.4581 13.625 15.0631 13.625H17.524C17.9769 13.625 18.4223 13.7695 18.7935 14.0352C19.0199 14.1953 19.3243 14.1562 19.5173 13.957L20.809 12.6289C21.0725 12.3594 21.0354 11.9102 20.7422 11.6719C19.8328 10.9219 18.697 10.5039 17.5315 10.5V8.625C17.5315 8.28125 17.2642 8 16.9376 8H15.7498C15.4231 8 15.1559 8.28125 15.1559 8.625V10.5H15.0631C12.6987 10.5 10.7982 12.6367 11.0172 15.1719C11.1731 16.9727 12.4797 18.4375 14.1277 18.9453L17.9323 20.1172C18.3963 20.2617 18.7192 20.7148 18.7192 21.2227C18.7192 21.8594 18.2293 22.375 17.6242 22.375H15.1633C14.7105 22.375 14.2651 22.2305 13.8939 21.9648C13.6674 21.8047 13.3631 21.8438 13.1701 22.043L11.8783 23.3711C11.6148 23.6406 11.6519 24.0898 11.9452 24.3281C12.8546 25.0781 13.9904 25.4961 15.1559 25.5V27.375C15.1559 27.7188 15.4231 28 15.7498 28H16.9376C17.2642 28 17.5315 27.7188 17.5315 27.375V25.4922C19.2612 25.457 20.8832 24.375 21.4548 22.6523C22.2529 20.2461 20.9129 17.7773 18.7638 17.1172Z" fill="white"/>
</g>
</svg>
