<svg width="18" height="16" viewBox="0 0 18 16" fill="none" xmlns="http://www.w3.org/2000/svg">
<g id="Group 68">
<rect id="Rectangle 33" y="0.5" width="17.3077" height="15" rx="5" fill="#DF0B0B"/>
<path id="Vector" d="M9.14218 12.0358L8.70226 12.4757C8.51598 12.662 8.21477 12.662 8.03048 12.4757L4.17816 8.62535C3.99188 8.43908 3.99188 8.13787 4.17816 7.95357L8.03048 4.10125C8.21675 3.91498 8.51796 3.91498 8.70226 4.10125L9.14218 4.54118C9.33044 4.72944 9.32647 5.03659 9.13425 5.22088L6.74637 7.49581H12.4416C12.7052 7.49581 12.9172 7.70785 12.9172 7.97141V8.60554C12.9172 8.86909 12.7052 9.08113 12.4416 9.08113H6.74637L9.13425 11.3561C9.32845 11.5404 9.33242 11.8475 9.14218 12.0358Z" fill="white"/>
</g>
</svg>
