<svg width="18" height="16" viewBox="0 0 18 16" fill="none" xmlns="http://www.w3.org/2000/svg">
<g id="Group 67">
<rect id="Rectangle 34" x="0.307739" y="0.5" width="17.3077" height="15" rx="5" fill="#DF0B0B"/>
<path id="Vector" d="M7.89639 4.54114L8.33632 4.10122C8.52259 3.91494 8.8238 3.91494 9.0081 4.10122L12.8604 7.95155C13.0467 8.13783 13.0467 8.43904 12.8604 8.62333L9.0081 12.4757C8.82182 12.6619 8.52061 12.6619 8.33632 12.4757L7.89639 12.0357C7.70814 11.8475 7.7121 11.5403 7.90432 11.356L10.2922 9.08109H4.59695C4.3334 9.08109 4.12136 8.86905 4.12136 8.6055V7.97137C4.12136 7.70781 4.3334 7.49577 4.59695 7.49577L10.2922 7.49577L7.90432 5.22085C7.71012 5.03655 7.70616 4.7294 7.89639 4.54114Z" fill="white"/>
</g>
</svg>
