<svg width="42" height="58" viewBox="0 0 42 58" fill="none" xmlns="http://www.w3.org/2000/svg">
<g id="search">
<g id="Rectangle 7" filter="url(#filter0_d_139_8599)">
<rect x="4" width="34" height="50" rx="10" fill="#DF0B0B"/>
</g>
<path id="Vector" d="M24.5455 17H16.3636C15.6136 17 15 17.6136 15 18.3636V27.9091H16.3636V18.3636H24.5455V17ZM26.5909 19.7273H19.0909C18.3409 19.7273 17.7273 20.3409 17.7273 21.0909V30.6364C17.7273 31.3864 18.3409 32 19.0909 32H26.5909C27.3409 32 27.9545 31.3864 27.9545 30.6364V21.0909C27.9545 20.3409 27.3409 19.7273 26.5909 19.7273ZM26.5909 30.6364H19.0909V21.0909H26.5909V30.6364Z" fill="white"/>
</g>
<defs>
<filter id="filter0_d_139_8599" x="0" y="0" width="42" height="58" filterUnits="userSpaceOnUse" color-interpolation-filters="sRGB">
<feFlood flood-opacity="0" result="BackgroundImageFix"/>
<feColorMatrix in="SourceAlpha" type="matrix" values="0 0 0 0 0 0 0 0 0 0 0 0 0 0 0 0 0 0 127 0" result="hardAlpha"/>
<feOffset dy="4"/>
<feGaussianBlur stdDeviation="2"/>
<feComposite in2="hardAlpha" operator="out"/>
<feColorMatrix type="matrix" values="0 0 0 0 0 0 0 0 0 0 0 0 0 0 0 0 0 0 0.25 0"/>
<feBlend mode="normal" in2="BackgroundImageFix" result="effect1_dropShadow_139_8599"/>
<feBlend mode="normal" in="SourceGraphic" in2="effect1_dropShadow_139_8599" result="shape"/>
</filter>
</defs>
</svg>
