<svg width="27" height="27" viewBox="0 0 27 27" fill="none" xmlns="http://www.w3.org/2000/svg">
<rect width="26.25" height="26.25" rx="13.125" fill="#EC180C"/>
<path d="M10.2253 17.2498H8.04844V10.2396H10.2253V17.2498ZM9.1357 9.28336C8.43961 9.28336 7.875 8.7068 7.875 8.0107C7.875 7.67634 8.00782 7.35568 8.24425 7.11925C8.48068 6.88282 8.80134 6.75 9.1357 6.75C9.47006 6.75 9.79073 6.88282 10.0272 7.11925C10.2636 7.35568 10.3964 7.67634 10.3964 8.0107C10.3964 8.7068 9.83156 9.28336 9.1357 9.28336ZM18.3727 17.2498H16.2005V13.8373C16.2005 13.024 16.1841 11.981 15.0687 11.981C13.9369 11.981 13.7634 12.8646 13.7634 13.7787V17.2498H11.5889V10.2396H13.6767V11.1959H13.7072C13.9978 10.6451 14.7077 10.0638 15.7669 10.0638C17.97 10.0638 18.375 11.5146 18.375 13.399V17.2498H18.3727Z" fill="white"/>
</svg>
