<svg width="27" height="27" viewBox="0 0 27 27" fill="none" xmlns="http://www.w3.org/2000/svg">
<rect x="0.25" width="26.25" height="26.25" rx="13.125" fill="#EC180C"/>
<path d="M18.1415 10.3059C18.1491 10.4125 18.1491 10.5191 18.1491 10.6257C18.1491 13.8769 15.6745 17.6231 11.1516 17.6231C9.75824 17.6231 8.46384 17.2196 7.375 16.5191C7.57298 16.5419 7.76331 16.5495 7.96891 16.5495C9.11863 16.5495 10.177 16.1612 11.0222 15.4988C9.94098 15.4759 9.03489 14.7678 8.7227 13.7932C8.875 13.816 9.02727 13.8312 9.18719 13.8312C9.40799 13.8312 9.62882 13.8008 9.83439 13.7475C8.70749 13.5191 7.86229 12.5292 7.86229 11.3338V11.3034C8.18969 11.4861 8.57043 11.6003 8.97395 11.6155C8.31152 11.1739 7.87752 10.4201 7.87752 9.56729C7.87752 9.11045 7.99933 8.69166 8.21254 8.32618C9.4232 9.81856 11.243 10.7932 13.2836 10.8998C13.2455 10.717 13.2227 10.5267 13.2227 10.3363C13.2227 8.981 14.3191 7.87695 15.6821 7.87695C16.3902 7.87695 17.0298 8.17391 17.479 8.6536C18.0348 8.54701 18.5678 8.34141 19.0399 8.0597C18.8572 8.63077 18.4689 9.11047 17.9587 9.41502C18.4536 9.36174 18.9333 9.22466 19.375 9.03432C19.04 9.52161 18.6212 9.9556 18.1415 10.3059Z" fill="white"/>
</svg>
