<svg width="2667" height="4000" viewBox="0 0 2667 4000" fill="none" xmlns="http://www.w3.org/2000/svg">
<g clip-path="url(#clip0_257_19042)">
<path d="M2666.67 4000H0V-0.000208616H2666.67V4000Z" fill="#FFE19F"/>
<path d="M2666.67 2642.67H0V0.000488281H2666.67V2642.67Z" fill="#F4AA5B"/>
<path d="M0 0.000112295V244.6L2666.67 518.667V0.000112295H0Z" fill="#C12925"/>
<path d="M0 244L548 301.333L0 1864.91V244Z" fill="white"/>
<path d="M283.584 2790.73C279.683 2790.73 276.521 2794.07 276.521 2798.16C276.521 2802.27 279.683 2805.59 283.584 2805.59H2265.85C2269.89 2805.59 2273.17 2802.32 2273.2 2798.27C2273.2 2798.23 2273.2 2798.17 2273.2 2798.12C2273.21 2794.05 2269.92 2790.73 2265.85 2790.73H283.584Z" fill="#EFBE5E"/>
<path d="M1458.23 2010.23L1446.01 1992.57L1424.53 1992.61C1422.09 1992.61 1420.71 1989.81 1422.19 1987.88L1435.21 1970.8L1428.53 1950.39C1427.77 1948.07 1430 1945.88 1432.31 1946.68L1452.57 1953.8L1469.92 1941.13C1471.89 1939.69 1474.67 1941.15 1474.61 1943.59L1474.11 1965.05L1491.52 1977.64C1493.49 1979.08 1492.97 1982.16 1490.63 1982.87L1470.05 1989.01L1463.47 2009.45C1462.72 2011.79 1459.61 2012.24 1458.23 2010.23Z" fill="#DC4437"/>
<path d="M1624.97 1154.95L1612.76 1137.28L1591.28 1137.33C1588.84 1137.33 1587.44 1134.53 1588.93 1132.59L1601.96 1115.51L1595.27 1095.11C1594.51 1092.77 1596.75 1090.59 1599.05 1091.4L1619.32 1098.51L1636.67 1085.85C1638.64 1084.4 1641.41 1085.85 1641.36 1088.29L1640.85 1109.77L1658.25 1122.36C1660.24 1123.79 1659.72 1126.87 1657.37 1127.57L1636.8 1133.73L1630.21 1154.17C1629.45 1156.49 1626.36 1156.96 1624.97 1154.95Z" fill="#DC4437"/>
<path d="M2024.97 1620.97L2036.29 1594.76L2021.12 1570.57C2019.39 1567.81 2021.57 1564.27 2024.81 1564.57L2053.24 1567.24L2071.56 1545.33C2073.64 1542.83 2077.69 1543.81 2078.4 1546.99L2084.65 1574.85L2111.15 1585.51C2114.17 1586.72 2114.49 1590.87 2111.69 1592.52L2087.12 1607.08L2085.19 1635.57C2084.96 1638.81 2081.11 1640.4 2078.67 1638.25L2057.24 1619.37L2029.53 1626.33C2026.39 1627.13 2023.69 1623.96 2024.97 1620.97Z" fill="#DC4437"/>
<path d="M1877.72 1048.89L1889.04 1022.68L1873.87 998.48C1872.13 995.733 1874.32 992.187 1877.56 992.493L1905.99 995.16L1924.31 973.24C1926.39 970.747 1930.44 971.733 1931.15 974.907L1937.4 1002.77L1963.89 1013.41C1966.92 1014.63 1967.24 1018.77 1964.44 1020.44L1939.87 1034.99L1937.93 1063.48C1937.71 1066.73 1933.85 1068.32 1931.41 1066.16L1909.99 1047.29L1882.28 1054.25C1879.13 1055.05 1876.44 1051.88 1877.72 1048.89Z" fill="#DF0B0B"/>
<path d="M546.127 2341.6L531.597 2313.8L500.464 2310.01C496.919 2309.59 495.407 2305.27 497.907 2302.72L519.852 2280.32L513.835 2249.53C513.149 2246.03 516.783 2243.25 519.981 2244.84L548.073 2258.79L575.488 2243.56C578.611 2241.83 582.367 2244.43 581.845 2247.96L577.261 2278.99L600.221 2300.35C602.836 2302.79 601.527 2307.16 598.003 2307.76L567.079 2312.99L553.853 2341.43C552.347 2344.65 547.78 2344.76 546.127 2341.6Z" fill="#FF6B00"/>
<path d="M781.155 1411.36L791.931 1395.7L785.135 1377.95C784.358 1375.93 786.244 1373.89 788.317 1374.51L806.539 1379.92L821.327 1367.97C823.012 1366.61 825.527 1367.77 825.584 1369.93L826.075 1388.93L842.003 1399.31C843.817 1400.49 843.488 1403.24 841.448 1403.96L823.526 1410.3L818.59 1428.65C818.024 1430.75 815.31 1431.28 813.989 1429.57L802.424 1414.48L783.438 1415.46C781.282 1415.56 779.931 1413.15 781.155 1411.36Z" fill="#DF0B0B"/>
<path d="M2064.05 1355L2049.52 1327.21L2018.39 1323.41C2014.84 1322.99 2013.33 1318.68 2015.84 1316.12L2037.77 1293.72L2031.76 1262.93C2031.08 1259.43 2034.71 1256.67 2037.91 1258.25L2066 1272.2L2093.41 1256.96C2096.53 1255.23 2100.29 1257.83 2099.77 1261.36L2095.19 1292.39L2118.15 1313.76C2120.76 1316.19 2119.45 1320.56 2115.93 1321.16L2085 1326.39L2071.79 1354.83C2070.28 1358.07 2065.71 1358.17 2064.05 1355Z" fill="#FFFBF3"/>
<path d="M376.501 1831.04L378.152 1814.55L365.51 1803.84C364.069 1802.62 364.654 1800.28 366.503 1799.88L382.69 1796.35L388.973 1781.02C389.691 1779.27 392.093 1779.11 393.045 1780.74L401.399 1795.05L417.926 1796.28C419.806 1796.42 420.711 1798.66 419.456 1800.07L408.424 1812.43L412.355 1828.54C412.804 1830.37 410.958 1831.92 409.23 1831.16L394.056 1824.49L379.966 1833.21C378.36 1834.2 376.31 1832.92 376.501 1831.04Z" fill="#FFFBF3"/>
<path d="M2206.29 1673.75L2206.65 1688.93L2182.28 1692.21L2180.07 1714.49L2162.23 1719.93L2164.99 1728.96L2188.84 1721.68L2190.93 1700.57L2216.29 1697.16L2215.75 1674.31L2206.29 1673.75Z" fill="#FF6B00"/>
<path d="M805.741 1921.04C806.283 1940.89 811.404 1983.49 856.419 1990.53C884.361 1994.91 920.149 1969.8 917.845 1951.37C915.543 1932.95 910.423 1885.97 881.245 1875.23C856.865 1866.25 804.532 1876.75 805.741 1921.04Z" fill="#353535"/>
<path d="M1181.34 2562.69C1187.7 2589.41 1192.71 2627.99 1194.57 2630.13C1195.47 2631.17 1197.32 2637.91 1198.22 2639C1227.29 2649.57 1252.83 2638.67 1273.08 2626.67C1257.21 2623.85 1235.84 2620.92 1232.86 2618.81C1221.81 2611.03 1224.45 2583.27 1222.46 2558.35C1214.6 2559.75 1195.52 2554.77 1181.34 2562.69Z" fill="#F9C38A"/>
<path d="M1193.97 2628.63C1194.16 2639.19 1200.95 2661.72 1203.05 2661.69C1205.56 2661.65 1292.92 2654.08 1301.16 2640.68C1306.11 2632.63 1292.65 2630.52 1273.08 2626.67C1252.83 2638.67 1196.4 2635.23 1193.97 2628.63Z" fill="#353535"/>
<path d="M766.46 2622.33C746.249 2638.17 725.808 2650.83 723.236 2652.04C722 2652.63 715.013 2652.61 713.717 2653.19C695.744 2678.36 699.412 2705.89 705.552 2728.61C712.516 2714.08 720.716 2693.77 723.884 2691.96C728.931 2689.08 747.133 2678.27 779.813 2664.97C768.743 2652.97 770.285 2638.12 766.46 2622.33Z" fill="#F9C38A"/>
<path d="M812.485 2063.84L750.045 2177.43C750.045 2177.43 708.296 2229.96 686.803 2256.93C691.431 2264.51 695.907 2272.27 699.905 2280.24C721.292 2262.05 766.789 2223.47 783.032 2202.15C807.029 2170.64 850.456 2095.84 850.456 2095.84L812.485 2063.84Z" fill="#F9C38A"/>
<path d="M978.505 2261.53L911.723 2360.04C911.723 2360.04 907.891 2353.44 931.807 2362.19C955.722 2370.93 1109.97 2399.75 1119.09 2410.64C1125.55 2418.35 1173.39 2569.65 1182.6 2589.08C1196.48 2594.71 1216.66 2588.45 1230.9 2586.4C1231.81 2513.52 1193.21 2380.83 1182.92 2365.28C1159.9 2330.51 1050.32 2292.95 1000.99 2271.88C992.984 2268.45 986.777 2265.39 982.927 2263.53C980.076 2262.16 978.505 2261.53 978.505 2261.53Z" fill="#C12925"/>
<path d="M722.163 2652.31C711.941 2649.65 691.104 2649.73 690.568 2651.76C689.927 2654.19 673.813 2740.39 684.52 2751.91C690.957 2758.84 696.585 2746.44 705.552 2728.61C699.412 2705.89 715.143 2652.87 722.163 2652.31Z" fill="#353535"/>
<path d="M960.981 2330.88C961.56 2323.48 977.381 2280.29 982.987 2263.48C983.164 2262.95 979.023 2253.23 974.549 2239.23L968.143 2240.25L873.191 2244.56C873.191 2244.56 834.953 2309.15 839.404 2338.81C845.619 2380.24 905.507 2527.48 896.399 2534.43C879.963 2546.95 799.439 2593.6 758.059 2621.35C760.704 2637.37 768.113 2659.73 778.265 2672.53C811.939 2660.83 957.451 2602.16 972.417 2557.16C985.639 2517.41 960 2343.45 960.981 2330.88Z" fill="#DC4437"/>
<path d="M959.452 1967.88C959.452 1967.88 933.301 2008.96 917.883 2010.45L972.417 2060.91C972.417 2060.91 1009.57 2005.2 1013.45 1995.65C1013.45 1995.65 979.633 1965.53 959.452 1967.88Z" fill="#E6E6E6"/>
<path d="M978.545 2216.15C976.099 2238.76 983.075 2263.51 983.075 2263.51C961.145 2268.21 883.411 2278.12 864.399 2254.97C863.719 2254.15 891.32 2205.47 887.519 2185.59C881.912 2156.27 857.568 2106.56 855.548 2103.89C852.16 2099.41 839.709 2122.55 839.709 2122.55C825.125 2122.63 791.725 2088.73 791.725 2088.73C791.725 2088.73 826.267 2028.56 835.773 2022.89C845.277 2017.24 923.811 2008.69 923.869 2008.69C929.648 2008.27 945.436 2021.97 949.775 2026.29C999.416 2075.83 986.045 2146.8 978.545 2216.15Z" fill="white"/>
<path d="M879.599 1983.44C879.599 1983.44 888.159 2011.72 888.219 2023.23C888.277 2034.72 892.864 2050.37 916.972 2048C941.081 2045.63 921.305 2021.37 917.883 2010.45C914.46 1999.53 910.356 1965.05 910.356 1965.05L879.599 1983.44Z" fill="#F9C38A"/>
<path d="M912.643 1982.32C911.292 1972.92 910.356 1965.05 910.356 1965.05L879.599 1983.44C879.599 1983.44 881.349 1989.23 883.273 1996.63C897.709 1998 907.419 1991.71 912.643 1982.32Z" fill="#E5AC7A"/>
<path d="M854.516 1898.07C854.516 1898.07 841.831 1906.92 838.584 1923.61C835.335 1940.29 845.248 1981.47 881.049 1987.96C916.852 1994.44 928.495 1959.83 918.665 1934.71C908.835 1909.6 889.88 1878.48 854.516 1898.07Z" fill="#F9C38A"/>
<path d="M921.977 1924.24C922.015 1931.25 918.732 1936.96 914.645 1936.99C910.561 1937 907.22 1931.33 907.184 1924.32C907.148 1917.31 910.431 1911.61 914.515 1911.59C918.6 1911.56 921.941 1917.23 921.977 1924.24Z" fill="#F9C38A"/>
<path d="M854.143 1959.19C858.855 1964.83 859.579 1971.99 855.761 1975.17C851.944 1978.35 845.032 1976.36 840.323 1970.71C835.611 1965.07 834.888 1957.91 838.704 1954.72C842.52 1951.53 849.433 1953.53 854.143 1959.19Z" fill="#F9C38A"/>
<path d="M817.833 1882.35C819.24 1863.12 832.848 1791.59 789.093 1784.81C745.339 1778.03 735.997 1825.83 711.737 1761.49C689.263 1701.89 622.464 1724.96 619.672 1770.23C613.332 1769.69 606.836 1770.61 600.645 1773.23C579.235 1782.24 569.608 1807.89 579.144 1830.53C580.66 1834.12 579.799 1837.69 582.023 1840.67C576.892 1860.37 580.432 1882.92 595.651 1905.81C637.219 1968.33 678.912 1902.52 707.02 1906.03C735.129 1909.53 716.807 1931.51 741.156 1948.65C765.503 1965.8 785.104 1961.32 824.737 1914.53L834.521 1901.64C834.521 1901.64 816.428 1901.59 817.833 1882.35Z" fill="#353535"/>
<path d="M2047.71 2427.11C2069.63 2418.35 2089.27 2406.44 2091.59 2405.23C2093.37 2404.28 2100.81 2398.8 2101.87 2398.04C2121.2 2409.53 2128.27 2419.32 2143.51 2434.69C2132.23 2435.31 2127.45 2426.05 2123.13 2427.01C2117.92 2428.17 2101.51 2439.19 2075.85 2459.03C2071.41 2444.68 2058.49 2437.44 2047.71 2427.11Z" fill="#F9C38A"/>
<path d="M1737.31 2651.84C1742.29 2674.93 1751.39 2695.45 1752.49 2697.83C1753.03 2698.97 1756.43 2699.85 1757 2701.01C1742.45 2718.17 1736.16 2746.71 1718.47 2759.17C1719.73 2747.95 1727.27 2726.89 1727.03 2722.47C1726.75 2717.13 1718.63 2699.13 1703.32 2670.52C1718.21 2668.53 1725.32 2660.76 1737.31 2651.84Z" fill="#F9C38A"/>
<path d="M1746.51 2702.56C1748.49 2697.56 1755.05 2694.12 1759.71 2697.07C1764.4 2700.04 1770.65 2703.29 1775.31 2706.52C1780.56 2710.16 1780.92 2714.24 1780.79 2715.16C1780.41 2717.84 1718.43 2790.32 1710.49 2791.36C1702.55 2792.41 1717.24 2731.12 1725.95 2724.83C1733.69 2719.21 1737.57 2725 1746.51 2702.56Z" fill="#DC4437"/>
<path d="M2100.03 2405.28C2095.47 2402.43 2093.25 2395.36 2096.99 2391.31C2100.76 2387.21 2105.08 2381.65 2109.08 2377.64C2113.6 2373.13 2117.68 2373.51 2118.57 2373.8C2121.13 2374.65 2181.35 2448.6 2180.96 2456.6C2180.57 2464.6 2122.89 2439.19 2118.25 2429.49C2114.12 2420.87 2120.51 2418.08 2100.03 2405.28Z" fill="#DC4437"/>
<path d="M1761.03 2381.68C1761.03 2381.68 1883.27 2546.4 1904.53 2547.92C1924.43 2549.35 2078.6 2463.37 2078.6 2463.37L2058.55 2418.99L1935.08 2463.37L1849.12 2300.68L1761.03 2381.68Z" fill="#171724"/>
<path d="M1831.39 2242.48C1831.39 2242.48 1853.77 2247.8 1866.56 2281.91C1879.35 2316 1857.96 2344.33 1804.36 2393.76C1752.17 2441.87 1700.64 2487.07 1700.64 2487.07L1742.95 2661.27L1707.79 2691.11C1707.79 2691.11 1626.28 2514.05 1623.91 2471.91C1623 2455.8 1748.28 2269.12 1748.28 2269.12L1831.39 2242.48Z" fill="#1D1D2D"/>
<path d="M1736.81 2029.19L1668.67 2067.31L1614.67 2093.23C1614.67 2093.23 1601.49 2048.41 1605.91 2026.45C1606.53 2023.31 1609.65 2019.6 1610.76 2017.92C1619.67 2004.57 1600.64 1983.83 1600.64 1983.83C1600.64 1983.83 1589.17 1980.56 1581.39 1999.48C1573.59 2018.4 1587.97 2026.43 1587.97 2026.43C1587.97 2026.43 1571.56 2083.71 1578.44 2125.44C1582.04 2147.31 1636.71 2131.25 1680.27 2112.41C1716.89 2096.57 1743.85 2078.89 1743.85 2078.89L1736.81 2029.19Z" fill="#F9C38A"/>
<path d="M1752.15 2022.64C1750.71 2021.29 1748.33 2020.51 1744.47 2021.95C1736.03 2025.08 1654.21 2070.03 1654.21 2070.03C1654.21 2070.03 1661.56 2109.33 1680.75 2121.41L1721.96 2108.83L1753.48 2029.15C1754.36 2026.91 1753.91 2024.29 1752.15 2022.64Z" fill="#C52528" fill-opacity="0.87"/>
<path d="M1922.74 1855.08C1894.4 1835.96 1859.06 1839.65 1838.02 1865.33C1820.72 1858.18 1800.86 1858.73 1784.8 1866.98C1753.12 1883.29 1725.07 1925.83 1748.94 1956.72C1743.87 1997.72 1766.15 2021.57 1793.91 2024.29C1809.01 2057.64 1862.5 2061.06 1893.28 2033.61C1918.71 2044.42 1948.92 2039.76 1967.72 2019.56C1972.23 2014.71 1978.84 2006.94 1980.36 2006.23C1978.54 2007.24 2051.21 1996.64 2047.89 1926.1C2044.51 1854.13 1966.28 1826.5 1922.74 1855.08Z" fill="#551A1B"/>
<path d="M1799.39 2017.21L1849.93 2020L1841.55 2090.63C1841.55 2090.63 1817.15 2158.6 1827.09 2191.28C1837.04 2223.96 1846.63 2247.76 1846.63 2247.76C1846.63 2247.76 1817.85 2280.79 1737.23 2274.04C1737.23 2274.04 1738.29 2215.43 1737.23 2197.67C1736.16 2179.91 1715.56 2106.03 1718.4 2089.32C1721.24 2072.63 1739 2026.45 1743.61 2022.55C1748.24 2018.64 1766.53 2016.68 1766.53 2016.68L1799.39 2017.21Z" fill="#C52528"/>
<path d="M1801.76 1978.43C1801.76 1978.43 1800.89 1984.15 1800.07 1991.48C1799.04 2000.63 1798.07 2012.31 1798.93 2018.55C1800.51 2029.81 1789.91 2059.47 1766 2060.55C1742.08 2061.63 1765.49 2027.79 1767.29 2016.63C1769.11 2005.45 1769.09 1964.77 1769.09 1964.77L1801.76 1978.43Z" fill="#F9C38A"/>
<path d="M1769.29 1982C1769.28 1972.6 1769.09 1964.77 1769.09 1964.77L1801.76 1978.43C1801.76 1978.43 1800.87 1984.33 1800.03 1991.84C1786.11 1995.23 1775.72 1990.44 1769.29 1982Z" fill="#E5AC7A"/>
<path d="M1804.23 1894.55C1804.23 1894.55 1818.05 1899.44 1825.23 1913.88C1832.4 1928.31 1833.72 1968.44 1802.63 1983.39C1771.53 1998.35 1752.17 1969.64 1754.83 1944.21C1757.49 1918.77 1766.97 1885.56 1804.23 1894.55Z" fill="#F9C38A"/>
<path d="M1749.16 1935.48C1750.89 1941.89 1755.33 1946.28 1759.08 1945.27C1762.81 1944.25 1764.44 1938.24 1762.71 1931.81C1760.97 1925.4 1756.53 1921.01 1752.8 1922.03C1749.05 1923.03 1747.43 1929.05 1749.16 1935.48Z" fill="#F9C38A"/>
<path d="M1821.48 1949.21C1818.6 1955.56 1819.73 1962.29 1824.03 1964.24C1828.32 1966.19 1834.13 1962.61 1837.01 1956.27C1839.91 1949.92 1838.76 1943.2 1834.47 1941.25C1830.17 1939.29 1824.36 1942.87 1821.48 1949.21Z" fill="#F9C38A"/>
<path d="M1077.54 2273.24L785.976 2370.35C763.975 2377.67 740.089 2365.99 732.625 2344.24L541.453 1787.35C533.991 1765.61 545.775 1742.04 567.776 1734.72L859.339 1637.61C881.339 1630.29 905.224 1641.97 912.689 1663.72C959.111 1798.95 1099.69 2208.44 1103.86 2220.61C1111.32 2242.35 1099.54 2265.92 1077.54 2273.24ZM1147.64 2258.04C1142.88 2244.2 949.393 1680.56 940.941 1655.93C928 1618.24 886.588 1597.99 848.443 1610.68L559.843 1706.8C521.697 1719.51 501.265 1760.36 514.205 1798.05L720.9 2400.16C733.841 2437.87 775.253 2458.12 813.399 2445.41L1102 2349.31C1140.14 2336.6 1160.58 2295.75 1147.64 2258.04Z" fill="#353535"/>
<path d="M1950.6 2382.95C1945.25 2406.59 1920.88 2421.21 1896.16 2415.63L1568.52 2341.56C1543.8 2335.97 1528.09 2312.28 1533.43 2288.64L1670.31 1683.19C1675.65 1659.55 1700.03 1644.92 1724.75 1650.51L2052.39 1724.57C2077.11 1730.16 2092.81 1753.85 2087.48 1777.49L1950.6 2382.95ZM2057.47 1694.39L1733.16 1621.07C1690.29 1611.37 1648.03 1636.75 1638.76 1677.73L1490.77 2332.33C1481.51 2373.32 1508.75 2414.4 1551.61 2424.09L1875.92 2497.41C1918.79 2507.11 1961.04 2481.73 1970.31 2440.75L2118.29 1786.13C2127.56 1745.16 2100.32 1704.08 2057.47 1694.39Z" fill="#353535"/>
<path d="M1847.89 2038.32C1847.89 2038.32 1954.47 2012.44 1978.23 2008.08C2001.99 2003.73 2084.44 1973.99 2087.6 1972.73C2090.77 1971.47 2102.52 1929.07 2107.16 1932.03C2111.81 1934.99 2100.03 1953.4 2105.85 1955.79C2111.68 1958.17 2161.32 1935.95 2161.67 1939.96C2162.31 1947.49 2131.8 1954.73 2132.76 1958.19C2133.73 1961.64 2163.92 1947.71 2167.61 1952.88C2171.31 1958.05 2137.8 1963.43 2137.2 1966.35C2136.59 1969.25 2169.37 1965.47 2167.59 1971.68C2166.63 1975.05 2138.36 1974.36 2139.55 1978.28C2140.75 1982.2 2162.27 1986.07 2160.77 1989.85C2159.28 1993.64 2143.17 1984.21 2132.05 1987.04C2120.93 1989.87 2111.44 1986.23 2095.05 1995.84C2078.67 2005.45 2024.92 2046.01 1986.69 2054.4C1948.48 2062.77 1864.07 2081.52 1864.07 2081.52L1847.89 2038.32Z" fill="#F9C38A"/>
<path d="M1822.08 2021.92C1825.68 2020.2 1836.75 2019.92 1849.92 2020.01C1854.76 2020.05 1861.59 2020.08 1866.76 2019.93C1886.01 2019.39 1904.29 2020.29 1904.29 2020.29C1904.29 2020.29 1913.99 2067.07 1905.92 2079.01C1905.92 2079.01 1830.61 2089.77 1832.43 2095.01L1822.08 2021.92Z" fill="#C52528"/>
<path d="M1560.91 2022.19L1567.4 2013.99C1567.4 2013.99 1571.43 2007.73 1577.51 2007.12C1583.57 2006.51 1583.39 1998.89 1576.96 1999.97C1570.53 2001.07 1566.49 2002.6 1566.49 2002.6C1566.49 2002.6 1579.27 1996.03 1579.49 1995.19C1580.76 1990.4 1573.71 1988.55 1564.27 1995.55C1554.83 2002.56 1560.91 2022.19 1560.91 2022.19Z" fill="#F9C38A"/>
<path d="M690.663 2268.45C686.543 2270.69 683.665 2272.73 682.373 2273.72C682.435 2273.59 682.5 2273.44 682.568 2273.31C683.927 2271.88 688.591 2266.89 688.631 2266.87C694.763 2262.19 691.541 2257.19 685.808 2260.29C680.076 2263.39 676.749 2266.15 676.749 2266.15C676.749 2266.15 686.696 2256.44 686.652 2254.93C686.509 2249.99 679.037 2250.51 672.367 2260.2C666.528 2268.68 675.141 2283.51 677.639 2287.01C680.107 2292.11 684.624 2294.47 684.624 2294.47L686.147 2284.8C686.147 2284.8 687.94 2277.57 693.485 2275.04C699.031 2272.49 696.396 2265.36 690.663 2268.45Z" fill="#F9C38A"/>
<path d="M1584.45 1992.47C1584.45 1992.47 1599.59 1980.31 1602 1985.48C1604.41 1990.65 1603.36 2001.85 1601.09 2001.05C1598.84 2000.27 1599.15 1992.29 1592.64 1994.37C1590.83 1994.95 1581.81 1997.8 1584.45 1992.47Z" fill="#F9C38A"/>
<path d="M804 1694L854.204 1762.59L870.3 1711.83L804 1694Z" fill="#DC4437"/>
<path d="M1244.22 1776.64L831.238 1710.6C808.031 1706.89 792.226 1685.07 795.937 1661.86L801.878 1624.71C805.589 1601.5 827.41 1585.7 850.618 1589.4L1263.6 1655.44C1286.81 1659.15 1302.61 1680.97 1298.9 1704.18L1292.96 1741.34C1289.24 1764.54 1267.43 1780.35 1244.22 1776.64Z" fill="#DC4437"/>
<path d="M862.152 1627.02C863.616 1617.83 872.255 1611.56 881.449 1613.03L931.388 1620.98C940.581 1622.44 946.847 1631.08 945.384 1640.27L937.432 1690.21C935.968 1699.41 927.328 1705.67 918.135 1704.21L868.196 1696.26C859.003 1694.79 852.736 1686.15 854.2 1676.96L862.152 1627.02Z" fill="white"/>
<path d="M886.838 1623.84L922.905 1629.58C930.566 1630.8 935.788 1638 934.568 1645.66L928.825 1681.73C927.605 1689.39 920.405 1694.61 912.744 1693.39L876.677 1687.65C869.016 1686.43 863.794 1679.23 865.014 1671.57L870.757 1635.5C871.977 1627.84 879.176 1622.62 886.838 1623.84Z" stroke="#DF0B0B" stroke-width="5.61867"/>
<path d="M914.692 1643.21C911.824 1642.75 909.118 1644.72 908.662 1647.58C908.534 1648.39 908.612 1649.17 908.828 1649.9L901.361 1655.31L893.091 1654C892.693 1651.87 891.016 1650.11 888.759 1649.75C885.891 1649.29 883.186 1651.26 882.729 1654.12C882.273 1656.99 884.235 1659.7 887.103 1660.15C889.36 1660.51 891.5 1659.36 892.539 1657.46L900.809 1658.78L906.225 1666.25C905.792 1666.87 905.476 1667.59 905.348 1668.39C904.892 1671.26 906.854 1673.97 909.722 1674.42C912.59 1674.88 915.296 1672.92 915.752 1670.05C916.209 1667.18 914.247 1664.48 911.379 1664.02C910.578 1663.89 909.797 1663.97 909.067 1664.19L904.255 1657.55L910.89 1652.74C911.517 1653.17 912.235 1653.49 913.035 1653.62C915.903 1654.07 918.609 1652.11 919.066 1649.24C919.522 1646.37 917.56 1643.67 914.692 1643.21Z" fill="#DF0B0B"/>
<path d="M1023.83 1719.99L1044.63 1723.31L1057.89 1640.07L1037.08 1636.76L1023.83 1719.99ZM992.615 1715.02L1013.42 1718.34L1020.05 1676.72L999.241 1673.41L992.615 1715.02ZM1064.15 1667.74L1055.04 1724.96L1075.85 1728.28L1084.96 1671.05L1064.15 1667.74Z" fill="white"/>
<path d="M1175.6 1746.43C1198.58 1750.09 1220.18 1734.42 1223.84 1711.44C1227.5 1688.45 1211.84 1666.85 1188.85 1663.2C1165.87 1659.54 1144.27 1675.2 1140.61 1698.18C1136.95 1721.17 1152.62 1742.77 1175.6 1746.43Z" fill="white"/>
<path d="M1176.63 1740.54C1169.57 1739.41 1163 1736.22 1157.75 1731.36C1152.5 1726.5 1148.81 1720.19 1147.15 1713.24C1145.48 1706.28 1145.92 1698.99 1148.4 1692.28C1150.88 1685.57 1155.3 1679.75 1161.09 1675.55C1166.88 1671.35 1173.78 1668.96 1180.93 1668.69C1188.07 1668.41 1195.14 1670.26 1201.24 1674.01C1207.33 1677.75 1212.18 1683.21 1215.17 1689.71C1218.16 1696.21 1219.16 1703.45 1218.03 1710.51C1216.51 1719.98 1211.3 1728.46 1203.54 1734.09C1195.78 1739.72 1186.1 1742.04 1176.63 1740.54ZM1187.84 1670.13C1180.99 1669.03 1173.97 1669.99 1167.66 1672.89C1161.36 1675.79 1156.05 1680.49 1152.42 1686.4C1148.79 1692.31 1146.99 1699.17 1147.25 1706.1C1147.52 1713.04 1149.83 1719.74 1153.91 1725.36C1157.98 1730.97 1163.63 1735.26 1170.13 1737.67C1176.64 1740.07 1183.72 1740.5 1190.46 1738.88C1197.21 1737.27 1203.33 1733.69 1208.05 1728.6C1212.76 1723.51 1215.86 1717.14 1216.95 1710.28C1218.4 1701.1 1216.15 1691.72 1210.7 1684.19C1205.24 1676.66 1197.02 1671.6 1187.84 1670.13Z" fill="#DF0B0B"/>
<path d="M1190.37 1704.55L1180.68 1699.79C1179.55 1699.25 1178.92 1697.96 1179.12 1696.66C1179.38 1695.05 1180.83 1693.93 1182.37 1694.18L1188.63 1695.17C1189.78 1695.36 1190.85 1695.91 1191.69 1696.73C1192.2 1697.23 1192.99 1697.25 1193.56 1696.83L1197.38 1693.97C1198.16 1693.39 1198.25 1692.24 1197.6 1691.51C1195.59 1689.24 1192.87 1687.72 1189.91 1687.23L1190.67 1682.47C1190.81 1681.59 1190.24 1680.77 1189.41 1680.64L1186.4 1680.16C1185.56 1680.03 1184.77 1680.63 1184.63 1681.51L1183.87 1686.27L1183.64 1686.23C1177.63 1685.28 1171.93 1689.94 1171.46 1696.47C1171.13 1701.11 1173.86 1705.37 1177.84 1707.32L1187.04 1711.84C1188.16 1712.4 1188.8 1713.68 1188.59 1714.97C1188.33 1716.59 1186.88 1717.7 1185.34 1717.46L1179.09 1716.46C1177.93 1716.28 1176.86 1715.73 1176.02 1714.91C1175.51 1714.41 1174.72 1714.38 1174.15 1714.81L1170.33 1717.66C1169.55 1718.24 1169.47 1719.4 1170.11 1720.12C1172.12 1722.4 1174.84 1723.92 1177.8 1724.4L1177.04 1729.17C1176.9 1730.04 1177.47 1730.87 1178.3 1731L1181.32 1731.48C1182.15 1731.61 1182.94 1731 1183.08 1730.13L1183.84 1725.34C1188.26 1725.96 1192.82 1723.86 1194.97 1719.71C1197.97 1713.92 1195.56 1707.1 1190.37 1704.55Z" fill="#DF0B0B"/>
<path d="M1338.44 1545.71C1338.44 1545.71 1341.41 1528.71 1359.07 1520.52C1374.81 1513.21 1391.79 1521.39 1398.92 1536.76C1407.17 1554.56 1402.15 1582.47 1372.24 1618.57C1325.36 1618.09 1300.81 1603.89 1292.55 1586.11C1285.42 1570.72 1290.15 1552.49 1305.89 1545.19C1323.54 1537 1338.44 1545.71 1338.44 1545.71Z" fill="#DC4437"/>
<path d="M1487.83 1701.67C1566.59 1683.79 1639.35 1708.51 1650.33 1756.88C1655.83 1781.08 1644.84 1806.6 1622.63 1828.32L1670.8 1892.39L1590.93 1852.21C1572.73 1862.92 1551.24 1871.51 1527.61 1876.88C1448.85 1894.76 1376.09 1870.04 1365.11 1821.67C1354.12 1773.28 1409.07 1719.56 1487.83 1701.67Z" fill="#FFFBF3"/>
<path d="M1563.68 1785.67C1562.55 1813.8 1538.83 1835.68 1510.71 1834.55C1482.59 1833.4 1460.71 1809.68 1461.84 1781.55C1462.97 1753.43 1486.68 1731.55 1514.81 1732.68C1542.93 1733.83 1564.81 1757.55 1563.68 1785.67Z" fill="#F7971E"/>
<path d="M1485.21 1790.57C1484.6 1805.61 1496.29 1818.31 1511.33 1818.91C1526.37 1819.52 1539.05 1807.81 1539.65 1792.79L1485.21 1790.57Z" fill="#EFEFEF"/>
<path d="M497.027 1927.01L471.04 1932.2L474.265 1956.68L448.892 1962.92L449.089 1986.69L430.864 1994.47L434.799 2003.69L459.175 1993.31L458.988 1970.77L485.384 1964.28L482.211 1940.2L505.76 1935.51L497.027 1927.01Z" fill="#DC4437"/>
<path d="M1180.24 942.813L1154.25 948L1157.48 972.48L1132.1 978.72L1132.3 1002.49L1114.07 1010.27L1118.01 1019.49L1142.38 1009.09L1142.2 986.56L1168.59 980.08L1165.42 956L1188.97 951.293L1180.24 942.813Z" fill="#DF0B0B"/>
<path d="M2228.05 2128.4L2220.8 2102.92L2196.65 2108.09L2188.4 2083.31L2164.72 2085.41L2155.51 2067.87L2146.63 2072.52L2158.95 2095.99L2181.39 2094L2189.97 2119.79L2213.72 2114.69L2220.29 2137.79L2228.05 2128.4Z" fill="#FFFBF3"/>
<path d="M1449.72 1080.03L1442.47 1054.55L1418.33 1059.72L1410.08 1034.93L1386.39 1037.04L1377.17 1019.49L1368.29 1024.15L1380.61 1047.61L1403.07 1045.63L1411.64 1071.41L1435.4 1066.32L1441.96 1089.41L1449.72 1080.03Z" fill="white"/>
<path d="M1119.72 1370.03L1112.47 1344.55L1088.33 1349.72L1080.08 1324.93L1056.39 1327.04L1047.17 1309.49L1038.29 1314.15L1050.61 1337.61L1073.07 1335.63L1081.64 1361.41L1105.4 1356.32L1111.96 1379.41L1119.72 1370.03Z" fill="#DF0B0B"/>
<path d="M501.328 1655.15L486.804 1659.6L477.048 1637.03L455.007 1640.92L444.944 1625.21L436.995 1630.31L450.452 1651.32L471.34 1647.61L481.488 1671.11L503.347 1664.4L501.328 1655.15Z" fill="#DF0B0B"/>
<path d="M938.341 1127.72L923.816 1132.19L914.061 1109.6L892.02 1113.51L881.957 1097.8L874.007 1102.89L887.465 1123.89L908.355 1120.2L918.501 1143.69L940.36 1136.99L938.341 1127.72Z" fill="#F7971E"/>
<path d="M1039.79 1746.45C1034.72 1742.28 1022.88 1738.84 1016.99 1738.31C1011.1 1737.79 985.365 1737.8 982.032 1743.99C978.697 1750.17 1005.71 1767.71 1007.15 1774.99C1008.59 1782.28 991.509 1895.39 986.577 1917.85C984.144 1928.93 974.805 1949.8 965.961 1968.11C978.679 1970.15 994.219 1980.55 1003.98 1987.96C1016.49 1960.6 1029.29 1929.84 1030.88 1915.39C1034.09 1886.2 1044.86 1750.64 1039.79 1746.45Z" fill="#F9C38A"/>
<path d="M995.839 1746.27L996.455 1739.01C990.593 1737.36 983.841 1734.91 980.375 1733.45L979.433 1727.91C976.369 1720.32 972.967 1725.73 971.973 1727.47C971.973 1727.47 971.724 1737.21 972.817 1738.35C972.817 1738.35 984.316 1750.49 989.223 1755.08C991.652 1757.36 999.411 1763.65 999.411 1763.65L1005.58 1755.11L995.839 1746.27Z" fill="#F9C38A"/>
<path d="M1227.83 1149.71C1225.12 1150.76 1223.77 1153.82 1224.82 1156.53C1225.11 1157.28 1225.57 1157.92 1226.13 1158.44L1222.4 1166.88L1214.58 1169.9C1213.17 1168.26 1210.84 1167.58 1208.71 1168.41C1206 1169.45 1204.65 1172.51 1205.69 1175.22C1206.74 1177.93 1209.8 1179.28 1212.51 1178.23C1214.64 1177.41 1215.91 1175.34 1215.85 1173.17L1223.66 1170.15L1232.1 1173.88C1232.04 1174.64 1232.13 1175.42 1232.42 1176.18C1233.47 1178.89 1236.52 1180.24 1239.23 1179.19C1241.94 1178.14 1243.29 1175.08 1242.25 1172.38C1241.2 1169.67 1238.14 1168.32 1235.43 1169.36C1234.68 1169.66 1234.04 1170.12 1233.52 1170.67L1226.02 1167.36L1229.34 1159.86C1230.1 1159.92 1230.88 1159.83 1231.63 1159.54C1234.34 1158.49 1235.69 1155.43 1234.64 1152.73C1233.6 1150.02 1230.54 1148.66 1227.83 1149.71Z" fill="#E27324"/>
<path d="M1838.32 1359.16C1832.99 1360.35 1829.76 1366.31 1831.13 1372.44C1831.51 1374.15 1832.23 1375.67 1833.16 1376.99L1824.25 1393.44L1808.86 1396.87C1806.57 1392.86 1802.32 1390.54 1798.12 1391.48C1792.79 1392.67 1789.56 1398.63 1790.93 1404.76C1792.3 1410.89 1797.75 1414.92 1803.09 1413.73C1807.29 1412.79 1810.14 1408.89 1810.52 1404.28L1825.9 1400.85L1840.96 1411.95C1840.68 1413.54 1840.67 1415.22 1841.05 1416.93C1842.42 1423.07 1847.87 1427.09 1853.21 1425.9C1858.54 1424.71 1861.77 1418.75 1860.41 1412.62C1859.04 1406.48 1853.58 1402.46 1848.25 1403.65C1846.76 1403.98 1845.46 1404.72 1844.35 1405.69L1830.97 1395.83L1838.89 1381.21C1840.31 1381.63 1841.8 1381.74 1843.28 1381.41C1848.62 1380.22 1851.85 1374.26 1850.48 1368.12C1849.11 1361.99 1843.66 1357.97 1838.32 1359.16Z" fill="#ED2024" fill-opacity="0.6"/>
<path d="M731.5 2253L709 2229L703.5 2236L727 2257L731.5 2253Z" fill="black"/>
<path d="M2076.5 2008L2064.88 1980.61L2073 1978L2082.5 2004L2076.5 2008Z" fill="black"/>
</g>
<defs>
<clipPath id="clip0_257_19042">
<rect width="2666.67" height="4000" fill="white"/>
</clipPath>
</defs>
</svg>
