<svg width="28" height="28" viewBox="0 0 28 28" fill="none" xmlns="http://www.w3.org/2000/svg">
<rect width="28" height="27.157" rx="7.72443" fill="#DF0B0B" fill-opacity="0.73"/>
<path d="M21.6786 6H5.60714C4.71987 6 4 6.71987 4 7.60714V19.3929C4 20.2801 4.71987 21 5.60714 21H21.6786C22.5658 21 23.2857 20.2801 23.2857 19.3929V7.60714C23.2857 6.71987 22.5658 6 21.6786 6ZM9.89286 9.21429C11.0748 9.21429 12.0357 10.1752 12.0357 11.3571C12.0357 12.5391 11.0748 13.5 9.89286 13.5C8.71094 13.5 7.75 12.5391 7.75 11.3571C7.75 10.1752 8.71094 9.21429 9.89286 9.21429ZM13.6429 17.1429C13.6429 17.4978 13.308 17.7857 12.8929 17.7857H6.89286C6.47768 17.7857 6.14286 17.4978 6.14286 17.1429V16.5C6.14286 15.4353 7.15067 14.5714 8.39286 14.5714H8.56027C8.9721 14.7422 9.42076 14.8393 9.89286 14.8393C10.365 14.8393 10.817 14.7422 11.2254 14.5714H11.3929C12.635 14.5714 13.6429 15.4353 13.6429 16.5V17.1429ZM21.1429 15.375C21.1429 15.5223 21.0223 15.6429 20.875 15.6429H16.0536C15.9062 15.6429 15.7857 15.5223 15.7857 15.375V14.8393C15.7857 14.692 15.9062 14.5714 16.0536 14.5714H20.875C21.0223 14.5714 21.1429 14.692 21.1429 14.8393V15.375ZM21.1429 13.2321C21.1429 13.3795 21.0223 13.5 20.875 13.5H16.0536C15.9062 13.5 15.7857 13.3795 15.7857 13.2321V12.6964C15.7857 12.5491 15.9062 12.4286 16.0536 12.4286H20.875C21.0223 12.4286 21.1429 12.5491 21.1429 12.6964V13.2321ZM21.1429 11.0893C21.1429 11.2366 21.0223 11.3571 20.875 11.3571H16.0536C15.9062 11.3571 15.7857 11.2366 15.7857 11.0893V10.5536C15.7857 10.4062 15.9062 10.2857 16.0536 10.2857H20.875C21.0223 10.2857 21.1429 10.4062 21.1429 10.5536V11.0893Z" fill="white"/>
</svg>
