<svg width="52" height="55" viewBox="0 0 52 55" fill="none" xmlns="http://www.w3.org/2000/svg">
<path id="Vector" d="M36.9254 52.2375C37.4357 52.7754 38.0885 53.1471 38.8016 53.3034L42.2962 54.071C42.8934 54.2023 43.5127 54.1788 44.099 54.0025C44.6853 53.8262 45.2205 53.5026 45.6568 53.0604L50.7624 47.886C51.1987 47.4438 51.5227 46.8968 51.7054 46.2937C51.8882 45.6905 51.9241 45.05 51.81 44.429L51.1434 40.7954C51.0075 40.054 50.6634 39.3705 50.1541 38.8306L47.0515 35.5422L33.8154 48.9566L36.9254 52.2375ZM6.43461 36.4488C10.0281 40.2495 14.6675 42.3376 19.4155 42.7139C22.3089 42.9434 27.6361 44.15 31.1415 46.1697C31.1659 46.1886 31.1894 46.2083 31.2138 46.2273L44.4715 32.7911C44.4537 32.7654 44.4359 32.7415 44.4174 32.715C42.5419 29.0435 41.4905 23.5035 41.3306 20.5036C41.0686 15.581 39.1512 10.7341 35.5578 6.9334C27.6703 -1.409 14.7359 -1.53669 6.69668 6.66107C-1.71813 15.2412 -1.09976 28.4798 6.43461 36.4488ZM14.5171 14.8383C10.8676 18.5369 10.8049 24.6207 14.3773 28.3991C15.0932 29.1563 15.0807 30.37 14.3493 31.1113C13.6179 31.8525 12.4457 31.8396 11.7297 31.0823C6.72787 25.792 6.81567 17.2758 11.9255 12.0972C12.6568 11.3559 13.8291 11.3689 14.5451 12.1261C15.261 12.8834 15.2485 14.0971 14.5171 14.8383Z" fill="#DF0B0B" fill-opacity="0.5"/>
</svg>
