<svg xmlns="http://www.w3.org/2000/svg" width="1110" height="474" viewBox="0 0 1110 474" fill="none">
  <g filter="url(#filter0_d_346_17)">
    <path d="M2407.2 151.117C2344.06 -77.832 2153.71 -249.275 1919.43 -288.209L297.081 -557.811C211.655 -572.007 123.943 -556.567 48.4993 -514.054L11.5099 -493.211C-62.8623 -451.301 -114.865 -378.617 -130.52 -294.698L-134.819 -271.652C-151.377 -182.884 -118.53 -92.1144 -48.9999 -34.5L304.523 265.42C345.199 299.929 393.833 323.758 446.03 334.755C510.139 348.261 576.845 341.829 637.193 316.324L738.458 273.524C811.017 242.857 894.861 258.256 951.788 312.704L1129.77 482.93C1132.53 485.573 1129.44 490.043 1125.99 488.391C1124.57 487.711 1123.16 489.323 1124.01 490.642L1180.73 578.085C1182.6 580.967 1183.59 584.328 1183.59 587.762C1183.59 590.563 1184.12 593.339 1185.14 595.947L1206.8 651.344C1208.98 656.901 1204.88 662.904 1198.91 662.904C1192.25 662.904 1188.19 670.237 1191.73 675.88L1294.15 839.18C1321.94 883.503 1376.13 903.506 1426.06 887.875L1699.23 802.351C1793.88 772.719 1895.33 772.74 1989.96 802.411L2153.8 853.778C2193.57 866.25 2235.64 869.667 2276.91 863.78C2443.71 839.987 2551.72 675.137 2506.92 512.708L2407.2 151.117Z" fill="white"/>
  </g>
  <defs>
    <filter id="filter0_d_346_17" x="-178.643" y="-598.547" width="2735.33" height="1535.29" filterUnits="userSpaceOnUse" color-interpolation-filters="sRGB">
      <feFlood flood-opacity="0" result="BackgroundImageFix"/>
      <feColorMatrix in="SourceAlpha" type="matrix" values="0 0 0 0 0 0 0 0 0 0 0 0 0 0 0 0 0 0 127 0" result="hardAlpha"/>
      <feOffset dy="4"/>
      <feGaussianBlur stdDeviation="19.8"/>
      <feComposite in2="hardAlpha" operator="out"/>
      <feColorMatrix type="matrix" values="0 0 0 0 0 0 0 0 0 0 0 0 0 0 0 0 0 0 0.25 0"/>
      <feBlend mode="normal" in2="BackgroundImageFix" result="effect1_dropShadow_346_17"/>
      <feBlend mode="normal" in="SourceGraphic" in2="effect1_dropShadow_346_17" result="shape"/>
    </filter>
  </defs>
</svg>
