<svg width="11" height="12" viewBox="0 0 11 12" fill="none" xmlns="http://www.w3.org/2000/svg">
<path d="M10.3011 4.45977C10.3811 4.39619 10.5 4.45566 10.5 4.55615V8.75C10.5 9.29346 10.0591 9.73438 9.51562 9.73438H0.984375C0.440918 9.73438 0 9.29346 0 8.75V4.5582C0 4.45566 0.116895 4.39824 0.198926 4.46182C0.658301 4.81865 1.26738 5.27188 3.35918 6.7915C3.79189 7.10732 4.52197 7.77178 5.25 7.76768C5.98213 7.77383 6.72656 7.09502 7.14287 6.7915C9.23467 5.27188 9.8417 4.8166 10.3011 4.45977ZM5.25 7.10938C5.72578 7.11758 6.41074 6.51055 6.75527 6.26035C9.47666 4.28545 9.68379 4.11318 10.3113 3.621C10.4303 3.52871 10.5 3.38516 10.5 3.2334V2.84375C10.5 2.30029 10.0591 1.85938 9.51562 1.85938H0.984375C0.440918 1.85937 0 2.30029 0 2.84375V3.2334C0 3.38516 0.0697266 3.52666 0.188672 3.621C0.816211 4.11113 1.02334 4.28545 3.74473 6.26035C4.08926 6.51055 4.77422 7.11758 5.25 7.10938Z" fill="#EC180C"/>
</svg>
