<svg width="17" height="17" viewBox="0 0 17 17" fill="none" xmlns="http://www.w3.org/2000/svg">
<path id="Vector" d="M16 8.5C16 12.6431 12.6418 16 8.5 16C4.35816 16 1 12.6431 1 8.5C1 4.35936 4.35816 1 8.5 1C12.6418 1 16 4.35936 16 8.5ZM8.70126 3.47984C7.05317 3.47984 6.00202 4.1741 5.17659 5.408C5.06966 5.56786 5.10543 5.78346 5.2587 5.89968L6.30806 6.69534C6.46547 6.81471 6.68975 6.78631 6.81205 6.63117C7.35229 5.94595 7.72272 5.5486 8.545 5.5486C9.16281 5.5486 9.927 5.94622 9.927 6.54531C9.927 6.99822 9.55312 7.23081 8.94311 7.57281C8.23169 7.97161 7.29032 8.46797 7.29032 9.70968V9.83065C7.29032 10.0311 7.45281 10.1935 7.65323 10.1935H9.34677C9.54719 10.1935 9.70968 10.0311 9.70968 9.83065V9.79033C9.70968 8.92959 12.2254 8.89375 12.2254 6.56452C12.2254 4.81042 10.4059 3.47984 8.70126 3.47984ZM8.5 10.9798C7.73291 10.9798 7.10887 11.6039 7.10887 12.371C7.10887 13.138 7.73291 13.7621 8.5 13.7621C9.26709 13.7621 9.89113 13.138 9.89113 12.371C9.89113 11.6039 9.26709 10.9798 8.5 10.9798Z" stroke="#484848" stroke-width="0.5"/>
</svg>
