<svg width="338" height="338" viewBox="0 0 338 338" fill="none" xmlns="http://www.w3.org/2000/svg">
<path d="M275.531 176.375C216.306 142.183 120.612 142.183 61.7729 176.375C2.93382 210.567 3.25154 265.999 62.4489 300.191C121.646 334.383 217.368 334.383 276.207 300.191C335.046 265.999 334.748 210.567 275.531 176.375Z" fill="#F5F5F5"/>
<path d="M235.397 261.916C250.708 270.758 250.789 285.089 235.579 293.932C220.369 302.774 195.621 302.774 180.303 293.932C164.985 285.089 164.91 270.758 180.127 261.916C195.344 253.074 220.085 253.074 235.397 261.916Z" fill="#E6E6E6"/>
<path d="M247.781 238.587C259.145 245.145 277.525 245.145 288.808 238.587C294.452 235.302 297.258 231.003 297.23 226.703C297.203 222.404 294.351 218.105 288.672 214.819C277.302 208.262 258.928 208.262 247.646 214.819C242.001 218.105 239.196 222.404 239.216 226.703C239.236 231.003 242.096 235.302 247.781 238.587Z" fill="#E6E6E6"/>
<path d="M33.7324 251.195C40.3505 255.021 51.0515 255.021 57.6223 251.195C60.9144 249.289 62.5503 246.781 62.5368 244.279C62.5233 241.778 60.8603 239.263 57.5479 237.357C50.9299 233.531 40.2288 233.531 33.6513 237.357C30.366 239.263 28.73 241.771 28.7436 244.279C28.7571 246.787 30.42 249.289 33.7324 251.195Z" fill="#E6E6E6"/>
<path d="M58.3726 265.844L62.192 268.075C62.6167 268.319 63.098 268.448 63.588 268.448C64.0779 268.448 64.5593 268.319 64.9839 268.075L169.466 208.445C169.577 208.388 169.67 208.302 169.735 208.196C169.8 208.089 169.834 207.967 169.834 207.843C169.834 207.719 169.8 207.597 169.735 207.49C169.67 207.384 169.577 207.298 169.466 207.241L165.64 205.01C165.217 204.765 164.737 204.635 164.248 204.635C163.759 204.635 163.278 204.765 162.855 205.01L58.3794 264.634C58.2666 264.689 58.1715 264.775 58.1047 264.881C58.038 264.988 58.0022 265.111 58.0015 265.237C58.0008 265.362 58.0352 265.486 58.1007 265.593C58.1663 265.7 58.2604 265.787 58.3726 265.844Z" fill="#E6E6E6"/>
<path d="M193.769 43.9671L196.121 42.6016L220.951 56.8854V59.603L193.769 43.9671Z" fill="#F5F5F5"/>
<path d="M193.769 43.967L220.951 59.6029V62.699L193.762 47.0834L193.769 43.967Z" fill="#E0E0E0"/>
<path d="M235.147 67.7688L237.499 66.4033L262.328 80.6872V83.4047L235.147 67.7688Z" fill="#F5F5F5"/>
<path d="M235.147 67.769L262.329 83.4049V86.5078L235.14 70.8854L235.147 67.769Z" fill="#E0E0E0"/>
<path d="M276.525 91.5776L278.877 90.2053L303.706 104.489V107.207L276.525 91.5776Z" fill="#F5F5F5"/>
<path d="M276.525 91.5776L303.707 107.207V110.31L276.518 94.694L276.525 91.5776Z" fill="#E0E0E0"/>
<path d="M193.904 17.8667L196.25 16.5012L196.114 86.8187L193.762 88.1775L193.904 17.8667Z" fill="#F0F0F0"/>
<path d="M193.762 88.1774L196.114 86.8186L223.161 102.34L220.815 103.705L193.762 88.1774Z" fill="#F5F5F5"/>
<path d="M191.207 13.1953L223.655 31.8462L223.499 108.376L191.051 89.7253L191.207 13.1953ZM220.815 103.705L220.951 33.401L193.911 17.853L193.769 88.157L220.809 103.705" fill="#E0E0E0"/>
<path d="M191.207 13.1956L193.559 11.8301L226.014 30.4809L223.661 31.8464L191.207 13.1956Z" fill="#F5F5F5"/>
<path d="M223.661 31.8465L226.014 30.481L225.858 107.011L223.506 108.376L223.661 31.8465Z" fill="#F0F0F0"/>
<path d="M235.282 41.6685L237.628 40.303L237.492 110.62L235.14 111.986L235.282 41.6685Z" fill="#F0F0F0"/>
<path d="M235.14 111.986L237.492 110.621L264.539 126.148L262.193 127.514L235.14 111.986Z" fill="#F5F5F5"/>
<path d="M232.585 37.0042L265.033 55.6482L264.877 132.178L232.429 113.534L232.585 37.0042ZM262.193 127.514L262.329 57.2098L235.289 41.6618L235.147 111.966L262.187 127.514" fill="#E0E0E0"/>
<path d="M232.585 37.0042L234.937 35.6387L267.392 54.2895L265.039 55.655L232.585 37.0042Z" fill="#F5F5F5"/>
<path d="M265.039 55.6551L267.392 54.2896L267.236 130.813L264.884 132.178L265.039 55.6551Z" fill="#F0F0F0"/>
<path d="M276.66 65.4773L279.006 64.1118L278.87 134.423L276.518 135.788L276.66 65.4773Z" fill="#F0F0F0"/>
<path d="M276.518 135.788L278.87 134.423L305.917 149.95L303.571 151.316L276.518 135.788Z" fill="#F5F5F5"/>
<path d="M273.963 60.8401L306.411 79.4909L306.255 156.021L273.807 137.37L273.963 60.8401ZM303.571 151.35L303.707 81.0457L276.667 65.4977L276.525 135.802L303.565 151.35" fill="#E0E0E0"/>
<path d="M273.963 60.8062L276.315 59.4407L308.77 78.0915L306.417 79.457L273.963 60.8062Z" fill="#F5F5F5"/>
<path d="M306.417 79.4571L308.77 78.0916L308.614 154.622L306.262 155.987L306.417 79.4571Z" fill="#F0F0F0"/>
<path d="M57.7642 221.924L44.9202 222.296L32.0762 221.924C31.5219 230.59 33.2119 239.419 35.5441 243.732C36.0954 244.841 36.9857 245.745 38.0858 246.314C41.8714 248.498 47.9892 248.498 51.7546 246.314C52.8709 245.738 53.763 244.805 54.2896 243.664C56.6353 239.304 58.3118 230.516 57.7642 221.924Z" fill="white"/>
<path d="M53.9718 216.671C59.0013 219.572 59.0283 224.276 54.0327 227.177C49.037 230.077 40.9183 230.083 35.8888 227.177C30.8594 224.27 30.8324 219.572 35.828 216.671C40.8236 213.771 48.9492 213.765 53.9718 216.671Z" fill="#EBEBEB"/>
<path d="M51.9844 217.821C55.9052 220.085 55.9255 223.763 52.0317 226.021C48.138 228.278 41.7971 228.285 37.8763 226.021C33.9555 223.756 33.9352 220.085 37.829 217.821C41.7227 215.556 48.0636 215.563 51.9844 217.821Z" fill="#E0E0E0"/>
<g opacity="0.15">
<path d="M51.9844 217.821C55.9052 220.085 55.9255 223.763 52.0317 226.021C48.138 228.278 41.7971 228.285 37.8763 226.021C33.9555 223.756 33.9352 220.085 37.829 217.821C41.7227 215.556 48.0636 215.563 51.9844 217.821Z" fill="black"/>
</g>
<path d="M66.0249 167.175C37.1124 176.639 36.8487 195.986 43.3654 209.763C45.0148 212.548 49.9902 214.049 54.3166 196.919L46.7251 197.892L55.5739 193.41L57.8723 186.535L50.4904 187.083L59.8598 183.142C61.5819 177.697 63.6409 172.364 66.0249 167.175Z" fill="#E53F3F"/>
<path opacity="0.2" d="M66.0249 167.175C37.1124 176.639 36.8487 195.986 43.3654 209.763C45.0148 212.548 49.9902 214.049 54.3166 196.919L46.7251 197.892L55.5739 193.41L57.8723 186.535L50.4904 187.083L59.8598 183.142C61.5819 177.697 63.6409 172.364 66.0249 167.175Z" fill="black"/>
<path d="M57.8453 172.008C42.5879 183.581 41.2359 196.851 45.5285 210.702C44.0075 198.507 42.3581 186.177 57.8453 172.008Z" fill="white"/>
<path d="M17.0555 186.826C45.5556 190.835 49.01 208.81 45.2312 222.722C44.1631 225.588 39.7758 227.812 32.9009 212.582L40.1341 212.223L31.1433 209.519L27.8647 203.476L34.8275 202.8L25.4514 200.684C22.942 195.896 20.138 191.267 17.0555 186.826Z" fill="#E53F3F"/>
<path opacity="0.2" d="M17.0555 186.826C45.5556 190.835 49.01 208.81 45.2312 222.722C44.1631 225.588 39.7758 227.812 32.9009 212.582L40.1341 212.223L31.1433 209.519L27.8647 203.476L34.8275 202.8L25.4514 200.684C22.942 195.896 20.138 191.267 17.0555 186.826Z" fill="white"/>
<path d="M25.4717 189.956C41.5943 198.203 45.0757 210.33 43.3722 223.945C42.7638 212.345 42.25 200.589 25.4717 189.956Z" fill="white"/>
<path d="M74.36 193.559C48.2258 193.985 43.095 209.783 44.9472 222.756C45.6232 225.46 49.2939 227.954 57.1964 214.995L50.7 213.866L59.1094 212.433L62.7395 207.377L56.5406 205.95L65.234 205.098C68.0355 201.068 71.0833 197.214 74.36 193.559Z" fill="#E53F3F"/>
<path d="M66.4237 195.452C50.9704 201.076 46.475 211.588 46.4885 224.081C48.334 213.684 50.1186 203.145 66.4237 195.452Z" fill="white"/>
<path d="M266.344 201.259C266.527 221.458 266.743 240.906 266.743 240.906C266.754 241.036 266.8 241.161 266.876 241.267C266.952 241.373 267.056 241.456 267.175 241.508C267.498 241.671 267.855 241.756 268.217 241.756C268.578 241.756 268.935 241.671 269.258 241.508C269.376 241.454 269.477 241.37 269.552 241.265C269.627 241.159 269.672 241.035 269.683 240.906C269.683 240.906 269.9 221.464 270.082 201.266C268.852 201.313 267.601 201.313 266.344 201.259Z" fill="#E0E0E0"/>
<path d="M241.812 226.338C241.824 226.468 241.87 226.592 241.946 226.698C242.022 226.804 242.125 226.887 242.245 226.94C242.567 227.103 242.924 227.188 243.286 227.188C243.647 227.188 244.004 227.103 244.327 226.94C244.444 226.886 244.545 226.802 244.62 226.696C244.695 226.591 244.741 226.467 244.753 226.338C244.753 226.338 245.692 212.447 247.031 195.918C245.769 195.137 244.589 194.231 243.509 193.214C242.427 210.912 241.812 226.338 241.812 226.338Z" fill="#E0E0E0"/>
<path d="M291.701 226.338C291.713 226.467 291.758 226.591 291.833 226.696C291.908 226.802 292.009 226.886 292.127 226.94C292.449 227.103 292.806 227.188 293.168 227.188C293.529 227.188 293.886 227.103 294.209 226.94C294.327 226.886 294.429 226.802 294.504 226.696C294.58 226.591 294.627 226.467 294.641 226.338C294.641 226.338 294.06 210.973 292.945 193.336C291.862 194.341 290.682 195.235 289.423 196.006C290.768 212.487 291.701 226.338 291.701 226.338Z" fill="#E0E0E0"/>
<path opacity="0.1" d="M266.344 201.259C266.527 221.458 266.743 240.906 266.743 240.906C266.754 241.036 266.8 241.161 266.876 241.267C266.952 241.373 267.056 241.456 267.175 241.508C267.498 241.671 267.855 241.756 268.217 241.756C268.578 241.756 268.935 241.671 269.258 241.508C269.376 241.454 269.477 241.37 269.552 241.265C269.627 241.159 269.672 241.035 269.683 240.906C269.683 240.906 269.9 221.464 270.082 201.266C268.852 201.313 267.601 201.313 266.344 201.259Z" fill="black"/>
<path opacity="0.1" d="M241.812 226.338C241.824 226.468 241.87 226.592 241.946 226.698C242.022 226.804 242.125 226.887 242.245 226.94C242.567 227.103 242.924 227.188 243.286 227.188C243.647 227.188 244.004 227.103 244.327 226.94C244.444 226.886 244.545 226.802 244.62 226.696C244.695 226.591 244.741 226.467 244.753 226.338C244.753 226.338 245.692 212.447 247.031 195.918C245.769 195.137 244.589 194.231 243.509 193.214C242.427 210.912 241.812 226.338 241.812 226.338Z" fill="black"/>
<path opacity="0.1" d="M291.701 226.338C291.713 226.467 291.758 226.591 291.833 226.696C291.908 226.802 292.009 226.886 292.127 226.94C292.449 227.103 292.806 227.188 293.168 227.188C293.529 227.188 293.886 227.103 294.209 226.94C294.327 226.886 294.429 226.802 294.504 226.696C294.58 226.591 294.627 226.467 294.641 226.338C294.641 226.338 294.06 210.973 292.945 193.336C291.862 194.341 290.682 195.235 289.423 196.006C290.768 212.487 291.701 226.338 291.701 226.338Z" fill="black"/>
<path d="M297.23 181.236C297.23 185.535 294.452 189.834 288.807 193.113C277.512 199.677 259.145 199.677 247.781 193.113C242.096 189.834 239.243 185.535 239.216 181.236V184.501C239.216 187.536 240.67 190.585 243.509 193.248C244.589 194.265 245.769 195.171 247.031 195.952L247.781 196.405C252.959 199.393 259.598 201.015 266.358 201.279C267.601 201.333 268.852 201.333 270.096 201.279C276.917 201.042 283.616 199.413 288.807 196.398L289.423 196.02C290.682 195.249 291.862 194.354 292.945 193.35C295.818 190.646 297.251 187.583 297.23 184.514V181.236Z" fill="#E0E0E0"/>
<path opacity="0.1" d="M297.23 181.236C297.23 185.535 294.452 189.834 288.807 193.113C277.512 199.677 259.145 199.677 247.781 193.113C242.096 189.834 239.243 185.535 239.216 181.236V184.501C239.216 187.536 240.67 190.585 243.509 193.248C244.589 194.265 245.769 195.171 247.031 195.952L247.781 196.405C252.959 199.393 259.598 201.015 266.358 201.279C267.601 201.333 268.852 201.333 270.096 201.279C276.917 201.042 283.616 199.413 288.807 196.398L289.423 196.02C290.682 195.249 291.862 194.354 292.945 193.35C295.818 190.646 297.251 187.583 297.23 184.514V181.236Z" fill="black"/>
<path d="M247.781 193.113C259.145 199.677 277.525 199.677 288.808 193.113C294.452 189.834 297.258 185.535 297.23 181.236C297.203 176.936 294.351 172.637 288.672 169.351C277.302 162.794 258.928 162.794 247.646 169.351C242.001 172.637 239.196 176.936 239.216 181.236C239.236 185.535 242.096 189.834 247.781 193.113Z" fill="#E0E0E0"/>
<g opacity="0.3">
<path d="M266.344 201.259C266.344 202.611 266.344 203.963 266.378 205.315C267.601 205.362 268.825 205.362 270.048 205.315C270.048 203.963 270.048 202.611 270.082 201.259C268.852 201.313 267.601 201.313 266.344 201.259Z" fill="black"/>
<path d="M243.509 193.248C243.434 194.539 243.353 195.817 243.279 197.074C244.333 198.09 245.489 198.996 246.727 199.778C246.821 198.514 246.929 197.23 247.031 195.932C245.77 195.157 244.59 194.258 243.509 193.248Z" fill="black"/>
<path d="M292.945 193.336C291.862 194.341 290.682 195.235 289.423 196.006C289.531 197.304 289.634 198.586 289.734 199.853C290.97 199.071 292.122 198.165 293.174 197.149C293.1 195.905 293.026 194.627 292.945 193.336Z" fill="black"/>
</g>
<g opacity="0.5">
<path d="M266.344 201.259C266.527 221.458 266.743 240.906 266.743 240.906C266.754 241.036 266.8 241.161 266.876 241.267C266.952 241.373 267.056 241.456 267.176 241.508C267.498 241.671 267.855 241.756 268.217 241.756C268.578 241.756 268.935 241.671 269.258 241.508C269.376 241.454 269.477 241.37 269.552 241.265C269.627 241.159 269.672 241.035 269.683 240.906C269.683 240.906 269.9 221.464 270.082 201.266C268.852 201.313 267.601 201.313 266.344 201.259Z" fill="#E0E0E0"/>
<path d="M241.812 226.338C241.824 226.468 241.87 226.592 241.946 226.698C242.022 226.804 242.125 226.887 242.245 226.94C242.567 227.103 242.924 227.188 243.286 227.188C243.647 227.188 244.004 227.103 244.327 226.94C244.444 226.886 244.546 226.802 244.62 226.696C244.695 226.59 244.741 226.467 244.753 226.338C244.753 226.338 245.692 212.446 247.031 195.918C245.769 195.137 244.589 194.231 243.509 193.214C242.427 210.912 241.812 226.338 241.812 226.338Z" fill="#E0E0E0"/>
<path d="M291.701 226.338C291.713 226.467 291.758 226.59 291.833 226.696C291.908 226.802 292.009 226.886 292.127 226.94C292.449 227.103 292.806 227.188 293.168 227.188C293.529 227.188 293.886 227.103 294.209 226.94C294.327 226.885 294.429 226.801 294.505 226.696C294.58 226.591 294.628 226.467 294.641 226.338C294.641 226.338 294.06 210.973 292.945 193.336C291.862 194.341 290.682 195.235 289.423 196.006C290.768 212.487 291.701 226.338 291.701 226.338Z" fill="#E0E0E0"/>
<path d="M297.231 181.236C297.231 185.535 294.452 189.834 288.808 193.113C277.512 199.677 259.145 199.677 247.781 193.113C242.096 189.834 239.243 185.535 239.216 181.236V184.501C239.216 187.536 240.67 190.585 243.509 193.248C244.589 194.265 245.769 195.171 247.031 195.952L247.781 196.405C252.959 199.393 259.598 201.015 266.358 201.279C267.601 201.333 268.852 201.333 270.096 201.279C276.917 201.042 283.616 199.413 288.808 196.398L289.423 196.02C290.682 195.249 291.862 194.354 292.945 193.35C295.818 190.646 297.251 187.583 297.231 184.514V181.236Z" fill="white"/>
<path d="M247.781 193.113C259.145 199.677 277.525 199.677 288.808 193.113C294.452 189.834 297.258 185.535 297.23 181.236C297.203 176.936 294.351 172.637 288.672 169.351C277.302 162.794 258.928 162.794 247.646 169.351C242.001 172.637 239.196 176.936 239.216 181.236C239.236 185.535 242.096 189.834 247.781 193.113Z" fill="white"/>
</g>
<path d="M277.944 163.315L268.169 163.592L258.394 163.308C257.975 169.906 259.26 176.639 261.037 179.924C261.458 180.767 262.135 181.456 262.971 181.891C264.584 182.712 266.369 183.139 268.179 183.139C269.99 183.139 271.774 182.712 273.388 181.891C274.24 181.449 274.92 180.735 275.321 179.863C277.092 176.571 278.363 169.879 277.944 163.315Z" fill="white"/>
<path d="M275.058 159.306C278.891 161.517 278.911 165.106 275.105 167.317C271.299 169.527 265.107 169.527 261.281 167.317C257.455 165.106 257.428 161.523 261.234 159.306C265.039 157.089 271.232 157.096 275.058 159.306Z" fill="#EBEBEB"/>
<path d="M273.543 160.212C276.531 161.936 276.552 164.735 273.577 166.458C270.603 168.182 265.783 168.182 262.795 166.458C259.807 164.735 259.787 161.936 262.761 160.212C265.736 158.488 270.556 158.461 273.543 160.212Z" fill="#E0E0E0"/>
<g opacity="0.15">
<path d="M273.543 160.212C276.531 161.936 276.552 164.735 273.577 166.458C270.603 168.182 265.783 168.182 262.795 166.458C259.807 164.735 259.787 161.936 262.761 160.212C265.736 158.488 270.556 158.461 273.543 160.212Z" fill="black"/>
</g>
<path d="M267.351 163.592C268.137 164.247 269.067 164.706 270.065 164.932C271.062 165.158 272.099 165.143 273.091 164.89C274.044 164.601 274.911 164.079 275.612 163.37C276.313 162.662 276.826 161.79 277.106 160.834C275.949 160.285 274.889 159.549 273.969 158.657C275.435 158.295 276.974 158.348 278.411 158.813C278.809 158.189 279.048 157.477 279.107 156.739C279.166 156.001 279.043 155.26 278.749 154.581C277.08 153.839 275.204 153.707 273.449 154.209C274.178 153.575 275.029 153.098 275.95 152.808C276.871 152.517 277.842 152.419 278.803 152.519C278.941 149.718 278.504 146.918 277.518 144.292C273.875 144.482 270.339 146.05 269.149 147.179C269.094 148.483 269.23 149.788 269.555 151.052C269.084 150.812 268.681 150.457 268.385 150.02C268.088 149.583 267.907 149.077 267.858 148.551C265.58 149.119 264.6 150.255 264.248 151.127C264.573 152.748 265.316 154.256 266.405 155.5C264.262 154.824 263.397 152.465 263.397 152.465C261.288 157.454 261.693 163.105 267.351 163.592Z" fill="#E53F3F"/>
<path opacity="0.2" d="M267.351 163.592C268.137 164.247 269.067 164.706 270.065 164.932C271.062 165.158 272.099 165.143 273.091 164.89C274.044 164.601 274.911 164.079 275.612 163.37C276.313 162.662 276.826 161.79 277.106 160.834C275.949 160.285 274.889 159.549 273.969 158.657C275.435 158.295 276.974 158.348 278.411 158.813C278.809 158.189 279.048 157.477 279.107 156.739C279.166 156.001 279.043 155.26 278.749 154.581C277.08 153.839 275.204 153.707 273.449 154.209C274.178 153.575 275.029 153.098 275.95 152.808C276.871 152.517 277.842 152.419 278.803 152.519C278.941 149.718 278.504 146.918 277.518 144.292C273.875 144.482 270.339 146.05 269.149 147.179C269.094 148.483 269.23 149.788 269.555 151.052C269.084 150.812 268.681 150.457 268.385 150.02C268.088 149.583 267.907 149.077 267.858 148.551C265.58 149.119 264.6 150.255 264.248 151.127C264.573 152.748 265.316 154.256 266.405 155.5C264.262 154.824 263.397 152.465 263.397 152.465C261.288 157.454 261.693 163.105 267.351 163.592Z" fill="black"/>
<path opacity="0.3" d="M267.351 163.592C268.137 164.247 269.067 164.706 270.065 164.932C271.062 165.158 272.099 165.143 273.091 164.89C274.044 164.601 274.911 164.079 275.612 163.37C276.313 162.662 276.826 161.79 277.106 160.834C275.949 160.285 274.889 159.549 273.969 158.657C275.435 158.295 276.974 158.348 278.411 158.813C278.809 158.189 279.048 157.477 279.107 156.739C279.166 156.001 279.043 155.26 278.749 154.581C277.08 153.839 275.204 153.707 273.449 154.209C274.178 153.575 275.029 153.098 275.95 152.808C276.871 152.517 277.842 152.419 278.803 152.519C278.941 149.718 278.504 146.918 277.518 144.292C273.875 144.482 270.339 146.05 269.149 147.179C269.094 148.483 269.23 149.788 269.555 151.052C269.084 150.812 268.681 150.457 268.385 150.02C268.088 149.583 267.907 149.077 267.858 148.551C265.58 149.119 264.6 150.255 264.248 151.127C264.573 152.748 265.316 154.256 266.405 155.5C264.262 154.824 263.397 152.465 263.397 152.465C261.288 157.454 261.693 163.105 267.351 163.592Z" fill="white"/>
<path d="M267.229 164.133C267.202 164.131 267.175 164.124 267.15 164.112C267.125 164.099 267.103 164.083 267.085 164.062C267.067 164.041 267.053 164.017 267.044 163.991C267.035 163.965 267.032 163.937 267.033 163.91C267.385 159.306 270.015 151.708 276.295 145.441C276.314 145.422 276.337 145.406 276.363 145.396C276.388 145.385 276.416 145.38 276.443 145.38C276.471 145.38 276.498 145.385 276.524 145.396C276.549 145.406 276.573 145.422 276.592 145.441C276.612 145.461 276.627 145.484 276.638 145.509C276.648 145.535 276.654 145.562 276.654 145.59C276.654 145.618 276.648 145.645 276.638 145.67C276.627 145.696 276.612 145.719 276.592 145.739C270.4 151.924 267.804 159.407 267.459 163.943C267.453 163.998 267.425 164.049 267.382 164.084C267.339 164.119 267.285 164.137 267.229 164.133Z" fill="#F5F5F5"/>
<path d="M268.947 166.053C268.216 166.65 267.354 167.067 266.431 167.267C265.509 167.468 264.552 167.448 263.638 167.208C262.725 166.968 261.882 166.515 261.177 165.887C260.472 165.258 259.927 164.472 259.584 163.592C260.631 163.115 261.588 162.463 262.416 161.665C261.031 161.333 259.582 161.375 258.219 161.787C257.804 161.261 257.533 160.636 257.43 159.975C257.327 159.313 257.396 158.635 257.63 158.008C259.218 157.354 260.979 157.249 262.633 157.711C261.158 156.563 259.304 156.012 257.441 156.169C257.116 153.7 257.347 151.19 258.117 148.821C261.585 149.031 265.026 150.471 266.229 151.491C266.361 152.637 266.313 153.795 266.087 154.926C266.508 154.726 266.865 154.414 267.119 154.024C267.373 153.633 267.515 153.181 267.527 152.715C269.704 153.242 270.684 154.263 271.069 155.034C270.864 156.46 270.256 157.799 269.318 158.894C269.929 158.676 270.482 158.323 270.937 157.862C271.392 157.401 271.738 156.843 271.948 156.23C274.24 160.651 274.206 165.62 268.947 166.053Z" fill="#E53F3F"/>
<path opacity="0.3" d="M268.947 166.053C268.216 166.65 267.354 167.067 266.431 167.267C265.509 167.468 264.552 167.448 263.638 167.208C262.725 166.968 261.882 166.515 261.177 165.887C260.472 165.258 259.927 164.472 259.584 163.592C260.631 163.115 261.588 162.463 262.416 161.665C261.031 161.333 259.582 161.375 258.219 161.787C257.804 161.261 257.533 160.636 257.43 159.975C257.327 159.313 257.396 158.635 257.63 158.008C259.218 157.354 260.979 157.249 262.633 157.711C261.158 156.563 259.304 156.012 257.441 156.169C257.116 153.7 257.347 151.19 258.117 148.821C261.585 149.031 265.026 150.471 266.229 151.491C266.361 152.637 266.313 153.795 266.087 154.926C266.508 154.726 266.865 154.414 267.119 154.024C267.373 153.633 267.515 153.181 267.527 152.715C269.704 153.242 270.684 154.263 271.069 155.034C270.864 156.46 270.256 157.799 269.318 158.894C269.929 158.676 270.482 158.323 270.937 157.862C271.392 157.401 271.738 156.843 271.948 156.23C274.24 160.651 274.206 165.62 268.947 166.053Z" fill="white"/>
<path d="M269.089 166.553C269.039 166.552 268.991 166.534 268.952 166.502C268.914 166.47 268.888 166.426 268.879 166.377C268.284 162.368 265.371 155.717 259.131 150.153C259.111 150.134 259.096 150.11 259.085 150.085C259.075 150.059 259.069 150.032 259.069 150.004C259.069 149.977 259.075 149.949 259.085 149.924C259.096 149.898 259.111 149.875 259.131 149.856C259.151 149.836 259.174 149.82 259.199 149.81C259.225 149.799 259.252 149.794 259.28 149.794C259.307 149.794 259.335 149.799 259.36 149.81C259.386 149.82 259.409 149.836 259.429 149.856C265.736 155.48 268.69 162.24 269.298 166.296C269.306 166.351 269.292 166.408 269.259 166.453C269.227 166.498 269.177 166.529 269.122 166.539L269.089 166.553Z" fill="white"/>
<path d="M170.169 26.9996C170.022 26.4274 169.795 25.8789 169.493 25.3705C168.817 24.3565 167.689 23.7616 164.958 23.8157C164.576 23.8285 164.199 23.9038 163.842 24.0387L61.2118 82.4248C60.0848 83.0786 59.1474 84.0146 58.4919 85.1406C57.8364 86.2667 57.4854 87.544 57.4735 88.8468V255.859C57.4735 258.841 59.2244 259.963 61.1712 260.091C62.0084 260.136 62.8467 260.028 63.6454 259.773C63.7478 259.744 63.8473 259.706 63.9428 259.659L166.634 201.171C167.767 200.525 168.709 199.59 169.364 198.462C170.02 197.335 170.365 196.053 170.366 194.749V27.777C170.357 27.5067 170.291 27.2414 170.169 26.9996Z" fill="#E53F3F"/>
<path opacity="0.2" d="M170.169 26.9996C170.022 26.4274 169.795 25.8789 169.493 25.3705C168.817 24.3565 167.689 23.7616 164.958 23.8157C164.576 23.8285 164.199 23.9038 163.842 24.0387L61.2118 82.4248C60.0848 83.0786 59.1474 84.0146 58.4919 85.1406C57.8364 86.2667 57.4854 87.544 57.4735 88.8468V255.859C57.4735 258.841 59.2244 259.963 61.1712 260.091C62.0084 260.136 62.8467 260.028 63.6454 259.773C63.7478 259.744 63.8473 259.706 63.9428 259.659L166.634 201.171C167.767 200.525 168.709 199.59 169.364 198.462C170.02 197.335 170.365 196.053 170.366 194.749V27.777C170.357 27.5067 170.291 27.2414 170.169 26.9996Z" fill="black"/>
<path opacity="0.2" d="M58.2442 85.6019C57.7429 86.6105 57.4793 87.7205 57.4735 88.8467V255.859C57.4735 258.84 59.2244 259.963 61.1712 260.091C60.6385 259.28 60.3759 258.322 60.4209 257.353V90.3339C60.4251 89.2104 60.6864 88.1028 61.1848 87.0959C61.2659 86.9269 61.374 86.7714 61.4687 86.6092L58.616 84.9597C58.4875 85.176 58.3523 85.3788 58.2442 85.6019Z" fill="black"/>
<path opacity="0.2" d="M164.985 23.8155C164.603 23.8283 164.226 23.9037 163.869 24.0386L61.2118 82.4247C60.1468 83.0376 59.2539 83.9096 58.616 84.9597L61.4687 86.6092C62.1145 85.4842 63.0477 84.551 64.1727 83.9052L166.81 25.5258C167.168 25.396 167.544 25.323 167.925 25.3095C168.458 25.2965 168.991 25.3168 169.521 25.3703C168.878 24.336 167.716 23.7614 164.985 23.8155Z" fill="white"/>
<path d="M165.681 32.2183L65.3016 90.1515V247.639L165.681 189.706V32.2183Z" fill="#455A64"/>
<path d="M120.646 218.348C119.676 218.954 118.84 219.75 118.188 220.689C117.536 221.628 117.082 222.69 116.853 223.81C116.603 225.757 117.894 226.514 119.747 225.412C120.714 224.804 121.549 224.007 122.201 223.068C122.853 222.13 123.308 221.069 123.539 219.95C123.782 218.01 122.491 217.287 120.646 218.348Z" fill="#E53F3F"/>
<g opacity="0.4">
<path d="M120.646 218.348C119.676 218.954 118.84 219.75 118.188 220.689C117.536 221.628 117.082 222.69 116.853 223.81C116.603 225.757 117.894 226.514 119.747 225.412C120.714 224.804 121.549 224.007 122.201 223.068C122.853 222.13 123.308 221.069 123.539 219.95C123.782 218.01 122.491 217.287 120.646 218.348Z" fill="black"/>
</g>
<path d="M175.327 23.9709V18.8604C175.321 18.6254 175.263 18.3947 175.158 18.1844C175.041 17.6823 174.847 17.2013 174.584 16.758C174.023 15.8589 172.995 15.3384 170.589 15.406C170.254 15.4152 169.923 15.4791 169.608 15.5953L79.1867 66.9645C78.1958 67.5405 77.3718 68.3644 76.7958 69.3553C76.2197 70.3461 75.9115 71.4698 75.9013 72.6159V78.4701L78.4904 79.964L175.327 23.9709Z" fill="#E53F3F"/>
<path d="M78.4904 79.964L75.9013 78.4701V224.831C75.9013 227.454 77.4426 228.447 79.1529 228.556C79.8915 228.597 80.6314 228.503 81.3363 228.278C81.4265 228.248 81.5146 228.212 81.6 228.17L172.042 176.659C173.04 176.091 173.87 175.269 174.447 174.277C175.024 173.284 175.328 172.156 175.327 171.008V23.9709L78.4904 79.964Z" fill="#E53F3F"/>
<path opacity="0.2" d="M76.5773 69.7632C76.1357 70.6495 75.9044 71.6257 75.9013 72.6159V224.831C75.9013 227.454 77.4426 228.447 79.1529 228.556C78.6784 227.843 78.4418 226.998 78.4769 226.142V73.9341C78.4824 72.9442 78.7136 71.9686 79.1529 71.0814C79.2272 70.9327 79.3219 70.7907 79.403 70.6488L76.8883 69.2021C76.7743 69.3833 76.6705 69.5706 76.5773 69.7632Z" fill="black"/>
<path opacity="0.2" d="M170.589 15.3453C170.254 15.3544 169.923 15.4184 169.608 15.5345L79.1867 66.9646C78.2484 67.5056 77.4623 68.2754 76.9018 69.2022L79.4165 70.6488C79.9871 69.6623 80.8079 68.8438 81.796 68.2761L172.198 16.8527C172.513 16.7337 172.847 16.6697 173.184 16.6635C173.652 16.6485 174.119 16.6665 174.584 16.7175C174.023 15.8185 172.995 15.2979 170.589 15.3453Z" fill="white"/>
<path opacity="0.05" d="M175.327 23.9709V18.8604C175.321 18.6254 175.263 18.3947 175.158 18.1844C175.041 17.6823 174.847 17.2013 174.584 16.758C174.023 15.8589 172.995 15.3384 170.589 15.406C170.254 15.4152 169.923 15.4791 169.608 15.5953L79.1867 66.9645C78.1958 67.5405 77.3718 68.3644 76.7958 69.3553C76.2197 70.3461 75.9115 71.4698 75.9013 72.6159V78.4701L78.4904 79.964L175.327 23.9709Z" fill="white"/>
<path opacity="0.3" d="M78.4904 79.964L75.9013 78.4701V224.831C75.9013 227.454 77.4426 228.447 79.1529 228.556C79.8915 228.597 80.6314 228.503 81.3363 228.278C81.4265 228.248 81.5146 228.212 81.6 228.17L172.042 176.659C173.04 176.091 173.87 175.269 174.447 174.277C175.024 173.284 175.328 172.156 175.327 171.008V23.9709L78.4904 79.964Z" fill="white"/>
<path d="M125.844 77.3545L86.0886 100.291V166.668L125.844 143.724V77.3545Z" fill="white"/>
<path d="M88.2991 101.569L123.64 81.1743V142.454L88.2991 162.842V101.569Z" fill="#455A64"/>
<path opacity="0.3" d="M88.2991 101.569L123.64 81.1743V142.454L88.2991 162.842V101.569Z" fill="white"/>
<path d="M123.64 142.501L88.2991 162.916V139.452L98.5811 131.374L111.831 126.344L115.109 125.526C116.563 125.163 118.078 125.118 119.55 125.394C121.023 125.671 122.418 126.262 123.64 127.128V142.501Z" fill="#E0E0E0"/>
<path d="M96.2962 113.568C95.2687 110.127 95.4918 106.179 97.5468 103.232C98.9026 101.352 100.805 99.9354 102.995 99.1759C105.168 98.4391 107.466 98.1404 109.755 98.2971C111.571 98.3318 113.357 98.7632 114.988 99.5612C115.965 100.082 116.83 100.791 117.533 101.647C118.236 102.503 118.763 103.489 119.085 104.549C119.406 105.609 119.516 106.722 119.407 107.824C119.297 108.926 118.972 109.996 118.449 110.972C117.558 112.475 116.396 113.8 115.021 114.879C112.384 117.137 109.486 119.071 106.389 120.639C105.618 121.031 104.834 121.403 104.036 121.748C103.496 121.984 102.475 122.647 101.866 122.525C101.258 122.403 100.623 121.274 100.258 120.808C99.7303 120.132 99.2301 119.456 98.7636 118.739C97.694 117.145 96.8628 115.403 96.2962 113.568Z" fill="#263238"/>
<path d="M114.758 142.467C114.501 141.431 114.148 140.422 113.703 139.452L112.013 139.851C112.142 140.797 112.209 141.784 112.243 142.764C112.243 143.44 112.189 145.942 112.061 149.18L115.853 146.996C115.515 145.509 115.157 143.988 114.758 142.467Z" fill="#E53F3F"/>
<path opacity="0.2" d="M112.054 140.209C112.054 140.094 112.054 139.972 112.013 139.851L113.703 139.452L113.805 139.702C113.576 139.922 113.297 140.084 112.992 140.172C112.687 140.261 112.365 140.273 112.054 140.209Z" fill="black"/>
<path d="M111.107 135.423L109.755 134.571L106.659 136.261C107.719 137.075 108.986 137.577 110.316 137.708L111.107 135.423Z" fill="#E53F3F"/>
<path d="M113.162 135.099L113.568 134.186L115.13 135.166C114.963 135.759 114.607 136.281 114.116 136.653L113.162 135.099Z" fill="#E53F3F"/>
<path opacity="0.2" d="M111.107 135.423L109.755 134.571L106.659 136.261C107.719 137.075 108.986 137.577 110.316 137.708L111.107 135.423Z" fill="black"/>
<path opacity="0.2" d="M113.162 135.099L113.568 134.186L115.13 135.166C114.963 135.759 114.607 136.281 114.116 136.653L113.162 135.099Z" fill="black"/>
<path d="M110.337 137.708C110.468 136.91 110.728 136.138 111.107 135.423L113.135 135.099C113.511 135.579 113.83 136.101 114.089 136.653C114.133 137.604 113.993 138.555 113.676 139.452C113.154 139.721 112.574 139.858 111.986 139.851C111.227 139.325 110.651 138.576 110.337 137.708Z" fill="#E53F3F"/>
<path d="M101.657 119.557V128.94C103.523 131.516 111.371 134.781 111.831 134.707C112.399 134.605 111.831 129.549 111.831 129.109V125.31C110.303 125.08 108.809 124.81 107.464 124.526C106.155 124.255 104.937 123.657 103.922 122.788C102.906 121.919 102.127 120.808 101.657 119.557Z" fill="#9C5C5C"/>
<path d="M108.417 126.75C109.537 127.044 110.678 127.248 111.831 127.358V125.33C110.303 125.101 108.809 124.83 107.464 124.546C106.237 124.289 105.089 123.744 104.114 122.956C103.138 122.169 102.364 121.162 101.853 120.017C102.1 121.596 102.806 123.067 103.881 124.249C105.138 125.478 106.706 126.343 108.417 126.75Z" fill="#803E3E"/>
<path d="M117.692 104.78C116.155 106.267 114.117 107.126 111.979 107.187C109.951 107.187 108.032 106.544 106.091 106.01C105.914 106.954 105.441 107.816 104.739 108.471C103.965 109.131 103.012 109.548 102.002 109.668C102.286 111.479 102.286 113.324 102.002 115.136C101.977 115.325 101.9 115.504 101.781 115.653C101.662 115.802 101.505 115.915 101.326 115.981C100.65 116.171 100.244 115.501 99.9264 114.961C99.5862 114.328 99.0994 113.785 98.5068 113.379C98.2101 113.184 97.8711 113.064 97.5183 113.027C97.1654 112.991 96.8089 113.039 96.4788 113.169C96.2153 113.308 95.9833 113.5 95.7973 113.733C95.6112 113.965 95.475 114.234 95.3971 114.521C95.2458 115.085 95.2181 115.676 95.316 116.252C95.4322 117.223 95.8213 118.142 96.4382 118.902C96.7472 119.28 97.1303 119.591 97.5639 119.815C97.9976 120.039 98.4726 120.173 98.9597 120.206C99.4339 120.247 99.9103 120.157 100.337 119.946C100.764 119.735 101.124 119.412 101.38 119.01L101.427 119.186C101.748 120.518 102.44 121.733 103.422 122.69C104.404 123.647 105.636 124.307 106.977 124.594C108.207 124.85 109.573 125.094 110.959 125.31C111.635 125.412 112.311 125.506 112.987 125.587C114.245 125.738 115.513 125.402 116.531 124.648C117.549 123.894 118.24 122.779 118.462 121.531C119.388 116.184 119.699 110.019 117.692 104.78Z" fill="#9C5C5C"/>
<path d="M113.69 111.466H112.5C111.303 110.654 109.924 110.152 108.486 110.005C107.048 109.857 105.596 110.069 104.26 110.621V111.878L104.591 112.054C104.771 112.865 104.872 113.691 104.895 114.521C104.917 115.337 105.243 116.115 105.808 116.705C106.525 117.194 107.39 117.419 108.255 117.34C108.944 117.394 109.637 117.292 110.283 117.043C111.022 116.644 111.578 115.976 111.837 115.177C112.135 114.393 112.081 113.94 112.446 113C112.496 112.864 112.589 112.748 112.711 112.669C112.833 112.589 112.977 112.552 113.122 112.561C113.255 112.566 113.384 112.61 113.493 112.688C113.601 112.766 113.684 112.875 113.73 113C114.068 113.94 114.028 114.393 114.298 115.177C114.532 115.959 115.051 116.624 115.752 117.043C116.356 117.295 117.012 117.397 117.665 117.34C118.481 117.417 119.296 117.191 119.956 116.705C120.491 116.102 120.794 115.327 120.808 114.521C120.827 113.692 120.922 112.866 121.092 112.054L121.403 111.878V110.621C120.157 110.069 118.787 109.856 117.433 110.005C116.078 110.153 114.787 110.657 113.69 111.466ZM111.898 112.142L111.851 112.588C111.742 113.399 111.54 114.195 111.249 114.961C111.039 115.596 110.601 116.13 110.019 116.461C109.553 116.646 109.052 116.727 108.552 116.698H108.282C107.57 116.773 106.854 116.601 106.254 116.211C105.813 115.735 105.571 115.109 105.578 114.46C105.578 114.251 105.537 114.034 105.524 113.784C105.483 113.183 105.524 111.871 105.571 110.918C106.251 110.73 106.954 110.634 107.66 110.634C109.146 110.64 110.601 111.064 111.858 111.858C111.919 111.898 111.898 112.108 111.898 112.108V112.142ZM120.227 113.818C120.227 114.034 120.227 114.251 120.179 114.494C120.176 115.141 119.936 115.764 119.503 116.245C118.953 116.632 118.28 116.805 117.611 116.732H117.36C116.898 116.758 116.435 116.677 116.008 116.495C115.453 116.154 115.044 115.619 114.859 114.994C114.587 114.226 114.399 113.431 114.298 112.622L114.251 112.175C114.251 112.175 114.251 111.966 114.298 111.925C115.457 111.138 116.824 110.712 118.226 110.702C118.887 110.701 119.545 110.797 120.179 110.986C120.233 111.871 120.26 113.183 120.227 113.784V113.818Z" fill="#37474F"/>
<path d="M104.26 110.621L97.5536 113.034C98.0374 113.126 98.4905 113.337 98.8718 113.649C98.9394 113.71 104.28 111.878 104.28 111.878L104.26 110.621Z" fill="#37474F"/>
<path d="M113.081 112.662L116.468 116.759L113.365 117.854L113.081 112.662Z" fill="#9C5C5C"/>
<path d="M113.081 112.662L116.468 116.759L113.365 117.854L113.081 112.662Z" fill="#803E3E"/>
<path d="M108.309 113.176C108.307 113.298 108.329 113.419 108.375 113.532C108.42 113.645 108.488 113.748 108.573 113.835C108.659 113.921 108.761 113.99 108.873 114.037C108.986 114.085 109.106 114.109 109.228 114.109C109.357 114.12 109.486 114.104 109.609 114.062C109.731 114.02 109.843 113.954 109.938 113.866C110.034 113.779 110.109 113.673 110.161 113.554C110.213 113.436 110.24 113.308 110.24 113.179C110.24 113.05 110.213 112.922 110.161 112.804C110.109 112.686 110.034 112.579 109.938 112.492C109.843 112.405 109.731 112.338 109.609 112.296C109.486 112.255 109.357 112.239 109.228 112.25C108.984 112.252 108.75 112.35 108.578 112.523C108.405 112.697 108.309 112.931 108.309 113.176Z" fill="#263238"/>
<path d="M116.11 112.892C116.108 113.014 116.13 113.136 116.176 113.249C116.221 113.363 116.288 113.466 116.374 113.553C116.459 113.641 116.561 113.71 116.674 113.758C116.786 113.806 116.907 113.831 117.029 113.832C117.276 113.832 117.513 113.735 117.689 113.561C117.865 113.388 117.965 113.152 117.969 112.906C117.949 112.673 117.842 112.456 117.67 112.298C117.498 112.14 117.273 112.052 117.039 112.052C116.806 112.052 116.58 112.14 116.408 112.298C116.236 112.456 116.13 112.673 116.11 112.906V112.892Z" fill="#263238"/>
<path d="M115.596 108.836L118.084 109.113C118.039 108.848 117.916 108.602 117.73 108.407C117.545 108.212 117.305 108.076 117.043 108.018C116.749 108.006 116.458 108.076 116.203 108.221C115.947 108.365 115.737 108.578 115.596 108.836Z" fill="#263238"/>
<path d="M110.188 109.019H107.68C107.757 108.76 107.91 108.531 108.118 108.36C108.326 108.189 108.581 108.084 108.85 108.059C109.139 108.079 109.418 108.18 109.654 108.35C109.89 108.519 110.075 108.751 110.188 109.019Z" fill="#263238"/>
<path d="M109.789 119.497L113.365 120.598C113.139 121.019 112.781 121.355 112.347 121.555C111.913 121.755 111.426 121.808 110.959 121.707C110.08 121.464 109.681 120.402 109.789 119.497Z" fill="#9C5C5C"/>
<path d="M109.789 119.497L113.365 120.598C113.139 121.019 112.781 121.355 112.347 121.555C111.913 121.755 111.426 121.808 110.959 121.707C110.08 121.464 109.681 120.402 109.789 119.497Z" fill="#5E2828"/>
<path d="M112.128 121.633C111.754 121.772 111.347 121.798 110.959 121.707C110.627 121.583 110.339 121.363 110.132 121.075C109.925 120.788 109.808 120.445 109.796 120.091C110.308 120 110.836 120.109 111.27 120.396C111.704 120.683 112.011 121.126 112.128 121.633Z" fill="#9C5C5C"/>
<path d="M112.128 121.633C111.754 121.772 111.347 121.798 110.959 121.707C110.627 121.583 110.339 121.363 110.132 121.075C109.925 120.788 109.808 120.445 109.796 120.091C110.308 120 110.836 120.109 111.27 120.396C111.704 120.683 112.011 121.126 112.128 121.633Z" fill="#803E3E"/>
<path d="M111.831 134.706C108.572 134.652 108.099 139.918 105.125 140.79L97.54 131.563L99.8925 128.068C100.363 127.371 100.973 126.78 101.684 126.331V127.595C101.693 127.966 101.796 128.328 101.984 128.647C102.172 128.966 102.439 129.233 102.759 129.42L111.831 134.706Z" fill="#FAFAFA"/>
<path d="M111.831 134.706C113.636 134.145 116.34 136.403 116.34 136.403C115.393 131.171 112.527 126.344 111.831 126.344V134.706Z" fill="#FAFAFA"/>
<path d="M109.208 68.7695C110.188 68.2017 110.796 68.4315 110.803 69.3644C110.773 69.8714 110.611 70.3617 110.334 70.7872C110.056 71.2127 109.673 71.5587 109.221 71.7912L108.599 72.1495V73.2243L107.585 73.8057V69.7091L109.208 68.7695ZM109.161 70.9124C109.341 70.8252 109.494 70.6903 109.604 70.5223C109.714 70.3544 109.775 70.1597 109.782 69.9592C109.782 69.5807 109.573 69.4725 109.154 69.7159L108.593 70.0404V71.2369L109.154 70.9124" fill="white"/>
<path d="M113.811 68.952L114.589 69.797L113.507 70.4189L112.831 69.7023L112.284 70.0201V71.1084L111.27 71.6965V67.5932L112.892 66.6265C113.865 66.0655 114.474 66.2953 114.481 67.2282C114.479 67.8659 114.241 68.4804 113.811 68.952ZM112.865 68.8033C113.046 68.7143 113.199 68.5781 113.308 68.4091C113.418 68.2401 113.48 68.0446 113.487 67.8433C113.487 67.4648 113.277 67.3634 112.858 67.6L112.297 67.9245V69.1277L112.858 68.8033" fill="white"/>
<path d="M116.853 64.2674C117.996 63.5914 118.841 64.0308 118.848 65.2543C118.813 65.9217 118.614 66.5702 118.269 67.1422C117.923 67.7142 117.442 68.1919 116.867 68.5329C115.731 69.2089 114.886 68.7763 114.879 67.546C114.916 66.8799 115.115 66.233 115.459 65.6615C115.803 65.0901 116.282 64.6115 116.853 64.2674ZM116.853 67.573C117.144 67.3868 117.385 67.1312 117.552 66.8291C117.72 66.527 117.809 66.1879 117.813 65.8425C117.813 65.1665 117.387 64.9163 116.847 65.2341C116.563 65.4171 116.328 65.6668 116.163 65.9614C115.998 66.256 115.908 66.5865 115.9 66.9241C115.9 67.6406 116.326 67.8569 116.867 67.546" fill="white"/>
<path d="M122.167 61.2861L122.174 62.1785L120.382 63.2127L120.389 64.1118L121.964 63.206V64.1051L120.389 65.0109L120.396 66.417L119.382 66.9983L119.375 62.9018L122.167 61.2861Z" fill="white"/>
<path d="M123.654 60.4275L123.667 64.524L122.653 65.1122L122.647 61.0089L123.654 60.4275Z" fill="white"/>
<path d="M125.378 59.4338L125.391 62.611L127.088 61.6308L127.095 62.5502L124.384 64.1118L124.37 60.0152L125.378 59.4338Z" fill="white"/>
<path d="M130.279 56.6016V57.5006L128.481 58.5349L128.487 59.2244L130.069 58.3118V59.1771L128.487 60.0897V60.8401L130.353 59.772V60.6643L127.494 62.3205L127.48 58.2172L130.279 56.6016Z" fill="white"/>
<path d="M134.078 54.4113C135.261 53.7353 136.065 54.053 136.072 55.3103C136.045 55.9694 135.847 56.6102 135.499 57.1704C135.151 57.7307 134.663 58.1914 134.085 58.5078L132.401 59.488V55.3915L134.078 54.4113ZM134.044 57.6087C134.346 57.4347 134.597 57.1859 134.775 56.8864C134.953 56.5868 135.05 56.2466 135.058 55.8985C135.058 55.2225 134.646 55.0129 134.037 55.3644L133.402 55.7295V57.9738L134.037 57.6087" fill="white"/>
<path d="M138.688 51.7478L140.277 54.9318L139.229 55.5402L138.945 54.9047L137.438 55.7768L137.16 56.7367L136.133 57.3316L137.694 52.3224L138.688 51.7478ZM137.735 54.756L138.648 54.2287L138.188 53.1809L137.735 54.756Z" fill="white"/>
<path d="M145.577 47.7727L147.165 50.9567L146.117 51.5651L145.834 50.9296L144.326 51.8017L144.049 52.7616L143.021 53.3497L144.583 48.3473L145.577 47.7727ZM144.617 50.7741L145.536 50.2469L145.07 49.1991L144.617 50.7741Z" fill="white"/>
<path d="M143.231 49.1248L143.238 50.0441L142.149 50.6728L142.156 53.85L141.149 54.4314L141.135 51.2542L140.047 51.8828L140.04 50.9635L143.231 49.1248Z" fill="white"/>
<path d="M113.629 72.8794V75.7051L142.217 59.2039V56.385L113.629 72.8794Z" fill="#E53F3F"/>
<g opacity="0.6">
<path d="M113.629 72.8794V75.7051L142.217 59.2039V56.385L113.629 72.8794Z" fill="white"/>
</g>
<path d="M120.774 73.8056V76.6245L137.404 66.9713V64.1523L120.774 73.8056Z" fill="#E53F3F"/>
<g opacity="0.6">
<path d="M120.774 73.8056V76.6245L137.404 66.9713V64.1523L120.774 73.8056Z" fill="white"/>
</g>
<path d="M129.535 91.9156V94.7345L168.703 72.1561V69.3372L129.535 91.9156Z" fill="#E53F3F"/>
<path d="M129.535 96.7491V99.5681L159.996 82.0191V79.2002L129.535 96.7491Z" fill="#E53F3F"/>
<path d="M129.535 105.321V108.14L168.703 85.5679V82.749L129.535 105.321Z" fill="#E53F3F"/>
<path d="M129.535 110.161V112.98L168.703 90.4283V87.6094L129.535 110.161Z" fill="#E53F3F"/>
<path d="M129.535 114.832V117.651L159.076 100.683V97.8645L129.535 114.832Z" fill="#E53F3F"/>
<path d="M129.535 75.7185V80.5452L158.123 64.0508V59.2241L129.535 75.7185Z" fill="#E53F3F"/>
<path d="M129.535 83.0195V86.0548L148.531 75.1441V72.1089L129.535 83.0195Z" fill="#E53F3F"/>
<g opacity="0.6">
<path d="M129.535 91.9156V94.7345L168.703 72.1561V69.3372L129.535 91.9156Z" fill="white"/>
<path d="M129.535 96.7491V99.5681L159.996 82.0191V79.2002L129.535 96.7491Z" fill="white"/>
<path d="M129.535 105.321V108.14L168.703 85.5679V82.749L129.535 105.321Z" fill="white"/>
<path d="M129.535 110.161V112.98L168.703 90.4283V87.6094L129.535 110.161Z" fill="white"/>
<path d="M129.535 114.832V117.651L159.076 100.683V97.8643L129.535 114.832Z" fill="white"/>
<path d="M129.535 75.7185V80.5452L158.123 64.0508V59.2241L129.535 75.7185Z" fill="white"/>
<path d="M129.535 83.0195V86.0548L148.531 75.1441V72.1089L129.535 83.0195Z" fill="white"/>
</g>
<path d="M132.226 120.646L133.111 122.194L135.085 121.383L133.665 123.809L134.003 125.871L132.239 125.824L130.475 127.913L130.806 125.459L129.373 124.681L131.347 123.215L132.226 120.646Z" fill="#E53F3F"/>
<path d="M140.791 115.704L141.676 117.252L143.65 116.441L142.224 118.868L142.568 120.93L140.804 120.882L139.04 122.964L139.371 120.51L137.938 119.74L139.905 118.273L140.791 115.704Z" fill="#E53F3F"/>
<path d="M149.349 110.756L150.241 112.304L152.208 111.493L150.789 113.92L151.133 115.981L149.369 115.934L147.598 118.023L147.936 115.569L146.496 114.792L148.47 113.325L149.349 110.756Z" fill="#E53F3F"/>
<path d="M157.914 105.814L158.799 107.362L160.773 106.551L159.354 108.978L159.698 111.04L157.927 110.992L156.163 113.081L156.494 110.627L155.061 109.85L157.042 108.383L157.914 105.814Z" fill="#E53F3F"/>
<path d="M166.479 100.873L167.364 102.421L169.338 101.609L167.918 104.036L168.263 106.091L166.492 106.051L164.728 108.133L165.059 105.679L163.626 104.908L165.6 103.435L166.479 100.873Z" fill="#E53F3F"/>
<path d="M132.226 128.116L133.111 129.664L135.085 128.846L133.665 131.273L134.003 133.341L132.239 133.294L130.475 135.376L130.806 132.929L129.373 132.151L131.347 130.685L132.226 128.116Z" fill="#E53F3F"/>
<path d="M140.791 123.167L141.676 124.715L143.65 123.904L142.224 126.331L142.568 128.399L140.804 128.345L139.04 130.434L139.371 127.98L137.938 127.203L139.905 125.736L140.791 123.167Z" fill="#E53F3F"/>
<path d="M149.349 118.226L150.241 119.774L152.208 118.962L150.789 121.389L151.133 123.451L149.369 123.404L147.598 125.486L147.936 123.039L146.496 122.261L148.47 120.794L149.349 118.226Z" fill="#E53F3F"/>
<path d="M157.914 113.284L158.799 114.832L160.773 114.021L159.354 116.448L159.698 118.503L157.927 118.462L156.163 120.544L156.494 118.091L155.061 117.313L157.042 115.846L157.914 113.284Z" fill="#E53F3F"/>
<path d="M166.479 108.336L167.364 109.884L169.338 109.073L167.918 111.499L168.263 113.561L166.492 113.514L164.728 115.603L165.059 113.149L163.626 112.371L165.6 110.904L166.479 108.336Z" fill="#E53F3F"/>
<path d="M132.226 135.579L133.111 137.127L135.085 136.315L133.665 138.742L134.003 140.804L132.239 140.757L130.475 142.846L130.806 140.392L129.373 139.614L131.347 138.147L132.226 135.579Z" fill="#E53F3F"/>
<path d="M140.791 130.637L141.676 132.185L143.65 131.374L142.224 133.801L142.568 135.862L140.804 135.815L139.04 137.897L139.371 135.45L137.938 134.673L139.905 133.206L140.791 130.637Z" fill="#E53F3F"/>
<path d="M149.349 125.695L150.241 127.243L152.208 126.432L150.789 128.859L151.133 130.914L149.369 130.873L147.598 132.956L147.936 130.502L146.496 129.724L148.47 128.264L149.349 125.695Z" fill="#E53F3F"/>
<path d="M157.914 120.747L158.799 122.295L160.773 121.484L159.354 123.911L159.698 125.973L157.927 125.925L156.163 128.014L156.494 125.56L155.061 124.783L157.042 123.316L157.914 120.747Z" fill="#E53F3F"/>
<path d="M166.479 115.806L167.364 117.354L169.338 116.543L167.918 118.969L168.263 121.031L166.492 120.984L164.728 123.073L165.059 120.619L163.626 119.841L165.6 118.368L166.479 115.806Z" fill="#E53F3F"/>
<g opacity="0.8">
<path d="M132.226 120.646L133.111 122.194L135.085 121.382L133.665 123.809L134.003 125.871L132.239 125.824L130.475 127.913L130.806 125.459L129.373 124.681L131.347 123.214L132.226 120.646Z" fill="white"/>
<path d="M140.791 115.704L141.676 117.252L143.65 116.441L142.224 118.868L142.568 120.93L140.804 120.882L139.04 122.964L139.371 120.51L137.938 119.74L139.905 118.273L140.791 115.704Z" fill="white"/>
<path d="M149.349 110.756L150.241 112.304L152.208 111.493L150.789 113.92L151.133 115.981L149.369 115.934L147.598 118.023L147.936 115.569L146.496 114.792L148.47 113.325L149.349 110.756Z" fill="white"/>
</g>
<g opacity="0.8">
<path d="M132.226 128.116L133.111 129.664L135.085 128.846L133.665 131.273L134.003 133.341L132.239 133.294L130.475 135.376L130.806 132.929L129.373 132.151L131.347 130.685L132.226 128.116Z" fill="white"/>
<path d="M140.791 123.167L141.676 124.715L143.65 123.904L142.224 126.331L142.568 128.399L140.804 128.345L139.04 130.434L139.371 127.98L137.938 127.203L139.905 125.736L140.791 123.167Z" fill="white"/>
<path d="M149.349 118.226L150.241 119.774L152.208 118.962L150.789 121.389L151.133 123.451L149.369 123.404L147.598 125.486L147.936 123.039L146.496 122.261L148.47 120.794L149.349 118.226Z" fill="white"/>
<path d="M157.914 113.284L158.799 114.832L160.773 114.021L159.353 116.448L159.698 118.503L157.927 118.462L156.163 120.544L156.494 118.091L155.061 117.313L157.042 115.846L157.914 113.284Z" fill="white"/>
</g>
<g opacity="0.8">
<path d="M132.226 135.579L133.111 137.127L135.085 136.315L133.665 138.742L134.003 140.804L132.239 140.757L130.475 142.846L130.806 140.392L129.373 139.614L131.347 138.147L132.226 135.579Z" fill="white"/>
<path d="M140.791 130.637L141.676 132.185L143.65 131.374L142.224 133.801L142.568 135.862L140.804 135.815L139.04 137.897L139.371 135.45L137.938 134.673L139.905 133.206L140.791 130.637Z" fill="white"/>
<path d="M149.349 125.695L150.241 127.243L152.208 126.432L150.789 128.859L151.133 130.914L149.369 130.873L147.598 132.956L147.936 130.502L146.496 129.724L148.47 128.264L149.349 125.695Z" fill="white"/>
</g>
<path d="M96.2151 166.816L86.1157 172.677V184.365L94.4575 179.539L96.2151 175.909V166.816Z" fill="#E53F3F"/>
<path opacity="0.1" d="M96.2151 166.816L86.1157 172.677V184.365L94.4575 179.539L96.2151 175.909V166.816Z" fill="black"/>
<path d="M94.4575 179.539L96.2151 175.909L94.4575 176.923V179.539Z" fill="#E53F3F"/>
<path opacity="0.3" d="M94.4575 179.539L96.2151 175.909L94.4575 176.923V179.539Z" fill="black"/>
<path d="M98.2769 165.64V168.108L125.844 152.208V149.741L98.2769 165.64Z" fill="#E53F3F"/>
<path d="M98.2769 169.872V172.339L125.844 156.46V153.993L98.2769 169.872Z" fill="#E53F3F"/>
<path d="M98.2769 173.955V176.423L117.428 165.431V162.963L98.2769 173.955Z" fill="#E53F3F"/>
<g opacity="0.6">
<path d="M98.2769 165.64V168.108L125.844 152.208V149.741L98.2769 165.64Z" fill="white"/>
<path d="M98.2769 169.872V172.339L125.844 156.46V153.993L98.2769 169.872Z" fill="white"/>
<path d="M98.2769 173.955V176.423L117.428 165.431V162.963L98.2769 173.955Z" fill="white"/>
</g>
<path d="M96.2151 182.507L86.1157 188.361V200.056L94.4575 195.222L96.2151 191.592V182.507Z" fill="#E53F3F"/>
<path opacity="0.1" d="M96.2151 182.507L86.1157 188.361V200.056L94.4575 195.222L96.2151 191.592V182.507Z" fill="black"/>
<path d="M94.4575 195.222L96.2151 191.592L94.4575 192.613V195.222Z" fill="#E53F3F"/>
<path opacity="0.3" d="M94.4575 195.222L96.2151 191.592L94.4575 192.613V195.222Z" fill="black"/>
<path d="M98.2769 181.33V183.798L126.148 167.729V165.262L98.2769 181.33Z" fill="#E53F3F"/>
<path d="M98.2769 185.562V188.023L126.148 171.981V169.514L98.2769 185.562Z" fill="#E53F3F"/>
<path d="M98.2769 189.645V192.113L104.314 188.712V186.245L98.2769 189.645Z" fill="#E53F3F"/>
<g opacity="0.6">
<path d="M98.2769 181.33V183.798L126.148 167.729V165.262L98.2769 181.33Z" fill="white"/>
<path d="M98.2769 185.562V188.023L126.148 171.981V169.514L98.2769 185.562Z" fill="white"/>
<path d="M98.2769 189.645V192.113L104.314 188.712V186.245L98.2769 189.645Z" fill="white"/>
</g>
<path d="M96.2151 198.196L86.1157 204.05V215.738L94.4575 210.912L96.2151 207.282V198.196Z" fill="#E53F3F"/>
<path opacity="0.1" d="M96.2151 198.196L86.1157 204.05V215.738L94.4575 210.912L96.2151 207.282V198.196Z" fill="black"/>
<path d="M94.4575 210.912L96.2151 207.282L94.4575 208.296V210.912Z" fill="#E53F3F"/>
<path opacity="0.3" d="M94.4575 210.912L96.2151 207.282L94.4575 208.296V210.912Z" fill="black"/>
<path d="M98.2769 197.02V199.481L126.412 183.149V180.681L98.2769 197.02Z" fill="#E53F3F"/>
<path d="M98.2769 201.245V203.713L126.412 187.401V184.933L98.2769 201.245Z" fill="#E53F3F"/>
<path d="M98.2769 205.328V207.796L126.412 191.517V189.05L98.2769 205.328Z" fill="#E53F3F"/>
<g opacity="0.6">
<path d="M98.2769 197.02V199.481L126.412 183.149V180.681L98.2769 197.02Z" fill="white"/>
<path d="M98.2769 201.245V203.713L126.412 187.401V184.933L98.2769 201.245Z" fill="white"/>
<path d="M98.2769 205.328V207.796L126.412 191.518V189.05L98.2769 205.328Z" fill="white"/>
</g>
<path d="M168.236 171.028L130.684 192.66C130.573 192.726 130.446 192.761 130.317 192.762C130.187 192.762 130.06 192.729 129.948 192.664C129.836 192.599 129.743 192.506 129.679 192.394C129.614 192.281 129.581 192.154 129.582 192.025V149.673C129.582 149.286 129.683 148.905 129.877 148.569C130.07 148.233 130.349 147.954 130.684 147.76L168.236 126.088C168.348 126.024 168.475 125.99 168.605 125.991C168.734 125.991 168.861 126.026 168.972 126.091C169.084 126.156 169.176 126.249 169.241 126.361C169.305 126.473 169.338 126.601 169.338 126.73V169.095C169.342 169.486 169.243 169.871 169.049 170.211C168.855 170.55 168.575 170.832 168.236 171.028Z" fill="#E53F3F"/>
<path d="M142.906 144.312L132.807 150.173V161.861L141.156 157.035L142.906 153.405V144.312Z" fill="#E53F3F"/>
<path opacity="0.3" d="M142.906 144.312L132.807 150.173V161.861L141.156 157.035L142.906 153.405V144.312Z" fill="black"/>
<path d="M141.156 157.035L142.906 153.405L141.156 154.419V157.035Z" fill="#E53F3F"/>
<path opacity="0.5" d="M141.156 157.035L142.906 153.405L141.156 154.419V157.035Z" fill="black"/>
<path d="M145.293 144.562V146.205L167.141 133.598V131.955L145.293 144.562Z" fill="#E53F3F"/>
<path d="M145.293 149.018L167.141 136.424V134.781L145.293 147.375V149.018Z" fill="#E53F3F"/>
<path d="M145.293 151.917L167.141 139.31V137.674L145.293 150.281V151.917Z" fill="#E53F3F"/>
<path d="M157.217 146.205L145.293 153.094V154.736L157.217 147.841V146.205Z" fill="#E53F3F"/>
<path d="M132.807 166.026L167.141 146.287V144.651L132.807 164.383V166.026Z" fill="#E53F3F"/>
<path d="M158.279 152.58L132.807 167.202V168.838L158.279 154.223V152.58Z" fill="#E53F3F"/>
<path d="M132.807 179.309L167.141 159.57V157.934L132.807 177.666V179.309Z" fill="#E53F3F"/>
<path d="M151.884 169.534L132.807 180.478V182.121L151.884 171.17V169.534Z" fill="#E53F3F"/>
<path d="M132.807 185.021L167.141 165.289V163.646L132.807 183.385V185.021Z" fill="#E53F3F"/>
<path d="M132.807 187.84L149.977 177.977V176.334L132.807 186.197V187.84Z" fill="#E53F3F"/>
<path d="M152.343 176.612L157.724 173.523V171.88L152.343 174.976V176.612Z" fill="#E53F3F"/>
<path d="M132.807 171.745L167.141 152.005V150.369L132.807 170.102V171.745Z" fill="#E53F3F"/>
<path d="M144.786 166.032L132.807 172.914V174.557L144.786 167.675V166.032Z" fill="#E53F3F"/>
<g opacity="0.3">
<path d="M145.293 144.562V146.205L167.141 133.598V131.955L145.293 144.562Z" fill="white"/>
<path d="M145.293 149.018L167.141 136.424V134.781L145.293 147.375V149.018Z" fill="white"/>
<path d="M145.293 151.917L167.141 139.31V137.674L145.293 150.281V151.917Z" fill="white"/>
<path d="M157.217 146.205L145.293 153.094V154.736L157.217 147.841V146.205Z" fill="white"/>
<path d="M132.807 166.026L167.141 146.287V144.651L132.807 164.383V166.026Z" fill="white"/>
<path d="M158.279 152.58L132.807 167.202V168.838L158.279 154.223V152.58Z" fill="white"/>
<path d="M132.807 179.309L167.141 159.57V157.934L132.807 177.666V179.309Z" fill="white"/>
<path d="M151.884 169.534L132.807 180.478V182.121L151.884 171.17V169.534Z" fill="white"/>
<path d="M132.807 185.021L167.141 165.289V163.646L132.807 183.385V185.021Z" fill="white"/>
<path d="M132.807 187.84L149.977 177.977V176.334L132.807 186.197V187.84Z" fill="white"/>
<path d="M152.343 176.612L157.724 173.523V171.88L152.343 174.976V176.612Z" fill="white"/>
<path d="M132.807 171.745L167.141 152.005V150.369L132.807 170.102V171.745Z" fill="white"/>
<path d="M144.786 166.032L132.807 172.914V174.557L144.786 167.675V166.032Z" fill="white"/>
</g>
<path d="M180.195 273.219C180.959 273.953 181.867 274.521 182.862 274.887C183.857 275.254 184.916 275.411 185.974 275.348C188.09 275.211 190.164 274.689 192.092 273.807C194.046 273.003 196.5 270.752 198.616 270.792C200.692 270.788 202.767 270.657 204.828 270.4C204.9 267.582 204.604 264.766 203.949 262.024L194.08 261.761C191.416 265.411 186.231 268.446 182.31 269.589C181.707 269.759 181.162 270.091 180.733 270.549C180.304 271.006 180.008 271.572 179.877 272.185C179.874 272.205 179.874 272.225 179.877 272.246C179.941 272.582 180.048 272.909 180.195 273.219Z" fill="#37474F"/>
<path d="M198.616 270.792C196.5 270.752 194.046 273.003 192.092 273.807C190.164 274.689 188.09 275.211 185.974 275.349C184.916 275.411 183.857 275.254 182.862 274.888C181.868 274.521 180.959 273.953 180.195 273.219C180.039 272.902 179.925 272.565 179.857 272.219C179.853 272.198 179.853 272.178 179.857 272.158C179.762 272.59 179.762 273.037 179.857 273.469C179.925 273.818 180.038 274.157 180.195 274.476C180.961 275.208 181.869 275.774 182.864 276.14C183.858 276.505 184.917 276.661 185.974 276.599C188.09 276.462 190.164 275.939 192.092 275.058C194.046 274.253 196.5 272.002 198.616 272.043C200.649 272.064 202.682 271.947 204.7 271.691C204.754 271.252 204.781 270.813 204.801 270.339C202.75 270.616 200.685 270.767 198.616 270.792Z" fill="#263238"/>
<path d="M229.022 278.722C229.032 279.8 228.925 280.877 228.704 281.933C228.37 283.813 227.324 285.493 225.784 286.624C224.36 287.434 222.751 287.86 221.113 287.861C219.676 288.015 218.223 287.865 216.847 287.422C215.807 287.05 214.925 286.335 214.346 285.394C214.346 285.394 214.346 285.434 214.346 285.448C214.547 286.142 214.913 286.778 215.413 287.299C215.914 287.821 216.533 288.213 217.219 288.442C218.597 288.886 220.052 289.036 221.491 288.882C223.127 288.882 224.735 288.456 226.156 287.645C227.699 286.518 228.75 284.841 229.09 282.96C229.31 281.904 229.417 280.828 229.407 279.749C229.414 279.012 229.57 278.283 229.866 277.608C230.162 276.933 230.593 276.325 231.131 275.821C231.395 275.576 231.645 275.316 231.882 275.044C232.048 274.854 232.175 274.632 232.254 274.391C232.333 274.151 232.362 273.897 232.341 273.645C232.341 273.451 232.321 273.255 232.28 273.057C231.888 273.516 230.976 274.598 230.746 274.814C230.21 275.316 229.781 275.92 229.485 276.592C229.188 277.263 229.031 277.988 229.022 278.722Z" fill="#263238"/>
<path d="M220.924 267.527C221.271 269.731 220.985 271.989 220.099 274.037C219.208 276.073 218.049 277.981 216.651 279.709C215.968 280.526 215.364 281.407 214.846 282.338C214.342 283.264 214.161 284.333 214.333 285.373C214.911 286.314 215.794 287.03 216.834 287.401C218.209 287.845 219.662 287.995 221.099 287.841C222.74 287.848 224.354 287.429 225.784 286.624C227.328 285.498 228.378 283.82 228.718 281.939C228.939 280.884 229.045 279.807 229.036 278.728C229.042 277.991 229.198 277.263 229.494 276.588C229.791 275.912 230.221 275.305 230.759 274.801C230.989 274.585 231.902 273.503 232.294 273.043C232.078 271.437 231.538 269.891 230.705 268.501L220.924 267.527Z" fill="#37474F"/>
<path d="M192.761 175.206C192.761 175.206 190.138 207.992 190.368 217.118C190.598 226.244 191.558 262.274 191.558 262.274C196.919 265.262 204.666 263.038 204.666 263.038C205.294 234.268 208.14 228.082 206.207 217.55C207.559 209.736 209.459 191.517 209.459 191.517C212.129 213.427 214.069 224.716 214.069 224.716L220.45 268.575C225.689 271.177 232.301 268.575 232.301 268.575C232.301 243.563 232.868 232.997 230.131 216.523C230.109 201.947 229.206 187.387 227.427 172.921L192.761 175.206Z" fill="#455A64"/>
<path opacity="0.2" d="M199.096 183.676C200.927 187.941 206.66 187.941 206.66 187.941L207.687 192.802L207.302 210.067C208.404 201.671 209.459 191.511 209.459 191.511L208.749 186.319C205.329 186.514 201.939 185.586 199.096 183.676Z" fill="black"/>
<path d="M201.509 124.384C192.552 124.384 191.085 127.865 188.82 133.638C186.556 139.412 184.805 149.721 184.805 149.721L193.464 147.855L196.844 128.352L201.509 124.384Z" fill="#455A64"/>
<path d="M193.464 146.442C191.2 146.287 188.933 146.699 186.867 147.638C186.048 147.965 185.322 148.488 184.751 149.159C184.473 149.501 184.293 149.911 184.228 150.346C184.164 150.782 184.219 151.226 184.386 151.634C183.561 153.148 183.635 155.399 183.804 157.251C183.821 157.609 183.899 157.961 184.034 158.292C184.105 158.455 184.211 158.6 184.344 158.716C184.477 158.833 184.635 158.919 184.805 158.968L193.464 151.181V146.442Z" fill="#37474F"/>
<path opacity="0.2" d="M190.497 148.362C187.421 148.118 185.197 149.889 184.197 150.795C184.199 151.085 184.264 151.371 184.386 151.633C185.096 150.559 188.117 148.605 190.497 148.362Z" fill="black"/>
<path opacity="0.2" d="M187.137 151.296C189.06 150.187 191.245 149.613 193.464 149.633V148.916C191.145 148.962 188.912 149.802 187.137 151.296Z" fill="black"/>
<path d="M226.332 124.952L222.127 124.506L201.509 124.364C194.282 124.364 193.356 133.253 192.944 141.122C192.532 148.99 193.857 164.816 192.065 175.388L200.671 180.945L203.084 178.342L206.937 181.932C220.018 181.932 227.724 174.672 228.704 173.421L226.332 124.952Z" fill="#E53F3F"/>
<path opacity="0.2" d="M226.332 124.952L222.127 124.506L201.509 124.364C194.282 124.364 193.356 133.253 192.944 141.122C192.532 148.99 193.857 164.816 192.065 175.388L200.671 180.945L203.084 178.342L206.937 181.932C220.018 181.932 227.724 174.672 228.704 173.421L226.332 124.952Z" fill="white"/>
<path d="M204.875 127.088C202.949 133.226 204.159 141.784 204.875 145.631C209.763 138.918 214.339 132.178 215.766 129.542L208.952 126.236L204.875 127.088Z" fill="#455A64"/>
<path opacity="0.2" d="M204.226 146.104L202.009 149.078C201.402 149.893 201.103 150.897 201.164 151.911L202.651 176.646L200.096 152.1C200.023 151.41 200.118 150.713 200.374 150.067C200.629 149.422 201.037 148.849 201.563 148.396L204.226 146.104Z" fill="black"/>
<path d="M226.332 124.952L229.13 125.398C230.782 125.664 232.314 126.426 233.522 127.585C234.729 128.743 235.556 130.241 235.89 131.881C237.456 139.689 238.066 147.659 237.709 155.615L224.946 149.734C223.58 139.756 220.957 131.516 226.332 124.952Z" fill="#455A64"/>
<path d="M224.5 150.119C224.5 150 224.523 149.882 224.569 149.772C224.615 149.662 224.683 149.562 224.768 149.479C224.853 149.395 224.953 149.329 225.064 149.285C225.175 149.24 225.293 149.219 225.412 149.22C231.192 149.295 236.803 152.046 238.337 155.304C238.687 156.316 238.687 157.416 238.337 158.427C239.365 159.779 238.831 160.455 238.29 161.422C237.749 162.389 238.56 164.579 236.816 164.478L237.222 163.646C233.768 156.947 225.054 154.182 225.054 154.182L225.007 153.074C225.001 152.973 224.975 152.875 224.931 152.784C224.887 152.693 224.826 152.613 224.75 152.546C224.671 152.474 224.608 152.387 224.564 152.289C224.521 152.191 224.499 152.085 224.5 151.978V150.119Z" fill="#37474F"/>
<path opacity="0.2" d="M231.036 152.877C233.87 154.119 236.372 156.011 238.337 158.4C238.449 158.059 238.528 157.708 238.574 157.352C237.614 156.156 235.539 153.952 231.036 152.877Z" fill="black"/>
<path opacity="0.2" d="M224.533 152.188C224.575 152.32 224.649 152.438 224.75 152.533C224.825 152.599 224.887 152.68 224.931 152.771C224.975 152.861 225.001 152.959 225.007 153.06V153.148C229.047 153.772 232.783 155.666 235.674 158.556C233.004 154.682 227.136 152.695 224.533 152.188Z" fill="black"/>
<path d="M225.054 154.169L225.007 153.148C215.218 149.768 197.967 150.444 192.91 150.376C189.192 150.376 183.994 156.318 184.379 158.671C184.764 161.023 184.805 163.045 189.348 163.403C192.559 163.606 198.744 162.375 198.744 162.375C215.799 167.614 232.253 166.688 234.802 166.222C236.019 166.046 236.83 164.424 236.83 164.424L237.235 163.592C233.768 156.92 225.054 154.169 225.054 154.169Z" fill="#9C5C5C"/>
<path d="M231.53 159.022C231.271 158.172 230.861 157.375 230.32 156.67C228.663 155.643 226.897 154.804 225.054 154.169L225.007 153.148L224.371 152.938L224.5 154.202C221.715 154.392 205.389 161.071 198.744 162.402C200.049 162.801 201.34 163.159 202.624 163.491C210.06 160.915 220.281 155.845 225.007 155.115C228.299 155.96 229.989 156.832 231.53 159.022Z" fill="#803E3E"/>
<path d="M223.371 106.605C224.391 103.185 224.168 99.2502 222.12 96.3231C220.772 94.4647 218.883 93.0672 216.712 92.3212C214.54 91.5817 212.241 91.2852 209.952 91.4492C208.147 91.4833 206.371 91.91 204.747 92.6998C203.774 93.2187 202.914 93.9243 202.214 94.7762C201.515 95.6281 200.991 96.6096 200.671 97.6645C200.351 98.7194 200.243 99.8269 200.352 100.924C200.461 102.021 200.785 103.085 201.306 104.057C202.182 105.551 203.328 106.869 204.686 107.944C207.31 110.188 210.192 112.113 213.271 113.676C214.042 114.068 214.826 114.433 215.617 114.778C216.151 115.015 217.172 115.677 217.773 115.555C218.375 115.434 219.01 114.305 219.375 113.845C219.896 113.169 220.403 112.493 220.863 111.817C221.948 110.211 222.793 108.455 223.371 106.605Z" fill="#263238"/>
<path d="M207.721 132.739L206.045 132.341C205.233 134.487 204.556 136.681 204.017 138.911C204.193 141.179 204.489 143.435 204.902 145.671C205.862 144.353 206.809 143.042 207.721 141.75C207.418 138.754 207.418 135.735 207.721 132.739Z" fill="#E53F3F"/>
<path opacity="0.2" d="M207.688 133.098C207.688 132.976 207.688 132.854 207.688 132.739L206.011 132.341C206.011 132.341 205.97 132.435 205.916 132.591C206.186 132.836 206.514 133.009 206.87 133.091C207.139 133.145 207.417 133.147 207.688 133.098Z" fill="black"/>
<path d="M208.627 128.339L209.979 127.487L213.062 129.163C212.009 129.977 210.749 130.478 209.425 130.61L208.627 128.339Z" fill="#E53F3F"/>
<path d="M206.586 128.007L206.18 127.088L204.625 128.061C204.793 128.652 205.149 129.172 205.639 129.542L206.586 128.007Z" fill="#E53F3F"/>
<path opacity="0.2" d="M208.627 128.339L209.979 127.487L213.062 129.163C212.009 129.977 210.749 130.478 209.425 130.61L208.627 128.339Z" fill="black"/>
<path opacity="0.2" d="M206.586 128.007L206.18 127.088L204.625 128.061C204.793 128.652 205.149 129.172 205.639 129.542L206.586 128.007Z" fill="black"/>
<path d="M209.398 130.61C209.265 129.816 209.005 129.049 208.627 128.339L206.599 128.008C206.225 128.486 205.908 129.005 205.653 129.556C205.607 130.501 205.745 131.447 206.058 132.341C206.576 132.609 207.152 132.746 207.735 132.74C208.498 132.221 209.08 131.476 209.398 130.61Z" fill="#E53F3F"/>
<path d="M218.03 112.547V121.883C216.171 124.445 208.364 127.696 207.89 127.615C207.322 127.521 207.89 122.491 207.89 122.052V118.3C209.405 118.07 210.899 117.806 212.237 117.522C213.545 117.251 214.763 116.653 215.776 115.783C216.789 114.912 217.565 113.799 218.03 112.547Z" fill="#9C5C5C"/>
<path d="M211.311 119.706C210.201 119.993 209.071 120.195 207.931 120.308V118.28C209.445 118.05 210.939 117.786 212.278 117.502C213.498 117.247 214.64 116.705 215.61 115.921C216.58 115.137 217.349 114.133 217.855 112.993C217.606 114.566 216.901 116.03 215.827 117.205C214.573 118.429 213.014 119.293 211.311 119.706Z" fill="#803E3E"/>
<path d="M202.077 97.8442C203.607 99.3188 205.631 100.172 207.755 100.237C209.783 100.237 211.689 99.5951 213.616 99.0678C213.797 100.006 214.271 100.862 214.968 101.515C215.735 102.166 216.674 102.579 217.672 102.705C217.392 104.496 217.392 106.321 217.672 108.113C217.695 108.302 217.771 108.48 217.891 108.628C218.01 108.776 218.168 108.888 218.348 108.951C219.024 109.14 219.43 108.478 219.741 107.937C220.077 107.307 220.562 106.769 221.153 106.369C221.448 106.169 221.787 106.046 222.141 106.009C222.495 105.972 222.852 106.024 223.181 106.159C223.441 106.291 223.67 106.475 223.855 106.699C224.04 106.924 224.176 107.184 224.256 107.464C224.414 108.027 224.444 108.618 224.344 109.194C224.222 110.16 223.834 111.073 223.222 111.831C222.913 112.205 222.532 112.512 222.101 112.734C221.67 112.956 221.198 113.088 220.714 113.122C220.242 113.163 219.768 113.074 219.344 112.864C218.92 112.654 218.561 112.332 218.307 111.932L218.26 112.108C218.194 112.394 218.106 112.674 217.997 112.946C217.57 114.08 216.865 115.087 215.945 115.875C215.026 116.664 213.923 117.207 212.737 117.455C211.514 117.712 210.155 117.955 208.776 118.131C208.1 118.232 207.424 118.334 206.748 118.415C205.494 118.565 204.23 118.228 203.217 117.473C202.205 116.718 201.521 115.604 201.306 114.359C200.387 109.188 200.096 103.056 202.077 97.8442Z" fill="#9C5C5C"/>
<path d="M198.392 103.658V104.902L198.697 105.077C198.866 105.885 198.961 106.706 198.981 107.531C199.001 108.334 199.302 109.105 199.832 109.708C200.488 110.192 201.299 110.416 202.11 110.337C202.758 110.395 203.41 110.295 204.01 110.046C204.709 109.63 205.226 108.967 205.457 108.187C205.734 107.41 205.686 106.957 206.024 106.017C206.067 105.89 206.149 105.78 206.258 105.702C206.368 105.624 206.499 105.583 206.633 105.584C206.777 105.575 206.92 105.612 207.042 105.69C207.164 105.767 207.257 105.882 207.309 106.017C207.667 106.957 207.62 107.41 207.911 108.187C208.171 108.981 208.725 109.646 209.459 110.046C210.104 110.294 210.797 110.393 211.487 110.337C212.346 110.418 213.208 110.196 213.92 109.708C214.483 109.121 214.806 108.344 214.826 107.531C214.849 106.705 214.95 105.884 215.13 105.077L215.461 104.902V103.658C214.134 103.107 212.69 102.895 211.26 103.04C209.83 103.185 208.458 103.683 207.268 104.489H206.079C204.985 103.683 203.698 103.182 202.348 103.036C200.998 102.89 199.633 103.104 198.392 103.658ZM207.856 104.881C209.111 104.094 210.56 103.673 212.041 103.665C212.742 103.665 213.44 103.76 214.116 103.948C214.17 104.895 214.204 106.206 214.164 106.801C214.164 107.017 214.164 107.234 214.116 107.443C214.115 108.086 213.874 108.706 213.44 109.181C212.84 109.569 212.124 109.741 211.412 109.667H211.142C210.646 109.696 210.15 109.616 209.688 109.431C209.105 109.105 208.666 108.571 208.458 107.937C208.17 107.176 207.971 106.384 207.863 105.578L207.816 105.131C207.816 105.131 207.823 104.922 207.89 104.881H207.856ZM199.562 103.948C200.194 103.761 200.85 103.665 201.509 103.665C202.903 103.675 204.262 104.099 205.416 104.881C205.484 104.922 205.463 105.131 205.463 105.131L205.423 105.578C205.322 106.382 205.133 107.173 204.862 107.937C204.677 108.56 204.268 109.092 203.713 109.431C203.287 109.614 202.824 109.696 202.361 109.667H202.124C201.457 109.737 200.788 109.564 200.238 109.181C199.81 108.703 199.569 108.085 199.562 107.443C199.562 107.234 199.562 107.017 199.515 106.801C199.515 106.206 199.548 104.895 199.596 103.948H199.562Z" fill="#37474F"/>
<path d="M215.441 103.658L222.113 106.058C221.633 106.145 221.184 106.354 220.809 106.666C220.734 106.727 215.441 104.902 215.441 104.902V103.658Z" fill="#37474F"/>
<path d="M206.66 105.686L203.294 109.762L206.383 110.851L206.66 105.686Z" fill="#9C5C5C"/>
<path d="M206.66 105.686L203.294 109.762L206.383 110.851L206.66 105.686Z" fill="#803E3E"/>
<path d="M211.412 106.193C211.414 106.376 211.36 106.556 211.259 106.709C211.158 106.862 211.014 106.982 210.845 107.053C210.676 107.124 210.49 107.144 210.31 107.109C210.13 107.074 209.964 106.986 209.834 106.857C209.703 106.728 209.615 106.563 209.578 106.383C209.542 106.203 209.56 106.016 209.63 105.847C209.7 105.677 209.818 105.532 209.971 105.43C210.123 105.328 210.303 105.273 210.486 105.273C210.607 105.273 210.728 105.296 210.84 105.341C210.952 105.387 211.054 105.455 211.141 105.54C211.227 105.626 211.295 105.727 211.342 105.839C211.388 105.951 211.412 106.072 211.412 106.193Z" fill="#263238"/>
<path d="M203.652 105.943C203.653 106.126 203.6 106.305 203.499 106.458C203.399 106.611 203.255 106.731 203.086 106.802C202.918 106.874 202.732 106.893 202.552 106.859C202.372 106.825 202.206 106.738 202.076 106.609C201.945 106.48 201.856 106.316 201.819 106.137C201.782 105.957 201.799 105.771 201.867 105.601C201.936 105.431 202.054 105.286 202.206 105.183C202.357 105.08 202.536 105.025 202.719 105.023C202.841 105.022 202.961 105.045 203.074 105.091C203.187 105.137 203.289 105.204 203.376 105.29C203.462 105.375 203.531 105.477 203.579 105.589C203.626 105.701 203.651 105.821 203.652 105.943Z" fill="#263238"/>
<path d="M204.152 101.839L201.678 102.123C201.723 101.858 201.846 101.612 202.031 101.417C202.217 101.222 202.456 101.086 202.719 101.028C203.01 101.016 203.298 101.085 203.552 101.229C203.805 101.372 204.013 101.584 204.152 101.839Z" fill="#263238"/>
<path d="M209.56 102.076H212.048C211.976 101.817 211.826 101.586 211.617 101.415C211.409 101.245 211.153 101.143 210.885 101.123C210.597 101.144 210.321 101.243 210.087 101.412C209.853 101.58 209.671 101.81 209.56 102.076Z" fill="#263238"/>
<path d="M209.939 112.486L206.383 113.568C206.608 113.986 206.964 114.32 207.395 114.519C207.827 114.718 208.311 114.771 208.776 114.67C209.648 114.447 210.047 113.385 209.939 112.486Z" fill="#9C5C5C"/>
<path d="M209.939 112.486L206.383 113.568C206.608 113.986 206.964 114.32 207.395 114.519C207.827 114.718 208.311 114.771 208.776 114.67C209.648 114.447 210.047 113.385 209.939 112.486Z" fill="#5E2828"/>
<path d="M207.613 114.616C207.986 114.751 208.39 114.775 208.776 114.683C209.106 114.559 209.392 114.34 209.598 114.054C209.803 113.768 209.92 113.427 209.932 113.074C209.466 113.008 208.991 113.096 208.58 113.324C208.099 113.61 207.752 114.074 207.613 114.616Z" fill="#9C5C5C"/>
<path d="M207.613 114.616C207.986 114.751 208.39 114.775 208.776 114.683C209.106 114.559 209.392 114.34 209.598 114.054C209.803 113.768 209.92 113.427 209.932 113.074C209.466 113.008 208.991 113.096 208.58 113.324C208.099 113.61 207.752 114.074 207.613 114.616Z" fill="#803E3E"/>
<path d="M207.911 127.615C211.149 127.561 213.129 130.144 216.09 130.995L222.127 124.479L219.788 121.004C219.319 120.312 218.711 119.725 218.003 119.28V120.538C217.996 120.906 217.894 121.266 217.707 121.584C217.52 121.901 217.254 122.165 216.935 122.349L207.911 127.615Z" fill="#37474F"/>
<path d="M207.911 127.615C206.112 127.061 203.422 129.312 203.422 129.312C204.362 124.1 207.208 122.052 207.904 122.052L207.911 127.615Z" fill="#37474F"/>
</svg>
