<svg width="15" height="16" viewBox="0 0 15 16" fill="none" xmlns="http://www.w3.org/2000/svg">
<path d="M5.28761 5.46798L4.95861 5.51809L0.862352 6.14204L0.861877 6.14211C0.763481 6.15702 0.679727 6.22549 0.641745 6.34778C0.60353 6.47082 0.630025 6.59626 0.717691 6.68544L0.717864 6.68562L3.68141 9.70282L3.90372 9.92916L3.85224 10.2422L3.15137 14.504C3.15136 14.504 3.15135 14.5041 3.15134 14.5042C3.12787 14.6479 3.18578 14.758 3.26975 14.8213C3.35281 14.8838 3.44476 14.8921 3.53268 14.8434L3.53467 14.8423L7.19915 12.8299L7.5 12.6646L7.80085 12.8299L11.4653 14.8423L11.4654 14.8424C11.5542 14.8911 11.6474 14.8825 11.7307 14.8198C11.8144 14.7569 11.8721 14.6477 11.8487 14.5042C11.8487 14.5041 11.8486 14.504 11.8486 14.504L11.1478 10.2422L11.0963 9.92916L11.3186 9.70282L14.2821 6.68562L14.2823 6.68544C14.37 6.59626 14.3965 6.47082 14.3583 6.34778C14.3203 6.22549 14.2365 6.15702 14.1381 6.14211L14.1376 6.14204L10.0414 5.51809L9.71239 5.46798L9.57032 5.16702L7.74002 1.28972C7.73996 1.28961 7.7399 1.28949 7.73985 1.28937C7.68328 1.17047 7.58846 1.12531 7.49891 1.125C7.41131 1.1247 7.31805 1.16704 7.26052 1.28859L5.28761 5.46798ZM5.28761 5.46798L5.42968 5.16702L7.26041 1.28882L5.28761 5.46798Z" stroke="#494949" stroke-width="1.25"/>
</svg>
