<svg width="96" height="96" viewBox="0 0 96 96" fill="none" xmlns="http://www.w3.org/2000/svg">
<path d="M65.5567 29.4942L65.8069 29.244L65.6541 28.9248C64.9334 27.4189 64.5 25.7633 64.5 24C64.5 17.6601 69.6601 12.5 76 12.5C82.3399 12.5 87.5 17.6601 87.5 24C87.5 30.3399 82.3399 35.5 76 35.5C74.2366 35.5 72.5811 35.0666 71.0752 34.3459L70.7561 34.1931L70.5058 34.4433L57.3027 47.6464L56.9491 48L57.3027 48.3536L70.5058 61.5567L70.7561 61.8069L71.0752 61.6541C72.5811 60.9334 74.2366 60.5 76 60.5C82.3399 60.5 87.5 65.6601 87.5 72C87.5 78.3399 82.3399 83.5 76 83.5C69.6601 83.5 64.5 78.3399 64.5 72C64.5 70.2367 64.9334 68.5811 65.6541 67.0752L65.8069 66.7561L65.5567 66.5058L50.6973 51.6464L50.5509 51.5H50.3438H31.2656H30.9131L30.7947 51.832C29.205 56.2881 24.9845 59.5 20 59.5C13.6601 59.5 8.5 54.3399 8.5 48C8.5 41.6601 13.6601 36.5 20 36.5C24.9845 36.5 29.205 39.7119 30.7947 44.168L30.9131 44.5H31.2656H50.3438H50.5509L50.6973 44.3536L65.5567 29.4942Z" stroke="#494949"/>
</svg>
