<svg width="283" height="223" viewBox="0 0 283 223" fill="none" xmlns="http://www.w3.org/2000/svg">
<path d="M96.219 109.751L96.0916 109.451C96.0916 109.451 96.7447 109.17 97.9334 108.762L98.0411 109.069C96.8688 109.477 96.2255 109.748 96.219 109.751Z" fill="#F20000"/>
<path d="M205.454 122.856C204.171 122.856 202.842 122.804 201.513 122.738V122.412C202.842 122.474 204.164 122.516 205.431 122.526L205.454 122.856ZM209.399 122.804V122.477C210.738 122.428 212.057 122.346 213.318 122.229L213.347 122.555C212.067 122.673 210.744 122.755 209.399 122.804ZM197.578 122.477C196.301 122.369 194.982 122.239 193.659 122.085L193.698 121.759C195.005 121.909 196.334 122.039 197.617 122.147L197.578 122.477ZM217.249 122.072L217.2 121.746C218.529 121.537 219.813 121.282 221.047 120.988L221.122 121.315C219.891 121.605 218.588 121.86 217.249 122.072ZM189.75 121.582C188.474 121.399 187.164 121.197 185.858 120.978L185.913 120.652C187.22 120.87 188.526 121.076 189.796 121.256L189.75 121.582ZM181.982 120.276C180.718 120.034 179.418 119.773 178.119 119.499L178.187 119.172C179.493 119.447 180.78 119.708 182.04 119.95L181.982 120.276ZM224.917 120.204L224.809 119.894C225.92 119.516 227.01 119.08 228.075 118.588L228.434 118.415L228.581 118.705L228.212 118.885C227.137 119.383 226.037 119.825 224.917 120.211V120.204ZM174.272 118.643C173.005 118.346 171.715 118.036 170.445 117.716L170.523 117.389C171.793 117.716 173.08 118.02 174.347 118.314L174.272 118.643ZM166.634 116.72C165.981 116.544 165.347 116.368 164.733 116.194C164.119 116.02 163.489 115.838 162.842 115.649L162.934 115.322C163.561 115.507 164.19 115.689 164.821 115.868C165.453 116.046 166.085 116.22 166.719 116.39L166.634 116.72ZM231.886 116.524L231.677 116.276C232.674 115.439 233.578 114.497 234.374 113.467L234.632 113.667C233.822 114.718 232.902 115.678 231.886 116.531V116.524ZM159.084 114.467C157.869 114.065 156.615 113.631 155.361 113.177L155.472 112.87C156.723 113.321 157.973 113.755 159.185 114.157L159.084 114.467ZM151.674 111.789C150.61 111.374 149.506 110.93 148.409 110.483L148.03 110.326L148.154 110.026L148.533 110.179C149.64 110.636 150.74 111.077 151.798 111.485L151.674 111.789ZM236.719 110.3L236.425 110.156C236.829 109.326 237.171 108.467 237.45 107.586C237.189 107.632 236.931 107.678 236.679 107.717L236.627 107.39C236.931 107.345 237.241 107.289 237.558 107.23C237.63 106.985 237.698 106.74 237.76 106.496L238.087 106.574C238.038 106.77 237.982 106.966 237.927 107.162C238.743 106.998 239.595 106.803 240.467 106.574L240.549 106.9C239.612 107.149 238.697 107.358 237.822 107.527C237.525 108.48 237.156 109.409 236.719 110.306V110.3ZM144.337 108.958C143.102 108.537 141.838 108.148 140.584 107.802L140.673 107.475C141.933 107.821 143.2 108.213 144.441 108.634L144.337 108.958ZM232.735 108.056C231.411 108.067 230.092 107.894 228.816 107.541L228.907 107.214C230.157 107.562 231.45 107.731 232.748 107.717L232.735 108.056ZM101.787 107.916L101.702 107.59C102.946 107.263 104.233 106.936 105.532 106.652L105.601 106.979C104.311 107.263 103.028 107.576 101.79 107.916H101.787ZM136.777 106.861C135.51 106.587 134.21 106.345 132.92 106.14L132.969 105.813C134.275 106.016 135.582 106.26 136.849 106.538L136.777 106.861ZM109.461 106.254L109.408 105.927C110.698 105.718 112.021 105.539 113.327 105.395L113.363 105.722C112.057 105.865 110.747 106.045 109.464 106.254H109.461ZM244.327 105.758L244.223 105.451C244.628 105.313 245.039 105.17 245.457 105.02C246.28 104.726 247.09 104.409 247.896 104.076L248.024 104.376C247.22 104.703 246.391 105.029 245.568 105.327C245.137 105.477 244.722 105.62 244.317 105.758H244.327ZM129.054 105.637C127.748 105.503 126.441 105.408 125.135 105.346L125.152 105.02C126.458 105.082 127.787 105.18 129.07 105.31L129.054 105.637ZM225.368 105.594C224.407 104.651 223.703 103.479 223.32 102.188L223.647 102.094C224.013 103.33 224.687 104.454 225.606 105.359L225.368 105.594ZM117.278 105.392L117.259 105.065C118.565 104.99 119.891 104.948 121.2 104.938V105.264C119.888 105.274 118.568 105.317 117.265 105.392H117.278ZM251.609 102.721L251.459 102.43C252.628 101.836 253.778 101.189 254.878 100.51L255.048 100.787C253.928 101.47 252.772 102.12 251.596 102.721H251.609ZM238.639 102.659H238.312C238.312 102.492 238.312 102.332 238.312 102.152C238.313 101.021 238.197 99.893 237.966 98.7857L238.292 98.7203C238.529 99.849 238.647 100.999 238.645 102.152C238.635 102.316 238.632 102.489 238.626 102.659H238.639ZM258.304 98.5799L258.111 98.3154C259.162 97.5382 260.188 96.712 261.161 95.8565L261.377 96.1014C260.4 96.9635 259.365 97.7962 258.304 98.5799ZM223.186 98.273L222.86 98.2403C222.999 96.9052 223.438 95.619 224.146 94.4784L224.424 94.6515C223.742 95.749 223.32 96.9876 223.189 98.273H223.186ZM236.705 95.1021C236.169 93.926 235.371 92.8874 234.374 92.0652L234.576 91.8072C235.611 92.6607 236.439 93.7383 236.996 94.9584L236.705 95.1021ZM264.224 93.3616L263.986 93.1363C264.887 92.1909 265.738 91.199 266.536 90.1646L266.797 90.3638C265.993 91.4067 265.135 92.4073 264.227 93.3616H264.224ZM227.15 91.9803L226.987 91.6994C227.832 91.2026 228.761 90.864 229.727 90.7002C230.083 90.6393 230.443 90.6032 230.805 90.5924V90.919C230.46 90.9289 230.116 90.9638 229.776 91.0235C228.851 91.1796 227.962 91.5039 227.154 91.9803H227.15ZM269.005 87.082L268.724 86.9187C269.38 85.7925 269.947 84.6166 270.419 83.4017L270.723 83.5193C270.246 84.7513 269.673 85.9437 269.008 87.0852L269.005 87.082ZM271.8 79.7084L271.474 79.6529C271.675 78.5496 271.777 77.4305 271.777 76.309C271.777 76.1283 271.777 75.9487 271.777 75.7702H272.104C272.104 75.953 272.104 76.1359 272.104 76.3188C272.104 77.4564 272.004 78.5918 271.803 79.7117L271.8 79.7084ZM271.258 71.9103C270.955 70.6434 270.538 69.4062 270.014 68.2137L270.311 68.0831C270.846 69.295 271.27 70.5531 271.578 71.8417L271.258 71.9103ZM268.179 64.7621L268.113 64.6543L264.962 62.6493L265.138 62.3717L268.368 64.4486L268.456 64.589L268.179 64.7621ZM261.648 60.5169L258.33 58.4008L258.506 58.1265L261.824 60.2426L261.648 60.5169ZM255.012 56.288L251.694 54.2079L251.871 53.9303L255.188 56.0464L255.012 56.288ZM248.376 52.0428L245.059 49.9627L245.235 49.6884L248.553 51.8044L248.376 52.0428ZM241.741 47.8139L238.423 45.7175L238.596 45.4399L241.914 47.556L241.741 47.8139ZM81.3836 47.667C80.0578 47.6474 78.732 47.6082 77.4454 47.5494L77.4617 47.2229C78.7451 47.2817 80.0742 47.3208 81.3804 47.3404L81.3836 47.667ZM85.3219 47.667V47.3404C86.6281 47.3208 87.9343 47.2784 89.2405 47.2196V47.5462C87.9441 47.6343 86.6183 47.6768 85.3219 47.6964V47.667ZM93.1951 47.3502L93.1722 47.0237C94.4784 46.9322 95.7846 46.8212 97.0908 46.6971L97.1235 47.0237C95.8173 47.1445 94.4947 47.2555 93.1951 47.3502ZM73.5137 47.3339C72.1912 47.2261 70.8719 47.0955 69.5951 46.942L69.631 46.6155C70.9078 46.7657 72.2205 46.8996 73.5496 47.0074L73.5137 47.3339ZM101.039 46.5894L101 46.2628C102.29 46.1061 103.612 45.9363 104.899 45.7403L104.944 46.0669C103.648 46.253 102.332 46.4294 101.039 46.5861V46.5894ZM65.6895 46.3967C64.3833 46.1877 63.077 45.9493 61.8133 45.6881L61.8786 45.3615C63.1391 45.6195 64.4388 45.8579 65.7417 46.0669L65.6895 46.3967ZM108.837 45.4497L108.785 45.1231C110.091 44.9043 111.381 44.666 112.654 44.4178L112.716 44.7443C111.443 44.986 110.137 45.2244 108.837 45.4464V45.4497ZM57.973 44.7966C56.6831 44.47 55.4096 44.1043 54.1785 43.719L54.2764 43.4087C55.501 43.7908 56.7713 44.1533 58.0547 44.4798L57.973 44.7966ZM116.58 43.9345L116.508 43.6079C117.85 43.3108 119.14 43.0071 120.335 42.7001L120.417 43.0267C119.215 43.3304 117.922 43.6341 116.58 43.9345ZM235.118 43.6079L231.801 41.4919L231.977 41.2176L235.295 43.3336L235.118 43.6079ZM50.4492 42.4519C49.2083 41.985 47.9805 41.4723 46.8016 40.9531L46.9355 40.6559C48.1078 41.1816 49.3292 41.6813 50.5635 42.1482L50.4492 42.4519ZM124.221 42.0144L124.136 41.6878C125.4 41.3612 126.683 41.0184 127.947 40.7081L128.028 41.0347C126.765 41.3286 125.481 41.6617 124.221 41.998V42.0144ZM131.849 40.0975L131.774 39.7709C133.041 39.4705 134.334 39.1766 135.614 38.8958L135.683 39.2223C134.406 39.4901 133.116 39.784 131.849 40.0812V40.0975ZM228.466 39.4019L225.149 37.2859L225.325 37.0116L228.643 39.1244L228.466 39.4019ZM139.53 38.4223L139.464 38.0957C140.748 37.8345 142.051 37.5798 143.328 37.3381L143.39 37.6647C142.113 37.8802 140.813 38.1316 139.53 38.3929V38.4223ZM147.276 36.9397L147.22 36.6132C148.5 36.3944 149.806 36.1788 151.106 35.9601L151.155 36.2866C149.842 36.5021 148.536 36.7177 147.276 36.9397ZM221.638 35.8392C220.446 35.6172 219.14 35.4016 217.759 35.1861L217.808 34.8596C219.192 35.0653 220.502 35.2808 221.697 35.5127L221.638 35.8392ZM155.044 35.7184L154.999 35.3919C156.305 35.209 157.611 35.0359 158.917 34.8726L158.956 35.1992C157.634 35.3625 156.321 35.5355 155.028 35.7184H155.044ZM162.849 34.7387L162.813 34.4122C164.119 34.2685 165.425 34.1346 166.732 34.0138L166.761 34.3404C165.448 34.4644 164.132 34.6147 162.833 34.742L162.849 34.7387ZM213.863 34.6702C212.583 34.5134 211.251 34.3697 209.944 34.2391L209.977 33.9126C211.283 34.0399 212.609 34.1869 213.896 34.3436L213.863 34.6702ZM170.68 34.0007L170.654 33.6742C171.96 33.573 173.266 33.4783 174.572 33.3999L174.592 33.7264C173.279 33.8113 171.956 33.9028 170.663 34.004L170.68 34.0007ZM206.036 33.8962C204.752 33.795 203.423 33.7068 202.117 33.6285L202.137 33.3019C203.443 33.3803 204.778 33.4685 206.055 33.5697L206.036 33.8962ZM178.53 33.5142V33.1876C179.836 33.1256 181.172 33.0766 182.449 33.0374V33.364C181.149 33.4097 179.826 33.4587 178.514 33.5174L178.53 33.5142ZM198.185 33.4391C196.879 33.3868 195.573 33.3476 194.267 33.3182V32.9917C195.573 33.0211 196.908 33.0603 198.185 33.1125V33.4391ZM186.39 33.2856V32.959C187.731 32.9394 189.044 32.9394 190.328 32.959V33.2856C189.033 33.2703 187.715 33.2714 186.374 33.2889L186.39 33.2856Z" fill="#F20000"/>
<path d="M43.2389 39.1864C42.6577 38.8795 42.0797 38.5594 41.518 38.2394L41.6813 37.9553C42.2397 38.2819 42.8144 38.6084 43.3924 38.8991L43.2389 39.1864Z" fill="#F20000"/>
<path d="M78.6243 69.1379L86.5791 61.7806H114.588C116.591 61.7998 118.52 61.0224 119.951 59.6194C121.381 58.2165 122.196 56.3028 122.216 54.2993V31.0944C122.197 29.1281 121.398 27.2498 119.994 25.8726C118.591 24.4954 116.698 23.7319 114.731 23.7502H78.2063C76.1845 23.7311 74.2379 24.5157 72.7946 25.9315C71.3512 27.3473 70.5292 29.2784 70.5094 31.3001V53.9629C70.5196 54.9999 70.734 56.0246 71.1403 56.9787C71.5466 57.9328 72.1369 58.7975 72.8774 59.5234C73.6179 60.2494 74.4942 60.8224 75.4561 61.2097C76.4181 61.597 77.4469 61.791 78.4838 61.7806H78.6243V69.1379Z" fill="white"/>
<path d="M78.4316 69.5754V61.9733C76.2961 61.9777 74.2453 61.1385 72.7255 59.6383C71.2057 58.1381 70.34 56.0983 70.3168 53.9629V31.3001C70.3426 29.2295 71.1869 27.2532 72.6652 25.8031C74.1434 24.353 76.1356 23.5468 78.2063 23.5608H114.731C116.748 23.5443 118.688 24.3281 120.127 25.7404C121.567 27.1527 122.387 29.0781 122.409 31.0944V54.2993C122.398 55.3178 122.187 56.3242 121.787 57.2611C121.387 58.198 120.807 59.0469 120.079 59.7595C119.352 60.4722 118.491 61.0344 117.546 61.4143C116.6 61.7941 115.59 61.984 114.571 61.9733H86.6542L78.4316 69.5754ZM78.2063 23.9429C76.2353 23.9246 74.3375 24.689 72.9294 26.0683C71.5214 27.4476 70.718 29.3292 70.6956 31.3001V53.9629C70.7188 56.0055 71.5511 57.9555 73.0098 59.3855C74.4685 60.8154 76.4347 61.6086 78.4773 61.5912H78.8039V68.7003L86.4942 61.5912H114.578C116.53 61.6078 118.41 60.8495 119.804 59.4826C121.199 58.1157 121.994 56.2518 122.017 54.2993V31.0944C121.996 29.1792 121.216 27.3504 119.848 26.0096C118.481 24.6687 116.637 23.9255 114.721 23.9429H78.2063Z" fill="#F20000"/>
<path d="M109.591 54.4756C109.591 54.4756 113.481 61.5586 117.122 60.1021L120.083 57.3852L121.315 53.8813L115.453 50.028L111.185 50.5178L109.591 54.4756Z" fill="black" fill-opacity="0.9"/>
<path d="M157.902 109.601L165.367 102.564H191.648C193.547 102.564 195.368 101.809 196.711 100.466C198.054 99.1234 198.809 97.3019 198.809 95.4026V73.197C198.809 71.334 198.069 69.5474 196.752 68.2301C195.434 66.9128 193.648 66.1728 191.785 66.1728H157.497C156.548 66.1728 155.609 66.3596 154.732 66.7226C153.856 67.0856 153.06 67.6177 152.389 68.2885C151.718 68.9592 151.186 69.7555 150.823 70.6319C150.46 71.5083 150.273 72.4476 150.273 73.3961V95.076C150.273 97.0602 151.062 98.9631 152.465 100.366C153.868 101.769 155.77 102.557 157.755 102.557H157.889L157.902 109.601Z" fill="white"/>
<path d="M157.725 110.049V102.753C155.702 102.736 153.767 101.921 152.341 100.484C150.916 99.0476 150.115 97.1063 150.113 95.0826V73.4027C150.115 71.437 150.896 69.5522 152.286 68.1619C153.676 66.7716 155.56 65.9893 157.526 65.9867H191.814C193.727 65.9893 195.561 66.7506 196.913 68.1035C198.266 69.4565 199.026 71.2906 199.028 73.2035V95.4091C199.026 97.3585 198.251 99.2275 196.873 100.606C195.495 101.985 193.626 102.761 191.677 102.763H165.442L157.725 110.049ZM157.526 66.3753C155.662 66.377 153.875 67.1183 152.557 68.4364C151.238 69.7546 150.497 71.5419 150.495 73.406V95.0859C150.497 97.0184 151.266 98.8713 152.632 100.238C153.999 101.604 155.851 102.373 157.784 102.375H158.111V109.164L165.311 102.375H191.667C193.515 102.373 195.286 101.638 196.593 100.332C197.899 99.025 198.634 97.2536 198.636 95.4059V73.2003C198.634 71.389 197.914 69.6523 196.633 68.3716C195.352 67.0908 193.616 66.3705 191.804 66.3688L157.526 66.3753Z" fill="#F20000"/>
<path d="M198.809 82.7356V96.9113C198.244 98.7553 197.087 100.362 195.517 101.483C195.517 101.483 194.845 99.8796 193.829 98.0248L193.646 102.564H167.587L166.741 90.8341L159.74 93.7208C159.74 93.7208 155.015 96.0851 152.817 92.8783L146.155 83.3397L151.38 79.3753L156.863 85.1978L163.864 78.4447C163.864 78.4447 169.697 72.3708 178.599 73.2198L184.303 73.3929L190.449 73.899C190.449 73.899 198.048 75.6461 198.809 82.7356Z" fill="#F20000"/>
<path opacity="0.2" d="M193.829 98.0084C193.829 98.0084 194.59 87.9669 196.869 83.4115V100.275C196.467 100.724 196.013 101.124 195.517 101.467L193.829 98.0084Z" fill="black"/>
<path opacity="0.4" d="M171.254 74.0329L180.176 93.8122L191.001 74.0329L190.456 73.8761L188.696 73.7292L180 89.1197L173.423 73.4745C173.423 73.4745 171.767 73.8631 171.254 74.0329Z" fill="white"/>
<path opacity="0.4" d="M173.423 73.4745L179.999 89.1295L188.696 73.739L184.31 73.3798L178.605 73.2067C178.605 73.2067 175.477 72.9324 173.423 73.4745Z" fill="white"/>
<path d="M239.135 65.5197L231.298 72.0834V65.5197H230.971C229.005 65.5197 227.12 64.7387 225.73 63.3485C224.339 61.9584 223.558 60.0729 223.558 58.1069V37.6353C223.558 35.652 224.346 33.7499 225.749 32.3475C227.151 30.9451 229.053 30.1572 231.036 30.1572H263.884C265.805 30.1581 267.647 30.9215 269.005 32.2796C270.363 33.6377 271.127 35.4795 271.127 37.4002V59.2793C271.127 60.9363 270.468 62.5253 269.296 63.6967C268.124 64.8682 266.534 65.5262 264.877 65.5262L239.135 65.5197Z" fill="white"/>
<path d="M231.092 72.4949V65.7124H230.965C228.949 65.7089 227.017 64.9064 225.592 63.4808C224.167 62.0551 223.365 60.1227 223.362 58.1069V37.6353C223.365 35.602 224.174 33.6528 225.612 32.2153C227.05 30.7778 229 29.9696 231.033 29.9678H263.885C265.855 29.9704 267.744 30.7543 269.137 32.1476C270.53 33.5409 271.314 35.4298 271.317 37.4002V59.2793C271.315 60.9866 270.636 62.6236 269.429 63.8309C268.222 65.0381 266.585 65.7172 264.877 65.7189H239.207L231.092 72.4949ZM231.03 30.3499C229.098 30.3525 227.246 31.1208 225.88 32.4864C224.514 33.852 223.745 35.7036 223.741 37.6353V58.1069C223.745 60.0213 224.507 61.8563 225.861 63.2096C227.215 64.563 229.05 65.3244 230.965 65.327H231.477V71.6752L239.066 65.327H264.864C266.47 65.3253 268.009 64.687 269.144 63.5521C270.28 62.4171 270.919 60.8782 270.922 59.2727V37.3937C270.92 35.5243 270.177 33.7321 268.855 32.4103C267.533 31.0885 265.741 30.3451 263.871 30.3434L231.03 30.3499Z" fill="#F20000"/>
<path d="M37.4426 171.486L24.3151 204.031C24.2264 204.251 24.0736 204.441 23.8762 204.574C23.6789 204.707 23.4462 204.779 23.2081 204.778H18.9793C18.8312 204.778 18.6855 204.741 18.5561 204.668C18.4267 204.596 18.3179 204.492 18.2401 204.366C18.1622 204.24 18.1178 204.097 18.1112 203.949C18.1045 203.801 18.1358 203.654 18.2021 203.521L35.1273 169.847C35.8588 170.409 36.6306 170.955 37.4426 171.486Z" fill="#A7A9AC"/>
<path d="M62.8158 179.007L52.8265 203.593C52.7736 203.724 52.7536 203.866 52.7683 204.006C52.7831 204.147 52.8321 204.281 52.9111 204.398C52.9902 204.516 53.0967 204.611 53.2215 204.678C53.3462 204.744 53.4853 204.778 53.6266 204.778H56.8921C57.2513 204.778 57.6009 204.662 57.8883 204.447C58.1756 204.231 58.3853 203.928 58.4857 203.583L65.6078 179.007H62.8158Z" fill="#A7A9AC"/>
<path d="M106.531 204.827C107.704 204.827 109.536 204.827 110.806 204.801C110.959 204.799 111.108 204.758 111.241 204.682C111.373 204.606 111.484 204.498 111.563 204.367C111.641 204.236 111.685 204.087 111.69 203.934C111.694 203.782 111.66 203.631 111.59 203.495L96.4867 173.452L93.5151 175.477L105.003 203.769C105.124 204.077 105.334 204.342 105.606 204.531C105.879 204.719 106.201 204.822 106.531 204.827Z" fill="#A7A9AC"/>
<path d="M23.035 97.179C23.035 97.179 44.4471 103.028 68.217 99.7914C69.0044 99.6779 69.8058 99.8634 70.4634 100.311C71.121 100.759 71.5871 101.437 71.7699 102.211C72.5275 105.552 73.6182 111.763 73.8892 120.639C73.8892 120.639 77.7262 140.699 80.9297 145.342C80.9297 145.342 82.7061 149.166 96.4867 151.08C96.4867 151.08 102.577 152.582 108.997 152.037C108.997 152.037 114.597 150.806 113.369 157.5C113.369 157.5 111.642 175.787 80.6064 180.646L45.688 170.082L23.6163 142.077L20.2006 121.997L23.035 97.179Z" fill="#D1D3D4"/>
<path d="M48.0033 148.392C48.0033 148.392 40.7114 165.889 65.389 168.828H75.2052C75.655 168.827 76.0932 168.97 76.4558 169.237C76.8183 169.503 77.0862 169.878 77.22 170.307C79.0259 176.104 85.8835 197.3 91.3794 204.778L99.4224 203.472C99.4224 203.472 97.29 181.475 94.498 173.926L114.689 193.953L122.898 187.386L103.939 161.859C103.939 161.859 99.9253 153.565 90.6414 151.103L77.6348 145.316L72.8214 141.254L48.0033 148.392Z" fill="black" fill-opacity="0.8"/>
<path d="M93.5151 125.165L92.1174 134.034C89.3287 145.437 85.8835 144.905 85.8835 144.905C85.3084 145.215 84.6346 145.289 84.0058 145.111C83.8594 145.071 83.7154 145.023 83.5748 144.967C83.3477 144.863 83.1293 144.74 82.9217 144.601C82.7261 144.478 82.5395 144.342 82.3633 144.193L82.1575 144.02C81.6946 143.603 81.2685 143.148 80.884 142.658C79.8617 141.331 78.9796 139.902 78.252 138.393C78.1867 138.263 78.1279 138.132 78.0658 137.995C78.0495 137.966 78.0364 137.93 78.0201 137.897C78.0128 137.882 78.0063 137.867 78.0005 137.851C78.0005 137.851 78.0005 137.832 77.9842 137.822C77.9803 137.806 77.9748 137.791 77.9679 137.776C77.8728 137.463 77.7187 137.17 77.514 136.914L77.478 136.878C77.4708 136.862 77.4588 136.848 77.4437 136.839C77.4285 136.83 77.4109 136.825 77.3931 136.826C77.3687 136.806 77.3402 136.792 77.3097 136.785C77.2792 136.778 77.2475 136.777 77.2168 136.783C77.2019 136.779 77.186 136.779 77.1711 136.783C77.1544 136.789 77.1397 136.799 77.1286 136.813C77.1119 136.823 77.0965 136.835 77.0829 136.849C77.067 136.865 77.0528 136.882 77.0405 136.901C77.0237 136.919 77.0095 136.938 76.998 136.96C76.9859 136.979 76.975 136.998 76.9654 137.019C76.9442 137.054 76.9257 137.091 76.9098 137.13C76.8291 137.339 76.7785 137.559 76.7596 137.783C76.7596 137.851 76.7596 137.936 76.7596 138.024V142.668C76.7172 143.896 77.4519 145.045 77.6315 145.31L77.6674 145.359H77.6478C77.514 145.28 77.3801 145.205 77.2429 145.14L77.1417 145.091C75.651 144.422 74.0267 144.103 72.3936 144.16C70.8424 144.184 69.2979 144.371 67.7859 144.719H67.7663C67.1132 144.869 66.4993 145.026 65.9964 145.169C65.4716 145.325 64.9587 145.518 64.4616 145.747H64.4355C64.1285 145.884 63.8314 146.035 63.5309 146.191L63.2403 146.342C61.232 147.321 58.7992 147.883 56.4741 148.177C53.6676 148.511 50.8354 148.577 48.0164 148.373C46.5045 147.938 46.6383 146.253 46.8963 145.186C47.011 144.736 47.1684 144.299 47.3666 143.879C49.6949 138.638 47.8041 127.878 47.8041 127.878C47.151 123.218 47.1021 120.142 47.2392 118.183C47.3635 116.037 48.2971 114.018 49.8516 112.534C53.0453 109.568 55.9451 111.482 55.9451 111.482C64.3179 117.089 74.8852 115.146 74.8852 115.146C75.9073 114.921 76.9294 115.603 77.6478 116.256C78.1522 116.731 78.5914 117.27 78.9541 117.86C80.5509 120.41 82.7355 124.864 83.8524 127.212L83.9569 127.428C84.0973 127.718 84.2148 127.97 84.3128 128.175L84.3585 128.277L84.5316 128.639L84.5904 128.77L85.9848 124.26L93.5151 125.165Z" fill="#F20000"/>
<path d="M86.2177 127.888C85.8715 127.942 85.5787 127.632 85.652 127.29L88.7376 112.876C88.7903 112.638 88.923 112.424 89.1136 112.271C89.3042 112.118 89.5413 112.034 89.7858 112.034H95.4058L92.5485 126.376C92.5175 126.536 92.4383 126.682 92.3214 126.794C92.2045 126.907 92.0558 126.981 91.8954 127.006L86.2177 127.888Z" fill="#5D574F"/>
<path d="M95.4025 112.034L95.5103 111.528C95.5279 111.449 95.5277 111.368 95.5097 111.29C95.4916 111.212 95.4562 111.138 95.406 111.076C95.3558 111.013 95.2922 110.962 95.2198 110.928C95.1474 110.893 95.0681 110.875 94.9878 110.875H89.2731C89.0565 110.875 88.8463 110.948 88.6771 111.084C88.508 111.219 88.3899 111.408 88.3425 111.619L85.2006 126.967C85.097 127.473 85.4835 127.947 86 127.947V127.947L88.7147 112.987C88.7717 112.72 88.919 112.48 89.1318 112.308C89.3447 112.136 89.6102 112.043 89.8838 112.044L95.4025 112.034Z" fill="#363432"/>
<path opacity="0.2" d="M84.0058 145.104C83.8564 145.076 83.7114 145.027 83.5748 144.96C83.3477 144.856 83.1293 144.734 82.9217 144.595C82.7551 144.484 82.5657 144.35 82.3633 144.186L82.1575 144.013C81.7207 143.632 81.3165 143.215 80.9493 142.766L80.8742 142.678C79.8343 141.357 78.9572 139.917 78.2618 138.387C78.1965 138.256 78.1377 138.126 78.0756 137.988C78.0593 137.959 78.0462 137.923 78.0299 137.89C78.0226 137.876 78.0161 137.86 78.0103 137.845C78.0103 137.845 78.0103 137.825 77.994 137.815C77.9901 137.8 77.9846 137.784 77.9777 137.77C77.8833 137.456 77.7292 137.163 77.5238 136.907L77.4878 136.872C77.4791 136.855 77.4651 136.841 77.448 136.833C77.431 136.825 77.4117 136.822 77.3931 136.826C77.3741 136.81 77.3518 136.797 77.3278 136.79H77.2723H77.2168H77.1711L77.1286 136.819L77.0829 136.855L77.0405 136.907C77.0237 136.925 77.0095 136.945 76.998 136.966C76.998 136.986 76.9751 137.002 76.9654 137.025C76.9442 137.061 76.9257 137.098 76.9098 137.136C76.8025 137.337 76.7506 137.562 76.7596 137.789C76.7596 137.858 76.7596 137.943 76.7596 138.031V142.674C76.7396 143.629 77.0473 144.561 77.6315 145.316L77.6674 145.365H77.6478C77.5177 145.284 77.3824 145.211 77.2429 145.146L77.1417 145.097C75.6428 144.454 74.0244 144.137 72.3936 144.167C70.8408 144.167 69.2938 144.354 67.7859 144.725H67.7663C66.6436 144.996 65.5397 145.34 64.4616 145.754H64.4355L63.2403 146.348C63.0934 146.43 60.6932 147.716 56.4741 148.183H56.3435C56.1373 148.184 55.9347 148.13 55.7559 148.027C55.577 147.925 55.4283 147.777 55.3247 147.599C54.1393 145.522 50.7072 138.638 50.3643 127.937C50.3643 127.937 52.8265 140.085 57.3428 143.122C57.3428 143.122 59.6286 144.428 62.8387 142.381C62.8387 142.381 73.432 137.619 77.4519 130.566C76.9438 130.102 76.5253 129.548 76.2175 128.933L76.7857 127.209C77.0029 127.217 77.2192 127.177 77.4191 127.092C77.619 127.007 77.7975 126.878 77.9417 126.716C77.9417 126.716 76.7433 130.902 79.4798 130.657C79.4798 130.657 81.72 130.161 83.8524 127.209L83.9569 127.424L84.3128 128.172L84.3585 128.273L84.5316 128.636L84.5904 128.767L82.7617 136.499C82.7617 136.499 81.56 141.499 84.0058 145.104Z" fill="#231F20"/>
<path opacity="0.2" d="M57.8946 120.652C57.8946 120.652 61.3397 127.382 62.081 132.306C62.081 132.306 67.5573 128.6 71.8025 125.605C73.352 124.515 74.7357 123.206 75.9105 121.719C76.3253 121.194 76.7857 120.609 77.2625 119.995C77.2625 119.995 70.8326 124.567 66.3556 125.563C65.6416 125.719 64.9007 125.699 64.1957 125.507C63.4908 125.315 62.8426 124.956 62.3063 124.459C61.294 123.538 59.6906 122.108 57.8946 120.652Z" fill="#231F20"/>
<path opacity="0.2" d="M57.8946 120.652C57.8946 120.652 60.9577 125.684 63.0117 129.491C63.1217 129.695 63.3076 129.847 63.5289 129.914C63.7502 129.981 63.9892 129.958 64.1938 129.851L70.2089 126.726L62.0843 132.306C62.0843 132.306 61.3397 127.3 57.8946 120.652Z" fill="#231F20"/>
<path opacity="0.2" d="M80.9297 142.766L80.8546 142.678C79.8148 141.357 78.9376 139.917 78.2422 138.387C78.1769 138.256 78.1181 138.126 78.0561 137.988C78.0397 137.959 78.0267 137.923 78.0103 137.89C78.003 137.876 77.9965 137.86 77.9908 137.845C77.9908 137.845 77.9907 137.825 77.9744 137.815C77.9705 137.8 77.965 137.784 77.9581 137.77C77.863 137.456 77.7089 137.163 77.5042 136.907L77.4683 136.872C77.4608 136.858 77.45 136.847 77.4368 136.839C77.4236 136.831 77.4086 136.826 77.3932 136.826C77.3741 136.81 77.3519 136.797 77.3278 136.79H77.2723H77.2168H77.1711L77.1287 136.819L77.0829 136.855L77.0405 136.907C77.0238 136.925 77.0095 136.945 76.998 136.966C76.998 136.986 76.9752 137.002 76.9654 137.025C76.9443 137.061 76.9257 137.098 76.9099 137.136C76.8291 137.346 76.7785 137.565 76.7596 137.789C76.7596 137.858 76.7596 137.943 76.7596 138.031V132.31C76.7596 132.31 78.3924 138.514 80.8612 142.652L80.9297 142.766Z" fill="#231F20"/>
<path opacity="0.2" d="M84.5773 128.776L84.0744 127.682C84.0744 127.682 82.3894 133.998 82.7682 136.499L84.5773 128.776Z" fill="#231F20"/>
<path opacity="0.2" d="M96.4867 203.946L91.3794 204.778C91.3794 204.778 86.0403 198.711 77.2201 170.311C77.2201 170.311 77.0437 168.831 74.7481 168.831H65.389C65.389 168.831 47.3502 167.682 46.991 154.633C46.991 154.633 46.8767 151.181 47.9936 148.392C47.9936 148.392 54.4332 148.572 56.4513 148.196C56.4513 148.196 61.428 147.524 63.5179 146.208C63.5179 146.208 57.346 149.571 61.7251 151.433C61.7251 151.433 66.7573 151.544 67.0871 159.205C67.5715 161.416 68.4833 163.511 69.7714 165.373C70.2855 166.066 70.9385 166.644 71.6885 167.07C72.4386 167.496 73.2693 167.761 74.1276 167.848C76.3841 168.106 80.0774 169.422 81.9649 174.964C81.9649 174.957 87.9114 197.588 96.4867 203.946Z" fill="#231F20"/>
<path opacity="0.2" d="M114.689 193.947L117.935 191.35C117.935 191.35 108.066 186.916 101.281 177.443C100.644 176.54 100.199 175.516 99.9743 174.435C99.2102 170.866 96.7088 161.967 90.4487 158.76C90.4487 158.76 70.3298 147.919 75.5546 144.529C71.4718 143.741 67.2427 144.33 63.5309 146.204L62.8158 146.622C62.8158 146.622 75.9498 152.402 82.298 156.014C82.298 156.014 89.6585 158.803 91.546 164.22L94.4849 173.906L114.689 193.947Z" fill="#231F20"/>
<path d="M74.0884 123.721C74.0884 123.721 74.4966 128.006 76.1947 128.946L76.6029 127.712C76.6462 127.574 76.7214 127.448 76.8224 127.345C76.9234 127.242 77.0473 127.164 77.1842 127.117C77.4489 127.03 77.6972 126.898 77.9189 126.729C79.0636 126.231 80.0086 125.364 80.6032 124.267C80.6032 124.267 81.8604 121.759 82.7062 123.058C82.7062 123.058 84.1855 125.478 83.6369 121.2C83.6369 121.2 83.6369 119.143 81.6775 119.345C81.6347 119.353 81.5906 119.347 81.5515 119.328C81.5125 119.308 81.4805 119.277 81.4602 119.239C81.4399 119.2 81.4323 119.157 81.4385 119.114C81.4447 119.07 81.4643 119.03 81.4947 118.999C81.7853 118.699 82.4188 118.346 83.7805 118.225C83.7805 118.225 85.0149 118.036 85.6158 117.151C85.6542 117.092 85.6744 117.023 85.6739 116.952C85.6733 116.882 85.6521 116.813 85.6127 116.755C85.5734 116.696 85.5177 116.651 85.4527 116.624C85.3876 116.596 85.316 116.589 85.2468 116.602C84.2725 116.811 83.281 116.93 82.2849 116.955C81.7113 116.948 81.1412 117.047 80.6032 117.246C79.5256 117.66 77.9026 118.506 77.2821 119.999C77.2625 119.995 75.1073 122.813 74.0884 123.721Z" fill="#F9B499"/>
<path d="M93.1363 123.411L93.4628 121.837C93.4628 121.837 90.2985 119.146 91.0104 117.889C91.0104 117.889 89.8054 116.224 91.448 116.455C91.448 116.455 91.0268 114.532 92.8163 115.316C92.8163 115.316 93.2538 113.291 95.4287 114.826C96.2321 115.252 96.8877 115.911 97.3091 116.716C97.7306 117.522 97.8981 118.436 97.7897 119.339C97.7475 119.773 97.5692 120.182 97.2802 120.508C96.49 121.386 94.8017 123.111 93.1363 123.411Z" fill="#F9B499"/>
<path d="M91.5982 118.327L94.4458 120.652" stroke="#F7A48B" stroke-width="0.326553" stroke-miterlimit="10"/>
<path d="M92.1469 116.795C92.1469 116.795 94.7985 117.745 95.7585 119.408" stroke="#F7A48B" stroke-width="0.326553" stroke-miterlimit="10"/>
<path d="M93.5151 115.646C93.5151 115.646 96.1961 116.299 97.0712 118.327" stroke="#F7A48B" stroke-width="0.326553" stroke-miterlimit="10"/>
<path d="M92.4799 204.602C92.4799 204.602 92.222 210.062 94.8148 211.786L102.603 216.887C102.603 216.887 104.327 217.84 107.87 216.887L111.688 215.581C111.688 215.581 114.382 214.892 111.688 213.076L102.678 207.541C101.206 206.534 100.069 205.11 99.4127 203.453L92.4799 204.602Z" fill="#F20000"/>
<path d="M115.724 193.12C115.724 193.12 117.207 198.218 121.099 197.526L133.887 195.354C133.887 195.354 141.496 194.766 139.853 193.12C139.853 193.12 137.789 190.688 131.082 190.991C129.158 191.085 127.236 190.765 125.445 190.054C124.113 189.519 122.833 188.767 122.418 187.768L115.724 193.12Z" fill="#F20000"/>
<path opacity="0.2" d="M166.741 90.834L159.74 93.7208C159.74 93.7208 155.015 96.085 152.817 92.8783C155.078 93.2022 157.383 93.0294 159.57 92.3721C159.57 92.3721 162.686 91.4218 164.367 89.7107C164.697 89.3698 164.904 88.9285 164.955 88.4567L165.563 82.9445L166.741 90.834Z" fill="black"/>
<path opacity="0.2" d="M154.048 82.1837C154.048 82.1837 154.153 85.7758 156.925 86.971C157.004 87.0061 157.091 87.0218 157.177 87.017C157.263 87.0122 157.347 86.9868 157.422 86.9431C157.497 86.8994 157.56 86.8386 157.606 86.7656C157.653 86.6927 157.681 86.6097 157.689 86.5236L157.902 84.1888L156.87 85.1684L154.048 82.1837Z" fill="black"/>
<path d="M179.807 79.0259C179.837 78.8499 179.83 78.6693 179.785 78.4963C179.74 78.3234 179.658 78.1621 179.546 78.0234C179.302 77.7206 179.144 77.359 179.085 76.9752L178.889 76.0706L182.256 76.4396L182.788 76.8086C182.657 77.2642 182.435 77.6885 182.135 78.0561C182.001 78.1969 181.896 78.3629 181.826 78.5444C181.756 78.726 181.722 78.9196 181.727 79.1141L182.024 85.6452L180.013 89.1328L178.615 85.8215L179.807 79.0259Z" fill="black" fill-opacity="0.82"/>
<path d="M146.155 80.4987L144.359 77.7164C144.202 77.4723 143.985 77.2723 143.729 77.1352C142.557 76.5049 139.213 74.366 141.548 71.4825C141.679 71.3183 141.75 71.1145 141.75 70.9045C141.75 70.6945 141.679 70.4908 141.548 70.3265C140.829 69.4154 139.634 67.7435 140.104 67.2733C140.104 67.2733 140.526 65.6927 144.258 70.4865C144.271 70.5042 144.289 70.5172 144.31 70.5236C144.331 70.5301 144.353 70.5296 144.374 70.5222C144.395 70.5149 144.412 70.5011 144.424 70.4829C144.436 70.4647 144.442 70.443 144.441 70.4212C144.351 69.737 144.386 69.042 144.546 68.3705C144.557 68.3354 144.577 68.3035 144.603 68.2773C144.629 68.251 144.661 68.2312 144.696 68.2192C144.731 68.2072 144.769 68.2034 144.805 68.2081C144.842 68.2128 144.877 68.2259 144.908 68.2464C145.094 68.3705 145.319 68.6546 145.391 69.3012C145.412 69.4863 145.476 69.6641 145.577 69.8204C146.299 70.9579 146.724 72.2579 146.815 73.6019C146.835 74.2508 147.084 74.8719 147.517 75.3554L149.757 77.7915L146.155 80.4987Z" fill="#F9B499"/>
<path d="M262.294 41.2273L262.075 65.4673H245.989V61.5226C245.989 60.9405 245.888 60.3628 245.692 59.8147C245.33 58.786 244.673 56.9639 244.02 55.2919V55.2527C243.756 54.5376 239.86 43.4217 248.641 39.7153C249.239 39.4602 249.856 39.2528 250.486 39.0949C250.486 39.0949 254.212 38.0107 256.939 39.0949L262.294 41.2273Z" fill="#F20000"/>
<path d="M248.628 39.7089C246.82 40.4197 245.297 41.7063 244.295 43.3696C241.496 48.1111 243.805 54.6944 244.007 55.243C243.523 55.701 243.183 56.2899 243.027 56.9379C242.906 57.4176 242.7 57.8719 242.42 58.28C241.137 60.076 239.88 59.5405 239.128 58.9037C238.863 58.6762 238.628 58.4149 238.43 58.1265C237.646 56.7746 236.82 56.3468 236.333 56.2162C235.763 56.0686 235.215 55.8491 234.7 55.5631C233.476 54.8512 233.068 54.1785 233.068 54.1785C230.661 51.1154 234.929 49.9137 234.929 49.9137C237.342 48.7479 239.174 46.3216 239.929 45.2211C240.137 44.9065 240.325 44.5793 240.493 44.2415C243.204 38.9186 248.628 39.7089 248.628 39.7089Z" fill="#F20000"/>
<path opacity="0.4" d="M248.628 39.7089C246.82 40.4197 245.297 41.7063 244.295 43.3696C241.496 48.1111 243.805 54.6944 244.007 55.243C243.523 55.701 243.183 56.2899 243.027 56.9379C242.906 57.4176 242.7 57.8719 242.42 58.28C241.137 60.076 239.88 59.5405 239.128 58.9037C238.863 58.6762 238.628 58.4149 238.43 58.1265C237.646 56.7746 236.82 56.3468 236.333 56.2162C235.763 56.0686 235.215 55.8491 234.7 55.5631C233.476 54.8512 233.068 54.1785 233.068 54.1785C230.661 51.1154 234.929 49.9137 234.929 49.9137C237.342 48.7479 239.174 46.3216 239.929 45.2211C240.137 44.9065 240.325 44.5793 240.493 44.2415C243.204 38.9186 248.628 39.7089 248.628 39.7089Z" fill="white"/>
<path opacity="0.2" d="M244.295 43.3794C241.496 48.1209 243.805 54.7042 244.007 55.2528C243.523 55.7108 243.183 56.2997 243.028 56.9477C242.906 57.4273 242.7 57.8817 242.42 58.2898C240.389 61.1341 238.43 58.1363 238.43 58.1363C238.43 58.1363 241.823 58.6816 241.823 53.6495C241.823 53.6495 241.169 45.6881 244.288 43.3761L244.295 43.3794Z" fill="white"/>
<path d="M271.127 54.2993V60.014C269.9 59.9256 268.679 60.2547 267.663 60.948C265.769 62.2085 264.446 62.633 263.532 62.5807C261.791 62.4599 261.501 60.592 261.501 59.3478C261.511 58.1814 261.409 57.0166 261.194 55.87C260.863 54.159 260.396 52.4773 259.796 50.8411C255.959 42.6773 262.294 41.2307 262.294 41.2307C264.456 40.9433 265.961 42.1124 266.885 43.2422C267.491 44 267.956 44.8606 268.257 45.7828L271.127 54.2993Z" fill="#F20000"/>
<path opacity="0.4" d="M271.127 54.2993V60.014C269.9 59.9256 268.679 60.2547 267.663 60.948C265.769 62.2085 264.446 62.633 263.532 62.5807C261.791 62.4599 261.501 60.592 261.501 59.3478C261.511 58.1814 261.409 57.0166 261.194 55.87C260.863 54.159 260.396 52.4773 259.796 50.8411C255.959 42.6773 262.294 41.2307 262.294 41.2307C264.456 40.9433 265.961 42.1124 266.885 43.2422C267.491 44 267.956 44.8606 268.257 45.7828L271.127 54.2993Z" fill="white"/>
<path d="M271.127 60.0139C269.119 66.7867 262.839 65.3466 262.839 65.3466L263.943 64.4616C264.596 63.8085 263.587 62.6231 263.532 62.5774C264.446 62.6329 265.769 62.2084 267.663 60.9446C268.68 60.2525 269.901 59.9245 271.127 60.0139Z" fill="#F9B499"/>
<path d="M239.135 58.9135C236.787 61.6467 233.551 62.8321 232.372 63.2077C232.056 63.3103 231.723 63.3459 231.392 63.3122C225.926 62.6819 215.718 50.4753 215.718 50.4753C213.471 49.6002 209.971 46.5371 209.971 46.5371H218.014C218.503 47.138 218.729 48.3397 218.729 48.3397L230.08 55.6512C230.345 55.8205 230.661 55.894 230.973 55.8596C231.286 55.8251 231.578 55.6848 231.801 55.4618L233.061 54.1948C233.061 54.1948 233.466 54.8675 234.694 55.5794C235.208 55.8654 235.757 56.0849 236.327 56.2325C236.813 56.3631 237.633 56.7909 238.423 58.1428C238.626 58.4297 238.865 58.6889 239.135 58.9135Z" fill="#F9B499"/>
<path d="M108.644 23.7535C108.644 27.019 107.377 29.8241 105.542 31.1336C104.872 31.6322 104.062 31.9055 103.227 31.9141C102.515 31.9099 101.818 31.7075 101.215 31.3295C99.2134 30.1311 97.806 27.1888 97.806 23.7535C97.806 19.2438 100.232 15.5897 103.227 15.5897C106.221 15.5897 108.644 19.2438 108.644 23.7535Z" fill="#F9B499"/>
<path d="M105.542 31.1336L106.13 35.4278C107.335 35.32 108.21 36.3029 108.21 36.3029C111.658 37.1226 117.128 41.9393 117.128 41.9393L122.216 46.6449C122.216 42.9255 115.322 35.5911 115.322 35.5911C111.929 32.7468 111.929 28.2599 111.929 28.2599C112.256 19.9426 110.179 17.7547 110.179 17.7547C104.709 11.9551 101.316 15.5897 101.316 15.5897C97.2672 15.7203 97.0484 17.3171 97.0484 17.3171C94.6384 21.0366 97.8648 24.9813 97.8648 24.9813C97.8648 24.9813 97.4337 20.9158 99.2918 18.1237C99.2918 18.1237 106.538 26.5031 108.605 24.7528C108.605 24.7593 108.347 29.1906 105.542 31.1336Z" fill="black" fill-opacity="0.9"/>
<path d="M110.109 25.5699C110.261 24.4021 109.656 23.3603 108.756 23.243C107.856 23.1257 107.004 23.9773 106.851 25.1451C106.699 26.3129 107.305 27.3547 108.204 27.472C109.104 27.5893 109.957 26.7377 110.109 25.5699Z" fill="#F9B499"/>
<path d="M106.13 35.4278C104.895 37.4231 103.008 37.1259 103.008 37.1259C102.475 37.1537 101.953 36.9712 101.553 36.6175C101.154 36.2638 100.909 35.7674 100.872 35.2352L101.199 31.3165C101.802 31.6945 102.499 31.8969 103.21 31.9011C104.045 31.8925 104.856 31.6192 105.526 31.1206L106.13 35.4278Z" fill="#F9B499"/>
<path d="M101.212 31.3295C101.212 31.3295 102.482 33.4946 104.275 33.4325C104.463 33.4198 104.648 33.4811 104.79 33.6032C104.933 33.7253 105.023 33.8985 105.039 34.0856C105.095 34.8824 105.039 36.1103 104.422 36.9169C104.422 36.9169 105.64 36.4793 106.133 35.4245L105.542 31.1336C105.542 31.1336 103.759 32.7566 101.212 31.3295Z" fill="#F7A48B"/>
<path d="M96.1536 36.9201C96.1536 36.9201 86.6313 43.5524 82.8531 47.4155C82.8531 47.4155 79.8488 38.3994 74.6893 38.9251L70.5029 41.7596V44.5059C70.5029 44.5059 75.5514 52.6077 80.515 55.5663C81.6456 56.2352 82.9895 56.4455 84.2704 56.1541C87.3105 55.4746 90.1291 54.0367 92.4636 51.9742C92.4636 51.9742 95.0368 56.9541 94.178 62.0222H108.644C108.644 62.0222 108.759 58.8253 108.994 56.7386C109.074 56.028 109.26 55.3335 109.546 54.678C110.035 53.5482 110.888 51.5333 111.178 50.5145C111.178 50.5145 115.77 54.0707 118.898 56.0202C119.085 56.1323 119.22 56.313 119.275 56.5236C119.33 56.7341 119.3 56.9578 119.192 57.1468C118.379 58.502 116.508 61.3626 114.885 62.0124C114.885 62.0124 120.72 61.3234 122.222 55.6577V46.6448C122.222 46.6448 113.405 37.7267 108.217 36.3029L102.273 38.3145L98.6518 35.6367C97.771 35.9637 96.9324 36.3945 96.1536 36.9201Z" fill="#F20000"/>
<path opacity="0.2" d="M84.2802 56.1443C84.2802 56.1443 90.1255 52.9637 90.2887 50.5929C90.2887 50.5929 89.7989 45.7306 91.2684 43.8953C91.2684 43.8953 91.5949 49.881 92.4636 51.9743C92.4701 51.9645 89.5964 54.9753 84.2802 56.1443Z" fill="black"/>
<path opacity="0.2" d="M107.034 43.8856C107.034 43.8856 108.69 49.6884 111.185 50.5048L109.591 54.4757C109.324 55.1464 109.157 55.8528 109.095 56.5722L108.644 62.0125H104.497C104.497 62.0125 108.455 60.0369 108.089 52.9474C108.089 52.9474 106.623 45.5575 107.034 43.8856Z" fill="black"/>
<path d="M66.4046 36.058C66.4046 36.058 67.8578 38.8142 70.1828 38.8468L71.0025 39.9146L73.6149 38.1088L72.4948 36.058H66.4046Z" fill="#F9B499"/>
<path d="M74.8591 115.153C72.8084 117.02 69.5134 117.331 67.4888 117.327C66.1097 117.327 64.7405 117.093 63.4396 116.635C58.9984 115.045 55.9288 111.485 55.9288 111.485L59.0311 111.681C59.4813 111.711 59.9317 111.627 60.3409 111.437C60.7501 111.247 61.1048 110.957 61.3725 110.594C62.1264 109.516 62.6153 108.275 62.7995 106.972C62.9352 106.16 62.979 105.335 62.9301 104.513C65.8365 109.033 69.7878 108.641 69.7878 108.641V108.968L69.8498 110.858C69.859 111.107 69.8929 111.354 69.951 111.596C70.0779 112.166 70.3553 112.692 70.7544 113.118C72.3447 114.784 74.8591 115.153 74.8591 115.153Z" fill="#F9B499"/>
<path d="M69.9444 111.587C67.3562 110.393 64.9496 108.84 62.7962 106.972C62.7949 106.969 62.7927 106.965 62.7899 106.962C62.7871 106.959 62.7836 106.957 62.7798 106.956C62.9114 106.149 62.9606 105.331 62.9268 104.513C65.34 109.17 69.7844 108.641 69.7844 108.641C69.7844 108.733 69.7844 108.866 69.7844 108.968L69.8465 110.858C69.8552 111.104 69.888 111.348 69.9444 111.587Z" fill="#F7A48B"/>
<path d="M69.2163 108.683C73.3842 108.683 76.7629 104.508 76.7629 99.3571C76.7629 94.2063 73.3842 90.0308 69.2163 90.0308C65.0484 90.0308 61.6696 94.2063 61.6696 99.3571C61.6696 104.508 65.0484 108.683 69.2163 108.683Z" fill="#F9B499"/>
<path d="M54.6912 103.661C54.6912 103.661 57.0717 106.731 62.4076 108.683C62.4076 108.683 63.1979 105.771 62.9268 104.51C62.5845 103.868 62.3098 103.191 62.1072 102.492L60.605 97.3782C60.605 97.3782 61.4965 96.9047 61.8786 97.179C61.8786 97.179 61.4671 99.8404 61.7317 100.549C61.7317 100.549 62.437 98.4068 63.4591 97.7635C63.9271 97.4919 64.3296 97.1207 64.638 96.6761C64.9594 96.1906 65.1721 95.6415 65.2617 95.0662C65.2728 94.9416 65.329 94.8254 65.4198 94.7394C65.5107 94.6534 65.6298 94.6035 65.7548 94.5992C66.9362 94.5763 68.1053 94.8419 69.1607 95.3732C69.2974 95.4425 69.4513 95.4707 69.6037 95.4545C69.7561 95.4383 69.9005 95.3783 70.0196 95.2817L71.956 93.7045L71.3029 95.5136C71.2909 95.548 71.286 95.5846 71.2885 95.6211C71.2911 95.6575 71.3011 95.693 71.318 95.7254C71.3348 95.7579 71.3581 95.7865 71.3864 95.8096C71.4147 95.8327 71.4474 95.8497 71.4825 95.8597L72.7528 96.2026C72.8864 96.2384 73.0284 96.2252 73.153 96.1653C73.2776 96.1053 73.3766 96.0027 73.4321 95.876L74.3105 93.9624C74.3151 93.9476 74.3251 93.9351 74.3385 93.9272C74.3519 93.9194 74.3677 93.9169 74.3829 93.9202C74.398 93.9234 74.4114 93.9323 74.4204 93.9449C74.4294 93.9576 74.4333 93.9732 74.4313 93.9886V96.1308C74.4313 96.2657 74.4709 96.3976 74.5452 96.5102C74.6195 96.6229 74.7253 96.7112 74.8493 96.7643C75.3848 96.9929 76.2927 97.4402 76.6911 97.9627C76.6911 97.9627 77.4813 102.368 74.477 106.048C74.477 106.048 72.7267 108.373 69.7877 108.661L69.8302 110.013L76.8805 109.572C77.1063 109.557 77.319 109.46 77.4775 109.299C77.636 109.137 77.7293 108.923 77.7393 108.697C77.8189 106.659 78.1412 104.639 78.6994 102.678C78.6994 102.678 81.364 92.3917 76.776 88.6168C76.776 88.6168 68.2366 82.2457 61.9668 89.3221C61.8068 89.5017 61.6402 89.6813 61.4704 89.8511C60.7422 90.563 58.3388 93.3224 57.4146 99.3571C57.4016 99.3571 56.5264 103.005 54.6912 103.661Z" fill="black" fill-opacity="0.9"/>
<path d="M61.6696 102.107C62.8022 102.107 63.7203 100.876 63.7203 99.3571C63.7203 97.8386 62.8022 96.6075 61.6696 96.6075C60.537 96.6075 59.6188 97.8386 59.6188 99.3571C59.6188 100.876 60.537 102.107 61.6696 102.107Z" fill="#F9B499"/>
<path d="M80.6031 180.656C59.6417 181.328 46.1289 177.194 37.4426 171.486C36.6306 170.953 35.8588 170.409 35.1273 169.853C23.453 160.925 22.026 149.173 22.0652 145.421C22.0734 144.412 22.0178 143.405 21.8987 142.403C17.8265 109.882 10.7762 93.8775 10.7762 93.8775C27.3456 87.8624 23.9167 107.919 23.9167 107.919L23.4269 129.684C22.9338 143.073 42.9613 148.497 42.9613 148.497L61.9994 154.212C64.4714 155.191 64.7392 158.692 64.5465 161.396C64.3114 164.691 64.8731 168.759 67.5802 171.6C73.37 177.661 80.6031 180.656 80.6031 180.656Z" fill="#BCBEC0"/>
<path d="M256.204 40.0713C256.057 40.1888 255.903 40.2978 255.743 40.3979C253.925 41.5049 252.804 40.5807 252.289 39.8591C252.034 39.5075 251.925 39.071 251.985 38.641L252.328 36.0286L252.55 34.324H256.592L257.056 38.0761C257.099 38.4539 257.042 38.8363 256.893 39.186C256.744 39.5357 256.506 39.8407 256.204 40.0713Z" fill="#F9B499"/>
<path d="M256.204 40.0714C256.057 40.1889 255.903 40.2979 255.743 40.3979V38.1676C255.743 38.0185 255.689 37.8747 255.591 37.762C255.493 37.6494 255.359 37.5755 255.211 37.5536C254.11 37.3625 253.1 36.8234 252.328 36.0156L252.55 34.311H256.593L257.056 38.0631C257.101 38.443 257.046 38.8281 256.896 39.1803C256.747 39.5324 256.508 39.8396 256.204 40.0714Z" fill="#F7A48B"/>
<path d="M254.676 35.996C257.967 35.996 260.635 32.7079 260.635 28.6518C260.635 24.5957 257.967 21.3076 254.676 21.3076C251.384 21.3076 248.716 24.5957 248.716 28.6518C248.716 32.7079 251.384 35.996 254.676 35.996Z" fill="#F9B499"/>
<path d="M248.716 28.6518C248.716 28.6518 247.436 20.3508 254.676 20.0308C254.676 20.0308 257.762 19.9263 259.999 22.1599C259.999 22.1599 263.084 18.8617 264.998 21.3076C264.998 21.3076 267.979 25.4614 262.124 26.3104C262.124 26.3104 261.902 31.1042 259.884 32.221C259.884 32.221 259.283 28.6518 257.193 27.9073C257.193 27.9073 253.187 26.5259 252.122 22.9045C252.122 22.9045 249.781 23.0122 248.716 28.6518Z" fill="black" fill-opacity="0.9"/>
<path d="M260.851 32.7388C261.236 32.0719 261.145 31.2987 260.649 31.012C260.152 30.7252 259.437 31.0334 259.052 31.7003C258.667 32.3673 258.757 33.1404 259.254 33.4271C259.751 33.7139 260.466 33.4057 260.851 32.7388Z" fill="#F9B499"/>
<path d="M145.646 80.8775L146.636 82.9576L151.384 79.359L150.035 77.5858L145.646 80.8775Z" fill="#E6E7E8"/>
<path d="M175.385 73.1839L177.896 76.8249C177.982 76.9503 178.106 77.0447 178.249 77.0942C178.393 77.1436 178.549 77.1454 178.693 77.0993L180.303 76.5898C180.608 76.492 180.938 76.5094 181.231 76.6388L182.494 77.2005C182.753 77.3151 183.039 77.3511 183.318 77.3041C183.597 77.2571 183.855 77.129 184.062 76.936L187.592 73.6411L184.31 73.37L178.605 73.1969C177.533 73.1282 176.458 73.1239 175.385 73.1839Z" fill="#F20000"/>
<path d="M181.841 75.9628C181.708 76.0087 181.571 76.0447 181.433 76.0705C180.248 76.1097 179.516 75.3619 179.085 74.6043C178.674 73.8628 178.513 73.0086 178.625 72.1682L178.971 69.4872L183.67 68.1124L184.254 71.9429C184.388 72.7896 184.22 73.6564 183.778 74.3914C183.337 75.1264 182.651 75.6827 181.841 75.9628Z" fill="#F9B499"/>
<path d="M181.841 75.9628C182.798 74.8754 183.118 73.0238 183.226 72.0017C183.238 71.9091 183.23 71.815 183.203 71.7256C183.175 71.6363 183.129 71.5539 183.067 71.484C183.005 71.414 182.929 71.3581 182.844 71.3202C182.759 71.2822 182.666 71.2629 182.573 71.2637C179.96 71.2637 179.715 69.6048 179.715 69.6048C180.448 69.6585 181.183 69.5513 181.87 69.2907C182.556 69.0301 183.177 68.6223 183.689 68.0961L184.274 71.9266C184.411 72.7783 184.241 73.651 183.796 74.3898C183.351 75.1286 182.658 75.6859 181.841 75.9628Z" fill="#F7A48B"/>
<path d="M180.176 69.6309C183.372 69.6309 185.962 66.2756 185.962 62.1365C185.962 57.9975 183.372 54.6422 180.176 54.6422C176.98 54.6422 174.389 57.9975 174.389 62.1365C174.389 66.2756 176.98 69.6309 180.176 69.6309Z" fill="#F9B499"/>
<path d="M180.868 58.5477C179.121 59.276 174.931 60.6736 173.514 57.973C173.514 57.973 171.555 53.705 177.456 53.0388C177.456 53.0388 179.918 52.6371 184.101 53.9499C184.286 53.6271 184.559 53.3635 184.888 53.19C185.217 53.0165 185.588 52.9403 185.959 52.9702C185.775 53.1012 185.635 53.2849 185.557 53.4971C185.48 53.7093 185.468 53.9401 185.525 54.1589C185.525 54.1589 186.482 53.3392 187.03 53.5286C187.03 53.5286 186.292 54.0674 186.593 54.6324C186.593 54.6324 189.61 56.128 187.739 62.3162L185.832 63.7008C183.975 62.6909 182.567 61.0174 181.89 59.0147C181.856 58.9152 181.802 58.8237 181.732 58.7458C181.661 58.6678 181.575 58.6051 181.48 58.5614C181.384 58.5177 181.28 58.4939 181.175 58.4916C181.07 58.4893 180.966 58.5084 180.868 58.5477Z" fill="black" fill-opacity="0.9"/>
<path d="M187.537 63.9314C187.994 63.0631 187.896 62.1128 187.318 61.8089C186.74 61.505 185.901 61.9626 185.445 62.831C184.988 63.6993 185.086 64.6496 185.664 64.9535C186.242 65.2574 187.081 64.7998 187.537 63.9314Z" fill="#F9B499"/>
<path d="M100.876 35.2351C100.427 35.0685 99.9446 35.0169 99.4714 35.0849C99.3039 35.118 99.1447 35.184 99.003 35.2792C98.8613 35.3744 98.74 35.4968 98.646 35.6393C98.5521 35.7819 98.4875 35.9417 98.456 36.1094C98.4244 36.2772 98.4266 36.4495 98.4623 36.6165C98.6778 37.5961 99.3538 39.095 101.493 39.0134C101.493 39.0134 98.4982 46.3575 96.4442 48.6957L96.7708 51.6118C96.7708 51.6118 101.408 48.1634 102.322 40.8584L103.23 49.5186L105.274 52.7188L106.14 50.1064C106.14 50.1064 103.922 42.8406 103.961 39.2289C103.961 39.2289 106.9 39.5097 107.985 37.0116C108.09 36.7729 108.121 36.5082 108.075 36.2515C108.028 35.9948 107.906 35.758 107.723 35.5715C107.527 35.3507 107.252 35.214 106.958 35.1896C106.663 35.1653 106.37 35.2553 106.14 35.4409C105.839 35.9951 105.384 36.4504 104.83 36.7518C104.276 37.0531 103.646 37.1876 103.018 37.1389C103.018 37.1389 101.205 37.2892 100.876 35.2351Z" fill="#F20000"/>
<path opacity="0.4" d="M100.876 35.2351C100.427 35.0685 99.9446 35.0169 99.4714 35.0849C99.3039 35.118 99.1447 35.184 99.003 35.2792C98.8613 35.3744 98.74 35.4968 98.646 35.6393C98.5521 35.7819 98.4875 35.9417 98.456 36.1094C98.4244 36.2772 98.4266 36.4495 98.4623 36.6165C98.6778 37.5961 99.3538 39.095 101.493 39.0134C101.493 39.0134 98.4982 46.3575 96.4442 48.6957L96.7708 51.6118C96.7708 51.6118 101.408 48.1634 102.322 40.8584L103.23 49.5186L105.274 52.7188L106.14 50.1064C106.14 50.1064 103.922 42.8406 103.961 39.2289C103.961 39.2289 106.9 39.5097 107.985 37.0116C108.09 36.7729 108.121 36.5082 108.075 36.2515C108.028 35.9948 107.906 35.758 107.723 35.5715C107.527 35.3507 107.252 35.214 106.958 35.1896C106.663 35.1653 106.37 35.2553 106.14 35.4409C105.839 35.9951 105.384 36.4504 104.83 36.7518C104.276 37.0531 103.646 37.1876 103.018 37.1389C103.018 37.1389 101.205 37.2892 100.876 35.2351Z" fill="white"/>
<path d="M74.6958 38.9153L73.628 38.1087L70.5094 39.9145V41.7498L74.6958 38.9153Z" fill="#E6E7E8"/>
<path d="M139.095 66.7377C143.164 66.7377 146.462 63.4394 146.462 59.3707C146.462 55.302 143.164 52.0037 139.095 52.0037C135.027 52.0037 131.728 55.302 131.728 59.3707C131.728 63.4394 135.027 66.7377 139.095 66.7377Z" fill="#F20000"/>
<path d="M139.112 65.6927C137.861 65.6927 136.639 65.3219 135.599 64.6272C134.56 63.9325 133.749 62.9452 133.271 61.79C132.792 60.6347 132.667 59.3636 132.911 58.1372C133.155 56.9109 133.757 55.7844 134.641 54.9002C135.526 54.0161 136.652 53.4139 137.878 53.17C139.105 52.9261 140.376 53.0513 141.531 53.5298C142.686 54.0083 143.674 54.8186 144.368 55.8582C145.063 56.8979 145.434 58.1202 145.434 59.3706C145.432 61.0468 144.765 62.6538 143.58 63.8391C142.395 65.0243 140.788 65.6909 139.112 65.6927ZM139.112 53.2281C137.899 53.2275 136.713 53.5866 135.704 54.2601C134.695 54.9336 133.908 55.8911 133.444 57.0117C132.979 58.1322 132.857 59.3654 133.093 60.5552C133.33 61.7451 133.913 62.8381 134.771 63.6961C135.628 64.5541 136.721 65.1385 137.911 65.3754C139.101 65.6123 140.334 65.491 141.455 65.027C142.575 64.5629 143.533 63.7769 144.207 62.7683C144.881 61.7597 145.241 60.5739 145.241 59.3608C145.239 57.7354 144.593 56.177 143.444 55.0274C142.295 53.8778 140.737 53.2307 139.112 53.2281Z" fill="white"/>
<path d="M140.494 59.1027L138.69 58.5473C138.481 58.484 138.336 58.2783 138.336 58.0498C138.336 57.7633 138.556 57.5312 138.828 57.5312H139.936C140.14 57.5312 140.34 57.5963 140.507 57.7158C140.609 57.7879 140.746 57.7703 140.833 57.6807L141.414 57.083C141.533 56.9617 141.516 56.7596 141.384 56.6523C140.975 56.3148 140.464 56.1268 139.939 56.125V55.2812C139.939 55.1266 139.819 55 139.672 55H139.137C138.99 55 138.87 55.1266 138.87 55.2812V56.125H138.828C137.764 56.125 136.909 57.0865 137.008 58.2273C137.078 59.0377 137.666 59.6969 138.407 59.9254L140.12 60.4527C140.328 60.5178 140.474 60.7217 140.474 60.9502C140.474 61.2367 140.253 61.4688 139.981 61.4688H138.873C138.67 61.4688 138.469 61.4037 138.302 61.2842C138.2 61.2121 138.063 61.2297 137.977 61.3193L137.395 61.917C137.277 62.0383 137.293 62.2404 137.425 62.3477C137.835 62.6852 138.346 62.8732 138.87 62.875V63.7188C138.87 63.8734 138.99 64 139.137 64H139.672C139.819 64 139.939 63.8734 139.939 63.7188V62.8715C140.718 62.8557 141.447 62.3688 141.705 61.5936C142.064 60.5107 141.461 59.3998 140.494 59.1027Z" fill="white"/>
<path d="M212.5 47H215.5V35H212.5V47ZM208 47H211V41H208V47ZM217 38.75V47H220V38.75H217Z" fill="#DF0B0B"/>
<rect x="64" y="23" width="13" height="13" rx="4" fill="#DF0B0B"/>
<rect x="65.5833" y="24.5833" width="9.83333" height="9.83333" rx="3.5" stroke="white"/>
<path d="M72.3959 26.7917C71.9479 26.7917 71.5834 27.1562 71.5834 27.6042C71.5834 27.7292 71.6141 27.8463 71.6648 27.9523L70.6587 28.9584H69.367C69.2548 28.6438 68.9567 28.4167 68.6042 28.4167C68.1562 28.4167 67.7917 28.7812 67.7917 29.2292C67.7917 29.6771 68.1562 30.0417 68.6042 30.0417C68.9567 30.0417 69.2548 29.8145 69.367 29.5H70.6587L71.6648 30.5061C71.6141 30.6121 71.5834 30.7291 71.5834 30.8542C71.5834 31.3021 71.9479 31.6667 72.3959 31.6667C72.8438 31.6667 73.2084 31.3021 73.2084 30.8542C73.2084 30.4062 72.8438 30.0417 72.3959 30.0417C72.2708 30.0417 72.1537 30.0724 72.0478 30.1231L71.1538 29.2292L72.0478 28.3352C72.1537 28.3859 72.2708 28.4167 72.3959 28.4167C72.8438 28.4167 73.2084 28.0521 73.2084 27.6042C73.2084 27.1562 72.8438 26.7917 72.3959 26.7917Z" fill="white"/>
</svg>
