<svg width="15" height="16" viewBox="0 0 15 16" fill="none" xmlns="http://www.w3.org/2000/svg">
<g id="Vector">
<path id="Vector_2" d="M6.42857 1.03571L6.42857 14.9643C6.42857 15.1064 6.37213 15.2426 6.27166 15.3431C6.1712 15.4436 6.03494 15.5 5.89286 15.5H4.82143C4.67935 15.5 4.54309 15.4436 4.44262 15.3431C4.34216 15.2426 4.28571 15.1064 4.28571 14.9643L4.28571 1.03571C4.28571 0.893634 4.34216 0.757373 4.44262 0.656907C4.54309 0.556441 4.67935 0.5 4.82143 0.5L5.89286 0.5C6.03494 0.5 6.1712 0.556441 6.27166 0.656907C6.37213 0.757373 6.42857 0.893634 6.42857 1.03571ZM12.8571 14.9643V1.03571C12.8571 0.893634 12.9136 0.757373 13.014 0.656907C13.1145 0.556441 13.2508 0.5 13.3929 0.5L14.4643 0.5C14.6064 0.5 14.7426 0.556441 14.8431 0.656907C14.9436 0.757373 15 0.893634 15 1.03571V14.9643C15 15.1064 14.9436 15.2426 14.8431 15.3431C14.7426 15.4436 14.6064 15.5 14.4643 15.5H13.3929C13.2508 15.5 13.1145 15.4436 13.014 15.3431C12.9136 15.2426 12.8571 15.1064 12.8571 14.9643ZM1.307e-07 15.0704L1.307e-07 6.28672C-4.38998e-05 6.23029 0.0110373 6.17441 0.0326099 6.12227C0.0541825 6.07014 0.0858232 6.02276 0.125722 5.98286C0.16562 5.94297 0.212994 5.91133 0.265132 5.88975C0.317271 5.86818 0.373151 5.8571 0.429576 5.85714H1.71328C1.76971 5.8571 1.82559 5.86818 1.87772 5.88975C1.92986 5.91133 1.97724 5.94297 2.01714 5.98286C2.05703 6.02276 2.08867 6.07014 2.11025 6.12227C2.13182 6.17441 2.1429 6.23029 2.14286 6.28672L2.14286 15.0704C2.1429 15.1268 2.13182 15.1827 2.11025 15.2349C2.08867 15.287 2.05703 15.3344 2.01714 15.3743C1.97724 15.4142 1.92986 15.4458 1.87772 15.4674C1.82559 15.489 1.76971 15.5 1.71328 15.5H0.429576C0.373151 15.5 0.317271 15.489 0.265132 15.4674C0.212994 15.4458 0.16562 15.4142 0.125722 15.3743C0.0858232 15.3344 0.0541825 15.287 0.0326099 15.2349C0.0110373 15.1827 -4.38998e-05 15.1268 1.307e-07 15.0704ZM8.57143 15.0704L8.57143 6.28672C8.57138 6.23029 8.58247 6.17441 8.60404 6.12227C8.62561 6.07014 8.65725 6.02276 8.69715 5.98286C8.73705 5.94297 8.78442 5.91133 8.83656 5.88975C8.8887 5.86818 8.94458 5.8571 9.001 5.85714H10.2847C10.3411 5.8571 10.397 5.86818 10.4492 5.88975C10.5013 5.91133 10.5487 5.94297 10.5886 5.98286C10.6285 6.02276 10.6601 6.07014 10.6817 6.12227C10.7032 6.17441 10.7143 6.23029 10.7143 6.28672L10.7143 15.0704C10.7143 15.1268 10.7032 15.1827 10.6817 15.2349C10.6601 15.287 10.6285 15.3344 10.5886 15.3743C10.5487 15.4142 10.5013 15.4458 10.4492 15.4674C10.397 15.489 10.3411 15.5 10.2847 15.5H9.001C8.94458 15.5 8.8887 15.489 8.83656 15.4674C8.78442 15.4458 8.73705 15.4142 8.69715 15.3743C8.65725 15.3344 8.62561 15.287 8.60404 15.2349C8.58247 15.1827 8.57138 15.1268 8.57143 15.0704Z" fill="#494949"/>
</g>
</svg>
