<svg width="17" height="18" viewBox="0 0 17 18" fill="none" xmlns="http://www.w3.org/2000/svg">
<g id="Vector">
<path id="Vector_2" d="M8.44118 14.7498V16.5V17.2449L9.13056 16.9627C13.5352 15.1601 16.5 11.5205 16.5 7.875C16.5 4.00825 12.8351 1 8.5 1C4.1649 1 0.5 4.00825 0.5 7.875C0.5 11.7243 4.1318 14.7227 8.44118 14.7498ZM8.11765 11.875V11.375H8.88235V11.875H8.11765ZM8.9455 9.25H8.1686C8.22431 8.99862 8.32145 8.8012 8.43859 8.63663C8.63267 8.36398 8.90137 8.15289 9.22032 7.93826C9.28454 7.89505 9.35384 7.84997 9.42592 7.80308C9.67999 7.6378 9.96873 7.44998 10.1921 7.24163C10.5089 6.94623 10.7647 6.55293 10.7647 6C10.7647 4.82575 9.66745 4 8.5 4C7.50646 4 6.56376 4.59805 6.30495 5.5H5.53305C5.8091 4.40311 6.97387 3.5 8.5 3.5C10.2531 3.5 11.5294 4.69175 11.5294 6C11.5294 6.65518 11.096 7.03201 10.4075 7.54411C10.3867 7.55956 10.3657 7.57517 10.3444 7.59096C10.0419 7.81541 9.69133 8.07548 9.41934 8.38694C9.20893 8.6279 9.03428 8.9111 8.9455 9.25Z" stroke="#494949"/>
</g>
</svg>
