<svg width="56" height="44" viewBox="0 0 56 44" fill="none" xmlns="http://www.w3.org/2000/svg">
<path id="Vector" d="M1.80624 5.47252V5.47179C1.80624 2.93465 3.81027 0.914862 6.33605 0.914862H49.7354C52.2668 0.914862 54.2923 2.94034 54.2923 5.47179V38.0213C54.2923 40.5528 52.2668 42.5782 49.7354 42.5782H6.33605C3.80471 42.5782 1.77931 40.5529 1.77912 38.0216C1.77912 38.0215 1.77912 38.0214 1.77912 38.0213L1.80624 5.47252ZM49.7354 38.8893H50.6034V38.0213V21.7465V20.8786H49.7354H6.33605H5.46806V21.7465V38.0213V38.8893H6.33605H49.7354ZM49.7354 11.7647H50.6034V10.8967V5.47179V4.60381H49.7354H6.33605H5.46806V5.47179V10.8967V11.7647H6.33605H49.7354Z" stroke="#DF0B0B" stroke-width="1.73597"/>
</svg>
