<svg width="63" height="44" viewBox="0 0 63 44" fill="none" xmlns="http://www.w3.org/2000/svg">
<path id="Vector" d="M58.4064 29.8495L58.2953 30.4521L58.8259 30.7585L61.2128 32.137C60.6108 34.0158 59.6086 35.726 58.3105 37.154L55.9248 35.7763L55.3938 35.4696L54.9274 35.8676C53.9523 36.6995 52.8337 37.344 51.6245 37.7739L51.0473 37.9792V38.5918V41.3481C49.1928 41.7496 47.2139 41.766 45.2642 41.3478V38.5918V37.9792L44.687 37.7739C43.4779 37.344 42.3592 36.6995 41.3842 35.8676L40.9177 35.4696L40.3867 35.7763L38.0015 37.1538C36.7016 35.7155 35.7002 34.0134 35.0988 32.137L37.4857 30.7585L38.0163 30.4521L37.9052 29.8495C37.6725 28.5873 37.6725 27.2987 37.9052 26.0365L38.0163 25.4339L37.4857 25.1275L35.0988 23.749C35.7008 21.8702 36.703 20.16 38.0011 18.732L40.3867 20.1097L40.9177 20.4164L41.3842 20.0184C42.3592 19.1865 43.4779 18.542 44.687 18.112L45.2642 17.9068V17.2942V14.5379C47.1188 14.1364 49.0977 14.12 51.0473 14.5382V17.2942V17.9068L51.6245 18.112C52.8337 18.542 53.9523 19.1865 54.9274 20.0184L55.3938 20.4164L55.9248 20.1097L58.3105 18.732C59.6086 20.16 60.6108 21.8702 61.2128 23.749L58.8259 25.1275L58.2953 25.4339L58.4064 26.0365C58.6391 27.2987 58.6391 28.5873 58.4064 29.8495ZM34.5346 15.358L34.5343 15.3583C33.0448 16.9704 31.8748 18.8629 31.0428 20.8735C25.5563 20.8364 21.1276 16.3848 21.1276 10.8894C21.1276 5.37101 25.5838 0.914862 31.1022 0.914862C36.6207 0.914862 41.0865 5.3807 41.0865 10.8991C41.0865 12.1751 40.8257 13.3943 40.3716 14.527L40.3141 14.4935C40.3131 14.4929 40.312 14.4923 40.311 14.4917C39.6009 14.0712 38.7893 13.8585 37.9721 13.8585C36.665 13.8585 35.4164 14.4047 34.5346 15.358ZM34.5441 40.5278L34.5483 40.5323C35.4367 41.4799 36.6822 42.0275 37.9818 42.0275C39.0465 42.0275 39.8115 41.6917 40.4373 41.3403V41.4792C40.4373 41.8655 40.4912 42.2323 40.5844 42.5782H17.159C15.0707 42.5782 13.376 40.8836 13.376 38.7952V36.0047C13.376 30.322 17.9867 25.7103 23.6801 25.7103H24.2899C26.3704 26.6777 28.6647 27.2607 31.1216 27.2607C31.3203 27.2607 31.5384 27.2461 31.7342 27.2309C31.9822 27.4649 32.2631 27.6836 32.5848 27.8699C32.5851 27.8701 32.5855 27.8703 32.5859 27.8706L32.6861 27.9289C31.5906 28.633 29.5266 30.4471 30.4567 33.4497C31.2612 36.0669 32.6844 38.5157 34.5441 40.5278ZM42.5981 27.943C42.5981 31.0083 45.0881 33.5104 48.1655 33.5104C51.2428 33.5104 53.7329 31.0083 53.7329 27.943C53.7329 24.8765 51.2319 22.3756 48.1655 22.3756C45.099 22.3756 42.5981 24.8765 42.5981 27.943ZM14.7407 12.4398C14.7407 15.3808 12.3484 17.7731 9.4074 17.7731C6.46638 17.7731 4.0741 15.3808 4.0741 12.4398C4.0741 9.49874 6.46638 7.10646 9.4074 7.10646C12.3484 7.10646 14.7407 9.49874 14.7407 12.4398ZM12.508 22.6097C13.5615 22.6097 14.5415 22.9144 15.369 23.4421C12.012 25.6655 9.6083 29.1661 8.85054 33.2763H3.20611C1.97045 33.2763 0.973456 32.2793 0.973456 31.0436V27.943C0.973456 25.002 3.36574 22.6097 6.30676 22.6097H12.508Z" stroke="#DF0B0B" stroke-width="1.73597"/>
</svg>
