<svg width="13" height="18" viewBox="0 0 13 18" fill="none" xmlns="http://www.w3.org/2000/svg">
<path d="M6.3 0C2.817 0 0 2.817 0 6.3C0 7.866 0.45 9.333 1.269 10.656C2.124 12.042 3.249 13.23 4.113 14.616C4.536 15.291 4.842 15.921 5.166 16.65C5.4 17.145 5.589 18 6.3 18C7.011 18 7.2 17.145 7.425 16.65C7.758 15.921 8.055 15.291 8.478 14.616C9.342 13.239 10.467 12.051 11.322 10.656C12.15 9.333 12.6 7.866 12.6 6.3C12.6 2.817 9.783 0 6.3 0ZM6.3 8.775C5.058 8.775 4.05 7.767 4.05 6.525C4.05 5.283 5.058 4.275 6.3 4.275C7.542 4.275 8.55 5.283 8.55 6.525C8.55 7.767 7.542 8.775 6.3 8.775Z" fill="#535353" fill-opacity="0.6"/>
</svg>
